<svg fill="#000000" height="200px" width="200px" version="1.1" id="Layer_1" xmlns="http://www.w3.org/2000/svg" xmlns:xlink="http://www.w3.org/1999/xlink" viewBox="0 0 512 512" xml:space="preserve"><g id="SVGRepo_bgCarrier" stroke-width="0"></g><g id="SVGRepo_tracerCarrier" stroke-linecap="round" stroke-linejoin="round"></g><g id="SVGRepo_iconCarrier"> <g> <g> <path d="M451.373,284.006c-0.097-5.157-0.351-12.431-0.972-21.191c-0.719-10.222-1.932-22.456-3.967-35.605 c-0.03-0.195-0.083-0.383-0.123-0.575c-6.094-38.728-19.375-85.619-48.248-114.492c-17.23-17.23-36.913-33.174-64.026-33.174 c-26.345,0-50.829,13.087-65.494,35.008c-0.161,0.24-0.312,0.488-0.452,0.742l-0.255,0.46c-2.714,3.792-7.06,6.056-11.723,6.094 c-0.038,0-0.074,0-0.111,0c-4.707,0-9.104-2.271-11.84-6.095l-0.255-0.46c-0.14-0.254-0.292-0.5-0.452-0.742 c-14.665-21.921-39.149-35.008-65.494-35.008c-27.114,0-46.796,15.944-64.026,33.174c-28.87,28.871-42.153,75.758-48.247,114.483 c-0.042,0.194-0.094,0.383-0.125,0.581c-2.034,13.136-3.245,25.359-3.964,35.575c-0.623,8.775-0.877,16.064-0.975,21.226 C20.929,299.948,0,320.37,0,343.316c0,26.457,27.373,49.276,79.159,65.994C126.547,424.607,189.35,433.031,256,433.031 c66.65,0,129.453-8.425,176.841-23.721C484.627,392.594,512,369.773,512,343.316C512,320.369,491.069,299.947,451.373,284.006z M128.709,126.921c16.239-16.239,30.828-27.055,49.249-27.055c19.216,0,37.088,9.482,47.892,25.385l0.287,0.518 c0.148,0.267,0.307,0.528,0.48,0.782c6.572,9.729,17.476,15.559,29.197,15.619c0.061,0.001,0.12,0.001,0.181,0.001 c11.792,0,22.776-5.839,29.384-15.62c0.171-0.254,0.331-0.514,0.479-0.781l0.287-0.518c10.804-15.904,28.675-25.385,47.892-25.385 c18.421,0,33.01,10.816,49.249,27.053c22.186,22.186,34.679,59.62,41.171,95.521c-53.362,22.41-109.99,33.774-168.456,33.774 c-58.468,0-115.099-11.365-168.463-33.776C94.03,186.54,106.523,149.106,128.709,126.921z M84.381,243.756 c54.486,22.141,112.152,33.358,171.619,33.358c59.464,0,117.128-11.215,171.613-33.355c2.11,17.595,2.71,32.313,2.867,40.678 C375.393,308.556,316.728,320.78,256,320.78c-60.732,0-119.398-12.225-174.486-36.346 C81.671,276.07,82.271,261.355,84.381,243.756z M426.421,389.424C381.052,404.069,320.529,412.134,256,412.134 s-125.052-8.066-170.421-22.711c-40.501-13.075-64.681-30.31-64.681-46.107c0-13.508,18.532-28.632,49.8-40.822 c58.451,25.998,120.768,39.184,185.302,39.184c64.533,0,126.851-13.186,185.302-39.184c31.268,12.191,49.8,27.315,49.8,40.822 C491.102,359.113,466.922,376.349,426.421,389.424z"></path> </g> </g> <g> <g> <path d="M463.753,332.257c-4.154-4.004-10.769-3.882-14.774,0.274c-1.11,1.151-2.369,2.318-3.742,3.467 c-4.426,3.704-5.01,10.294-1.306,14.719c2.067,2.469,5.031,3.743,8.018,3.743c2.366,0,4.745-0.799,6.701-2.437 c1.943-1.627,3.752-3.306,5.377-4.992C468.031,342.877,467.908,336.261,463.753,332.257z"></path> </g> </g> <g> <g> <path d="M427.867,358.868c-2.105-5.372-8.169-8.02-13.541-5.913c-14.087,5.522-30.842,10.248-49.801,14.047 c-13.996,2.806-29.03,5.06-44.684,6.702c-5.739,0.602-9.905,5.742-9.302,11.481c0.563,5.369,5.097,9.36,10.379,9.36 c0.365,0,0.732-0.02,1.102-0.059c16.298-1.708,31.98-4.063,46.611-6.995c20.156-4.04,38.096-9.114,53.32-15.082 C427.325,370.303,429.972,364.24,427.867,358.868z"></path> </g> </g> </g></svg>