<svg fill="#000000" height="200px" width="200px" version="1.1" id="Layer_1" xmlns="http://www.w3.org/2000/svg" xmlns:xlink="http://www.w3.org/1999/xlink" viewBox="0 0 512 512" xml:space="preserve"><g id="SVGRepo_bgCarrier" stroke-width="0"></g><g id="SVGRepo_tracerCarrier" stroke-linecap="round" stroke-linejoin="round"></g><g id="SVGRepo_iconCarrier"> <g> <g> <path d="M119.443,496.15H68.165V218.286c0-4.378-3.547-7.925-7.925-7.925s-7.925,3.547-7.925,7.925v285.789 c0,4.378,3.547,7.925,7.925,7.925h59.203c4.378,0,7.925-3.547,7.925-7.925C127.368,499.697,123.821,496.15,119.443,496.15z"></path> </g> </g> <g> <g> <path d="M457.364,50.006L409.679,2.32C408.192,0.835,406.177,0,404.074,0h-201.19c-4.378,0-7.925,3.547-7.925,7.925v108.311 H60.239c-4.378,0-7.925,3.547-7.925,7.925v62.424c0,4.378,3.547,7.925,7.925,7.925c4.378,0,7.925-3.547,7.925-7.925v-54.499 h142.078v93.254c0,4.378,3.547,7.925,7.925,7.925h93.253V496.15H151.143c-4.378,0-7.925,3.547-7.925,7.925 c0,4.378,3.547,7.925,7.925,7.925h168.202c4.378,0,7.925-3.547,7.925-7.925V380.764h124.49c4.378,0,7.925-3.547,7.925-7.925 V169.68c0-4.378-3.547-7.925-7.925-7.925s-7.925,3.547-7.925,7.925v195.233H327.271V173.806c0-2.102-0.835-4.117-2.32-5.605 l-49.644-49.644c-1.487-1.486-3.502-2.32-5.605-2.32H210.81V15.85H346.65v89.259c0,4.378,3.547,7.925,7.925,7.925h89.26v24.945 c0,4.378,3.547,7.925,7.925,7.925c4.378,0,7.925-3.547,7.925-7.925v-32.871V55.611C459.685,53.509,458.85,51.493,457.364,50.006z M226.092,132.086h40.325l45.002,45.002v40.327h-85.328V132.086z M443.834,97.184h-81.334V15.85h38.291l43.042,43.042V97.184z"></path> </g> </g> <g> <g> <path d="M268.756,270.085H110.83c-4.378,0-7.925,3.547-7.925,7.925s3.547,7.925,7.925,7.925h157.927 c4.378,0,7.925-3.547,7.925-7.925S273.134,270.085,268.756,270.085z"></path> </g> </g> <g> <g> <path d="M268.756,316.76H110.83c-4.378,0-7.925,3.547-7.925,7.925s3.547,7.925,7.925,7.925h157.927 c4.378,0,7.925-3.547,7.925-7.925S273.134,316.76,268.756,316.76z"></path> </g> </g> <g> <g> <path d="M268.756,363.435H110.83c-4.378,0-7.925,3.547-7.925,7.925s3.547,7.925,7.925,7.925h157.927 c4.378,0,7.925-3.547,7.925-7.925S273.134,363.435,268.756,363.435z"></path> </g> </g> <g> <g> <path d="M268.756,447.223h-78.964c-4.378,0-7.925,3.547-7.925,7.925c0,4.378,3.547,7.925,7.925,7.925h78.964 c4.378,0,7.925-3.547,7.925-7.925C276.682,450.77,273.133,447.223,268.756,447.223z"></path> </g> </g> </g></svg>