<svg fill="#000000" height="200px" width="200px" version="1.1" id="Layer_1" xmlns="http://www.w3.org/2000/svg" xmlns:xlink="http://www.w3.org/1999/xlink" viewBox="0 0 503.607 503.607" xml:space="preserve"><g id="SVGRepo_bgCarrier" stroke-width="0"></g><g id="SVGRepo_tracerCarrier" stroke-linecap="round" stroke-linejoin="round"></g><g id="SVGRepo_iconCarrier"> <g> <g> <g> <path d="M100.721,268.59h83.934c4.636,0,8.393-3.758,8.393-8.393c0-4.636-3.758-8.393-8.393-8.393h-83.934 c-4.636,0-8.393,3.758-8.393,8.393C92.328,264.832,96.086,268.59,100.721,268.59z"></path> <path d="M100.721,235.016h83.934c4.636,0,8.393-3.758,8.393-8.393s-3.758-8.393-8.393-8.393h-83.934 c-4.636,0-8.393,3.758-8.393,8.393S96.086,235.016,100.721,235.016z"></path> <path d="M184.656,302.164c4.636,0,8.393-3.758,8.393-8.393s-3.758-8.393-8.393-8.393h-83.934c-4.636,0-8.393,3.758-8.393,8.393 s3.758,8.393,8.393,8.393H184.656z"></path> <path d="M436.459,0h-33.574c-4.636,0-8.393,3.758-8.393,8.393v394.383c0,27.786-22.628,50.47-50.361,50.47H218.229 c-27.755,0-50.361-22.606-50.361-50.361v-0.001c9.277,0,16.787-7.51,16.787-16.787v-16.786c4.636,0,8.393-3.758,8.393-8.393 c0-4.636-3.758-8.393-8.393-8.393v-16.785h33.574c4.636,0,8.393-3.758,8.393-8.393V125.903c0-4.636-3.758-8.393-8.393-8.393 h-8.393V58.756c0-4.636-3.758-8.393-8.393-8.393V8.395c0-4.636-3.758-8.393-8.393-8.393H92.328c-4.636,0-8.393,3.758-8.393,8.393 v41.967c-4.636,0-8.393,3.758-8.393,8.393v58.754h-8.393c-4.636,0-8.393,3.758-8.393,8.393v201.443 c0,4.636,3.758,8.393,8.393,8.393h33.574v16.785c-4.636,0-8.393,3.758-8.393,8.393c0,4.636,3.758,8.393,8.393,8.393v16.786 c0,9.277,7.51,16.787,16.787,16.787v0.001c0,55.542,45.18,100.721,100.721,100.721h125.902 c55.527,0,100.721-45.265,100.721-100.83V8.393C444.852,3.758,441.095,0,436.459,0z M100.721,16.789h83.934v33.574h-83.934 V16.789z M92.328,67.149h100.721v50.361H92.328V67.149z M75.541,134.297h8.393h117.508h8.393v184.656h-33.524 c-0.017,0-0.033-0.003-0.05-0.003h-67.148c-0.017,0-0.033,0.002-0.05,0.003H75.541V134.297z M117.508,335.739h50.361v16.785 h-50.361V335.739z M167.869,369.311v16.786h-50.361v-16.786H167.869z M428.066,402.776c0,46.3-37.685,84.044-83.934,84.044 H218.229c-46.271,0-83.934-37.664-83.934-83.934h16.787c0,37.026,30.122,67.148,67.148,67.148h125.902 c37.013,0,67.148-30.209,67.148-67.257V16.787h16.787V402.776z"></path> </g> </g> </g> </g></svg>