<svg version="1.1" id="_x32_" xmlns="http://www.w3.org/2000/svg" xmlns:xlink="http://www.w3.org/1999/xlink" viewBox="0 0 512 512" xml:space="preserve" fill="#000000"><g id="SVGRepo_bgCarrier" stroke-width="0"></g><g id="SVGRepo_tracerCarrier" stroke-linecap="round" stroke-linejoin="round"></g><g id="SVGRepo_iconCarrier"> <style type="text/css">  .st0{fill:#000000;}  </style> <g> <path class="st0" d="M145.46,54.401l1.984,9.344c0.844-0.375,1.703-0.75,2.547-1.094c0.844-0.359,1.672-0.688,2.5-0.984 c0.813-0.313,1.609-0.609,2.422-0.875c0.797-0.266,1.578-0.5,2.359-0.734c1.313-0.359,2.688-0.594,3.969-0.719 c1.297-0.125,2.531-0.172,3.594-0.141c1.078,0.016,1.984,0.078,2.641,0.141c0.672,0.063,1.094,0.125,1.188,0.125l0.484,0.047 l0.453,0.172l0.359,0.297l0.25,0.406l0.125,0.5v0.563l-0.141,0.578l-0.234,0.578l-5.422,10.016l-0.328,0.5l-0.375,0.438 l-0.406,0.375l-0.484,0.297l-0.25,0.141l-0.297,0.109l-0.25,0.047l-0.297,0.047c-0.063,0-0.359-0.047-0.844-0.063 c-0.5-0.031-1.188-0.031-1.969-0.031s-1.641,0.063-2.578,0.188c-0.922,0.109-1.875,0.281-2.781,0.547 c-0.906,0.25-1.797,0.563-2.719,0.891c-0.906,0.344-1.828,0.703-2.766,1.078c-0.922,0.406-1.844,0.813-2.797,1.297 c-0.922,0.438-1.891,0.938-2.828,1.453c-1.25,0.688-2.406,1.359-3.469,2.078s-2,1.438-2.891,2.156 c-0.859,0.719-1.656,1.453-2.344,2.203c-0.703,0.75-1.281,1.5-1.797,2.25c-0.5,0.781-0.922,1.547-1.281,2.297 c-0.313,0.766-0.594,1.516-0.766,2.25c-0.172,0.75-0.281,1.484-0.313,2.203c0,0.719,0.063,1.438,0.203,2.141 c0.156,0.625,0.297,1.219,0.547,1.719c0.219,0.5,0.484,0.938,0.781,1.313c0.328,0.359,0.672,0.688,1.078,0.938 c0.406,0.219,0.844,0.391,1.344,0.5s1.078,0.141,1.703,0.109s1.313-0.125,2.094-0.281c0.75-0.172,1.578-0.453,2.453-0.75 c0.922-0.313,1.875-0.703,2.906-1.188l11.438-5.281c2.141-0.984,4.172-1.813,6.094-2.469c1.906-0.672,3.688-1.188,5.391-1.547 c1.688-0.359,3.266-0.563,4.719-0.609c1.5-0.031,2.859,0.078,4.125,0.344c1.25,0.266,2.391,0.703,3.406,1.313 c1.047,0.609,1.953,1.406,2.75,2.359s1.469,2.063,2.063,3.375c0.547,1.297,1.016,2.766,1.359,4.406 c0.203,0.984,0.359,1.969,0.438,2.938c0.063,0.984,0.094,1.953,0.078,2.938c-0.047,0.969-0.125,1.938-0.297,2.922 c-0.156,0.953-0.344,1.938-0.609,2.875c-0.266,1-0.594,1.969-0.953,2.922c-0.359,0.969-0.781,1.906-1.234,2.844 c-0.453,0.953-0.953,1.859-1.5,2.797c-0.547,0.922-1.156,1.844-1.781,2.75c-0.641,0.906-1.328,1.813-2.031,2.703 c-0.734,0.891-1.5,1.766-2.313,2.625c-0.813,0.875-1.672,1.719-2.563,2.563c-0.906,0.844-1.828,1.672-2.828,2.484 c-0.438,0.344-0.875,0.688-1.313,1.047c-0.438,0.328-0.891,0.672-1.328,1c-0.453,0.344-0.906,0.672-1.391,1.016 c-0.469,0.328-0.922,0.641-1.391,0.969l2.313,11.141l-14.375,7.891l-2.266-10.906c-1.047,0.484-2.078,0.922-3.078,1.375 c-1.031,0.438-2.047,0.828-3.063,1.219c-0.984,0.375-2,0.734-2.984,1.047c-1,0.328-1.969,0.625-2.938,0.906 c-1.484,0.438-3.094,0.641-4.703,0.719c-1.594,0.078-3.172,0.031-4.609-0.078c-1.391-0.109-2.625-0.266-3.547-0.406 c-0.906-0.141-1.484-0.266-1.594-0.281l-0.516-0.078l-0.406-0.188l-0.344-0.297l-0.219-0.422l-0.094-0.5l0.016-0.531l0.125-0.578 l0.234-0.578l5.828-10.609l0.313-0.484l0.375-0.422l0.406-0.359l0.438-0.297l0.328-0.156l0.313-0.109l0.359-0.063l0.313-0.016 c0.078,0.016,0.516,0.109,1.188,0.203c0.656,0.109,1.563,0.25,2.609,0.328c1.031,0.109,2.203,0.156,3.359,0.109 c1.172-0.063,2.344-0.203,3.438-0.484c1.063-0.313,2.109-0.641,3.172-1c1.063-0.375,2.094-0.766,3.141-1.188 c1.031-0.438,2.063-0.875,3.109-1.391c1.031-0.484,2.016-1.016,3.031-1.547c1.281-0.703,2.5-1.422,3.625-2.172 c1.156-0.75,2.25-1.5,3.234-2.297c1.031-0.781,1.984-1.609,2.859-2.438s1.688-1.672,2.438-2.563 c0.75-0.875,1.391-1.766,1.906-2.641c0.516-0.859,0.922-1.75,1.203-2.625c0.281-0.891,0.438-1.781,0.484-2.656 c0.063-0.875,0-1.781-0.203-2.656c-0.109-0.625-0.297-1.203-0.531-1.703c-0.219-0.531-0.469-0.969-0.797-1.359 c-0.313-0.391-0.656-0.734-1.078-0.969c-0.406-0.266-0.844-0.469-1.328-0.625c-0.469-0.141-1.031-0.203-1.641-0.203 c-0.625,0-1.297,0.078-2.063,0.219c-0.734,0.172-1.547,0.391-2.422,0.688c-0.875,0.281-1.813,0.656-2.813,1.094l-13.094,6.047 c-1.938,0.891-3.797,1.625-5.547,2.219c-1.766,0.609-3.422,1.063-5.016,1.375c-1.547,0.313-3.031,0.5-4.422,0.547 c-1.391,0.031-2.672-0.063-3.875-0.328c-1.203-0.219-2.297-0.641-3.281-1.25c-0.984-0.563-1.844-1.328-2.625-2.281 c-0.766-0.938-1.422-2.063-1.969-3.344c-0.563-1.297-1-2.766-1.359-4.406c-0.172-0.906-0.328-1.797-0.375-2.719 c-0.094-0.906-0.109-1.797-0.094-2.734c0.047-0.906,0.141-1.813,0.266-2.75c0.156-0.922,0.344-1.828,0.594-2.766 s0.531-1.844,0.875-2.766c0.328-0.922,0.703-1.844,1.125-2.719c0.422-0.906,0.859-1.781,1.375-2.656 c0.484-0.891,1.047-1.766,1.625-2.625c0.594-0.875,1.203-1.719,1.875-2.547c0.656-0.844,1.344-1.672,2.063-2.469 c0.734-0.813,1.484-1.625,2.281-2.391c0.813-0.781,1.625-1.531,2.484-2.281c0.344-0.313,0.734-0.625,1.109-0.922 s0.75-0.609,1.109-0.891c0.406-0.297,0.781-0.578,1.172-0.859c0.391-0.297,0.797-0.578,1.172-0.859l-1.984-9.547L145.46,54.401z"></path> <path class="st0" d="M272.289,126.417c2.328-6.234,4.156-12.391,5.5-18.453l-42.766-38.938c-0.734,6.25-2.172,12.813-4.297,19.531 L272.289,126.417z"></path> <path class="st0" d="M258.367,154.713c3.188-5.203,6.031-10.422,8.547-15.672l-41.141-37.438 c-2.328,5.313-5.063,10.672-8.172,15.984L258.367,154.713z"></path> <path class="st0" d="M139.648,187.12c-6.641,2.672-13.172,4.609-19.453,5.734l42.984,39.141c5.984-1.781,12.063-4.094,18.156-6.938 L139.648,187.12z"></path> <path class="st0" d="M193.554,218.651c5.047-2.922,10.047-6.188,14.984-9.797l-40.828-37.172 c-5.078,3.578-10.203,6.734-15.344,9.484L193.554,218.651z"></path> <path class="st0" d="M93.429,52.885c-45.922,50.453-57.359,114.797-25.563,143.75l28.172,25.656 c13.063,11.891,31.391,15.938,51.641,13.109l-45.734-41.625c-8.938-0.891-16.766-3.969-22.844-9.484 c-24.484-22.328-12.281-77.344,26.688-120.156c38.969-42.797,92.609-60.109,117.125-37.781 c6.781,6.172,10.766,14.891,12.125,25.156l45.016,40.984c1.563-21.531-4.094-40.453-17.734-52.859l-28.156-25.641 C202.367-14.958,139.367,2.463,93.429,52.885z"></path> <path class="st0" d="M218.867,200.698c4.328-3.672,8.578-7.641,12.719-11.859l-40.547-36.891 c-4.156,4.203-8.438,8.109-12.828,11.75L218.867,200.698z"></path> <path class="st0" d="M240.351,179.307c3.844-4.469,7.438-9.031,10.766-13.672l-40.625-36.984c-3.25,4.672-6.797,9.281-10.641,13.75 L240.351,179.307z"></path> <path class="st0" d="M180.507,398.385l-7.781,1.813c0.344,0.703,0.672,1.422,0.969,2.125c0.313,0.688,0.609,1.375,0.875,2.078 c0.281,0.672,0.531,1.344,0.781,2.016c0.219,0.672,0.438,1.313,0.672,1.968c0.313,1.094,0.531,2.219,0.672,3.297 c0.125,1.094,0.188,2.109,0.188,3.016c0.016,0.891-0.031,1.672-0.078,2.219c-0.031,0.563-0.063,0.906-0.078,0.984l-0.031,0.422 l-0.125,0.375l-0.25,0.313l-0.344,0.234l-0.422,0.094l-0.469,0.016l-0.469-0.109l-0.484-0.188l-8.516-4.344l-0.438-0.266 l-0.359-0.297l-0.328-0.359l-0.25-0.375l-0.125-0.234l-0.078-0.234l-0.063-0.219l-0.031-0.234c0,0,0.016-0.297,0.031-0.719 c0-0.406,0.016-0.969-0.016-1.625c-0.016-0.672-0.094-1.391-0.188-2.171c-0.125-0.766-0.313-1.563-0.547-2.297 c-0.234-0.75-0.484-1.531-0.797-2.297c-0.297-0.75-0.594-1.516-0.953-2.281c-0.344-0.766-0.734-1.547-1.125-2.313 c-0.391-0.781-0.828-1.563-1.281-2.359c-0.594-1.016-1.203-1.984-1.813-2.859c-0.625-0.859-1.25-1.656-1.859-2.375 c-0.625-0.734-1.266-1.375-1.906-1.922c-0.625-0.563-1.281-1.047-1.922-1.469c-0.656-0.406-1.297-0.75-1.953-1 c-0.641-0.281-1.266-0.484-1.891-0.625c-0.625-0.125-1.25-0.203-1.859-0.203s-1.188,0.078-1.797,0.203 c-0.531,0.125-1,0.281-1.422,0.469c-0.422,0.203-0.797,0.438-1.078,0.719c-0.297,0.25-0.563,0.547-0.766,0.891 c-0.172,0.359-0.313,0.719-0.391,1.156c-0.094,0.422-0.125,0.906-0.078,1.422c0.047,0.531,0.141,1.094,0.313,1.734 c0.141,0.641,0.375,1.344,0.656,2.078c0.297,0.734,0.641,1.531,1.047,2.391l4.656,9.484c0.875,1.765,1.594,3.437,2.203,5.046 c0.594,1.578,1.063,3.078,1.391,4.484c0.328,1.422,0.531,2.75,0.578,3.969c0.094,1.25,0,2.391-0.203,3.453 c-0.172,1.047-0.516,2.016-1.016,2.891c-0.516,0.859-1.141,1.641-1.906,2.344c-0.797,0.672-1.734,1.266-2.813,1.766 c-1.078,0.516-2.281,0.922-3.656,1.234c-0.828,0.203-1.656,0.344-2.469,0.422c-0.797,0.094-1.625,0.141-2.438,0.141 c-0.828-0.031-1.656-0.078-2.469-0.172c-0.797-0.125-1.625-0.297-2.422-0.469c-0.844-0.234-1.656-0.469-2.469-0.766 c-0.813-0.266-1.609-0.609-2.406-0.969s-1.578-0.766-2.375-1.203c-0.781-0.438-1.578-0.922-2.328-1.422 c-0.797-0.516-1.547-1.094-2.313-1.672c-0.766-0.594-1.5-1.219-2.25-1.875c-0.734-0.656-1.469-1.375-2.188-2.109 c-0.734-0.719-1.453-1.5-2.125-2.297c-0.328-0.375-0.609-0.719-0.906-1.094c-0.297-0.359-0.578-0.734-0.891-1.094 c-0.281-0.391-0.563-0.75-0.859-1.141c-0.281-0.391-0.563-0.766-0.859-1.156l-9.297,2.141l-6.875-11.875l9.109-2.109 c-0.438-0.859-0.828-1.719-1.219-2.563s-0.734-1.688-1.078-2.531s-0.656-1.656-0.938-2.484c-0.313-0.828-0.578-1.641-0.813-2.438 c-0.391-1.25-0.609-2.578-0.688-3.922c-0.125-1.359-0.109-2.672-0.047-3.875c0.078-1.188,0.172-2.219,0.281-2.984 c0.094-0.766,0.188-1.25,0.203-1.359l0.047-0.406l0.156-0.344l0.266-0.313l0.313-0.188l0.406-0.078h0.469l0.5,0.094l0.469,0.219 l9.016,4.641l0.391,0.266l0.375,0.281l0.313,0.344l0.25,0.359l0.125,0.266l0.125,0.281l0.047,0.281l0.031,0.281 c-0.031,0.047-0.078,0.406-0.156,0.984c-0.094,0.563-0.188,1.344-0.219,2.188c-0.078,0.875-0.094,1.859-0.031,2.844 c0.063,0.953,0.203,1.953,0.484,2.844c0.266,0.906,0.563,1.781,0.906,2.656c0.328,0.875,0.656,1.75,1.047,2.609 c0.375,0.859,0.781,1.703,1.219,2.547c0.422,0.859,0.891,1.703,1.359,2.531c0.609,1.063,1.234,2.046,1.891,3 c0.641,0.953,1.313,1.844,1.984,2.688c0.688,0.813,1.375,1.609,2.094,2.328s1.453,1.375,2.203,2 c0.75,0.609,1.516,1.125,2.234,1.547c0.766,0.406,1.5,0.734,2.234,0.938c0.75,0.234,1.5,0.344,2.234,0.375 c0.734,0.016,1.484-0.047,2.234-0.25c0.516-0.094,1-0.266,1.422-0.453c0.438-0.203,0.781-0.422,1.109-0.703 c0.313-0.266,0.594-0.578,0.813-0.922c0.203-0.344,0.359-0.703,0.484-1.125c0.094-0.406,0.141-0.859,0.109-1.391 c0-0.516-0.078-1.063-0.219-1.703c-0.125-0.625-0.328-1.313-0.594-2.031s-0.594-1.5-0.969-2.328l-5.344-10.859 c-0.766-1.609-1.422-3.156-1.953-4.609c-0.531-1.469-0.953-2.844-1.25-4.172c-0.313-1.297-0.5-2.547-0.547-3.703 c-0.063-1.156,0-2.25,0.188-3.234c0.172-1.031,0.484-1.953,0.969-2.797c0.469-0.828,1.109-1.563,1.875-2.234 c0.781-0.656,1.688-1.234,2.766-1.719c1.078-0.5,2.297-0.891,3.688-1.203c0.734-0.188,1.5-0.313,2.266-0.391 c0.75-0.078,1.516-0.125,2.281-0.125c0.766,0.016,1.516,0.063,2.297,0.188c0.781,0.078,1.547,0.234,2.344,0.422 c0.781,0.188,1.578,0.422,2.328,0.688c0.781,0.25,1.563,0.547,2.313,0.875c0.766,0.344,1.5,0.703,2.25,1.109s1.5,0.844,2.219,1.313 c0.75,0.484,1.469,0.969,2.203,1.531c0.688,0.516,1.391,1.078,2.078,1.688c0.703,0.563,1.391,1.203,2.063,1.844 c0.656,0.656,1.313,1.328,1.953,2.031c0.281,0.297,0.531,0.625,0.797,0.922c0.25,0.313,0.5,0.609,0.766,0.938 c0.25,0.313,0.5,0.625,0.75,0.953c0.234,0.297,0.5,0.625,0.734,0.969l7.969-1.859L180.507,398.385z"></path> <path class="st0" d="M122.648,506.057c5.266,1.828,10.469,3.266,15.547,4.25l31.797-36.594c-5.25-0.5-10.766-1.578-16.422-3.234 L122.648,506.057z"></path> <path class="st0" d="M98.664,494.932c4.406,2.578,8.828,4.875,13.281,6.875l30.594-35.219c-4.516-1.844-9.047-4.031-13.563-6.531 L98.664,494.932z"></path> <path class="st0" d="M69.164,396.073c-2.359-5.5-4.109-10.938-5.172-16.172l-31.953,36.781c1.609,4.969,3.656,10.031,6.141,15.078 L69.164,396.073z"></path> <path class="st0" d="M43.789,441.869c2.563,4.172,5.391,8.297,8.531,12.375l30.328-34.938c-3.063-4.188-5.828-8.422-8.234-12.671 L43.789,441.869z"></path> <path class="st0" d="M180.757,354.729c-43.172-37.5-97.313-45.828-120.969-18.594l-20.906,24.094 c-9.734,11.172-12.781,26.609-10.016,43.531l34-39.141c0.563-7.516,3-14.141,7.5-19.313c18.234-20.984,64.578-11.828,101.219,20 c36.625,31.813,52.188,76.437,33.953,97.421c-5.063,5.813-12.281,9.313-20.859,10.641L151.226,511.9 c18.078,0.891,33.813-4.219,43.953-15.891l20.938-24.109C239.742,444.697,223.945,392.229,180.757,354.729z"></path> <path class="st0" d="M59.335,462.729c3.172,3.563,6.578,7.047,10.188,10.438l30.125-34.688c-3.594-3.406-6.969-6.938-10.078-10.531 L59.335,462.729z"></path> <path class="st0" d="M77.695,480.322c3.828,3.156,7.719,6.063,11.672,8.734l30.188-34.734c-3.984-2.641-7.906-5.516-11.734-8.656 L77.695,480.322z"></path> <path class="st0" d="M362.82,414.041c6.609,1.688,13.125,2.906,19.469,3.609l35.172-47.984c-6.469-0.078-13.344-0.844-20.438-2.281 L362.82,414.041z"></path> <path class="st0" d="M332.351,402.854c5.656,2.719,11.297,5.063,16.953,7.046l33.844-46.156c-5.703-1.797-11.469-4-17.266-6.641 L332.351,402.854z"></path> <path class="st0" d="M286.273,284.948c-3.453-6.516-6.141-12.969-7.969-19.266l-35.359,48.234c2.484,5.922,5.5,11.875,9.047,17.797 L286.273,284.948z"></path> <path class="st0" d="M259.882,343.51c3.563,4.844,7.422,9.609,11.672,14.266l33.578-45.781c-4.203-4.813-8-9.719-11.375-14.688 L259.882,343.51z"></path> <path class="st0" d="M418.57,223.073c-56.594-41.5-123.672-46.188-149.828-10.516l-23.172,31.609 c-10.734,14.656-12.891,33.844-7.797,54.234l37.594-51.281c-0.047-9.25,2.266-17.594,7.234-24.422 c20.188-27.484,77.766-20.984,125.813,14.234c48,35.219,71.546,88.203,51.375,115.703c-5.578,7.625-14.047,12.625-24.406,15.141 l-37.031,50.5c22.188-0.734,40.921-8.578,52.14-23.89l23.172-31.594C499.819,327.12,475.163,264.557,418.57,223.073z"></path> <path class="st0" d="M281.007,367.448c4.234,4.031,8.75,7.953,13.516,11.734l33.344-45.469c-4.766-3.813-9.25-7.781-13.422-11.859 L281.007,367.448z"></path> <path class="st0" d="M305.242,387.12c5,3.438,10.047,6.609,15.156,9.5l33.406-45.563c-5.141-2.828-10.25-5.938-15.25-9.375 L305.242,387.12z"></path> <path class="st0" d="M363.71,244.495l0.219,0.125l0.25,0.125l0.219,0.141l0.219,0.156l0.531,0.453l0.438,0.516l0.328,0.547 l0.219,0.531l2.938,9.906l0.094,0.734l-0.234,0.547l-0.516,0.328l-0.75,0.063c-0.094-0.016-0.641-0.109-1.453-0.25 c-0.813-0.125-1.906-0.297-3.094-0.406c-1.188-0.125-2.484-0.219-3.672-0.234c-1.219,0.016-2.344,0.109-3.219,0.344l-2.609,0.828 l-2.344,1.016l-2.125,1.188l-1.922,1.375c-0.75,0.625-1.406,1.266-1.984,1.922c-0.594,0.656-1.078,1.359-1.484,2.078 c-0.406,0.703-0.75,1.438-0.969,2.219c-0.234,0.75-0.359,1.547-0.422,2.344c-0.047,0.813,0.031,1.625,0.25,2.438 c0.188,0.813,0.531,1.625,1,2.469c0.453,0.813,1.031,1.656,1.734,2.484c0.719,0.828,1.547,1.672,2.5,2.516l1.281,1.094l1.281,0.938 l1.281,0.828l1.25,0.703l0.75,0.344l0.734,0.297l0.734,0.25l0.734,0.188l1.953,0.25l2-0.156l2.031-0.547l2.063-0.938l8.844-5.234 c1.313-0.766,2.656-1.375,4.031-1.891c1.359-0.5,2.75-0.859,4.156-1.094c1.406-0.25,2.859-0.375,4.313-0.344 c1.453,0.016,2.922,0.172,4.422,0.438l1.859,0.422l1.891,0.594l1.938,0.75c0.656,0.281,1.313,0.594,1.984,0.922 c0.938,0.484,1.922,1.016,2.891,1.609c0.984,0.594,1.969,1.219,2.969,1.938c1.016,0.703,2.031,1.469,3.063,2.281 s2.063,1.688,3.125,2.594c0.984,0.875,1.938,1.766,2.813,2.641c0.875,0.891,1.688,1.766,2.438,2.641 c0.781,0.891,1.469,1.781,2.109,2.656s1.234,1.766,1.781,2.641c0.547,0.859,1.031,1.719,1.469,2.578 c0.422,0.859,0.797,1.703,1.125,2.547l0.813,2.484l0.516,2.422l0.219,2.391l-0.094,2.281c-0.063,0.766-0.203,1.484-0.375,2.188 c-0.172,0.734-0.391,1.422-0.656,2.094l-0.391,0.844l-0.453,0.813l-0.516,0.781l-0.547,0.766l10.453,9.219l-8.593,7l-10.203-9.094 l-1.797,0.969l-1.797,0.844l-1.891,0.734l-1.906,0.609c-1.109,0.297-2.344,0.469-3.625,0.531c-1.281,0.078-2.563,0.063-3.734-0.016 c-1.156-0.047-2.203-0.156-2.984-0.25c-0.766-0.094-1.281-0.172-1.359-0.188l-0.375-0.016l-0.391-0.078l-0.422-0.125l-0.422-0.188 l-0.219-0.109l-0.219-0.141l-0.219-0.156l-0.219-0.125l-0.578-0.484l-0.469-0.531l-0.359-0.531l-0.234-0.578l-2.906-9.406 l-0.063-0.672l0.188-0.531l0.453-0.344l0.672-0.125l0.984,0.078c0.531,0.047,1.281,0.078,2.094,0.109 c0.844,0.016,1.734,0,2.625-0.078c0.891-0.063,1.781-0.203,2.516-0.422l2.156-0.719l2.047-0.938l1.875-1.109l1.781-1.297 c0.766-0.594,1.406-1.219,1.938-1.844c0.547-0.625,0.969-1.266,1.266-1.922c0.328-0.656,0.531-1.328,0.609-2.016l-0.031-2.109 l-0.641-2.156l-1.109-2.109c-0.438-0.703-0.969-1.406-1.578-2.078s-1.297-1.359-2.031-2.031l-1.234-1.031l-1.188-0.891 l-1.172-0.781l-1.172-0.641l-0.828-0.375l-0.781-0.313l-0.813-0.25l-0.797-0.203l-1.891-0.156l-1.984,0.203l-2.031,0.594 l-2.078,0.984l-7.734,4.609c-1.438,0.859-2.906,1.563-4.375,2.141c-1.484,0.563-2.969,0.984-4.484,1.25 c-1.5,0.297-3.016,0.406-4.547,0.391c-1.563-0.016-3.109-0.172-4.703-0.484l-1.953-0.453l-1.984-0.641 c-0.672-0.234-1.359-0.484-2.031-0.781c-0.688-0.297-1.359-0.609-2.031-0.953c-0.984-0.484-1.984-1.031-2.969-1.625 c-1-0.609-2-1.266-3-1.969c-1.031-0.719-2.047-1.484-3.094-2.297c-1.016-0.828-2.063-1.688-3.109-2.641 c-1.063-0.922-2.047-1.859-3-2.797c-0.922-0.953-1.797-1.875-2.594-2.813c-0.813-0.906-1.547-1.844-2.234-2.766 c-0.672-0.906-1.281-1.828-1.813-2.766c-0.563-0.906-1.047-1.813-1.5-2.719c-0.422-0.891-0.797-1.781-1.125-2.672l-0.797-2.594 l-0.469-2.563c-0.109-0.844-0.156-1.672-0.156-2.484c0.016-0.797,0.078-1.594,0.203-2.391s0.313-1.563,0.547-2.328 s0.547-1.531,0.891-2.266l0.516-0.938l0.563-0.906l0.594-0.922l0.656-0.891l-12.109-10.719l8.609-6.922l11.875,10.531l2.125-1.219 l2.188-1.063l2.281-0.906l2.375-0.734c1.234-0.328,2.781-0.469,4.438-0.469c1.641-0.031,3.375,0.094,5,0.266 c1.594,0.156,3.047,0.344,4.156,0.531c1.109,0.156,1.828,0.297,1.969,0.313l0.359,0.031l0.375,0.094l0.406,0.125L363.71,244.495z"></path> </g> </g></svg>