<svg fill="#000000" height="200px" width="200px" version="1.1" id="Layer_1" xmlns="http://www.w3.org/2000/svg" xmlns:xlink="http://www.w3.org/1999/xlink" viewBox="0 0 512 512" xml:space="preserve"><g id="SVGRepo_bgCarrier" stroke-width="0"></g><g id="SVGRepo_tracerCarrier" stroke-linecap="round" stroke-linejoin="round"></g><g id="SVGRepo_iconCarrier"> <g> <g> <path d="M191.326,161.684c-63.892,0-115.874,51.98-115.874,115.874s51.982,115.874,115.874,115.874S307.2,341.451,307.2,277.558 S255.218,161.684,191.326,161.684z M191.326,377.263c-54.978,0-99.705-44.727-99.705-99.705s44.727-99.705,99.705-99.705 c54.978,0,99.705,44.727,99.705,99.705S246.304,377.263,191.326,377.263z"></path> </g> </g> <g> <g> <path d="M241.763,247.916h-14.642c-3.392,0-6.153-2.76-6.153-6.153v-14.642c0-12.307-10.014-22.321-22.321-22.321h-14.642 c-12.307,0-22.321,10.014-22.321,22.321v14.642c0,3.392-2.76,6.153-6.153,6.153h-14.642c-12.307,0-22.321,10.014-22.321,22.321 v14.642c0,12.307,10.014,22.321,22.321,22.321h14.642c3.392,0,6.153,2.76,6.153,6.153v14.642 c0,12.307,10.014,22.321,22.321,22.321h14.642c12.307,0,22.321-10.014,22.321-22.321v-14.642c0-3.392,2.76-6.153,6.153-6.153 h14.642c12.307,0,22.321-10.014,22.321-22.321v-14.642C264.084,257.929,254.071,247.916,241.763,247.916z M247.916,284.879 c0,3.392-2.76,6.153-6.153,6.153h-14.642c-12.307,0-22.321,10.014-22.321,22.321v14.642c0,3.392-2.76,6.153-6.153,6.153h-14.642 c-3.392,0-6.153-2.76-6.153-6.153v-14.642c0-12.307-10.014-22.321-22.321-22.321h-14.642c-3.392,0-6.153-2.76-6.153-6.153v-14.642 c0-3.392,2.76-6.153,6.153-6.153h14.642c12.307,0,22.321-10.014,22.321-22.321v-14.642c0-3.392,2.76-6.153,6.153-6.153h14.642 c3.392,0,6.153,2.76,6.153,6.153v14.642c0,12.307,10.014,22.321,22.321,22.321h14.642c3.392,0,6.153,2.76,6.153,6.153V284.879z"></path> </g> </g> <g> <g> <path d="M439.242,97.011h-89.324c-4.08-42.283-39.805-75.453-83.139-75.453c-13.157,0-26.117,3.113-37.767,9.02 c-11.332-5.754-24.131-9.02-37.685-9.02c-43.335,0-79.058,33.17-83.139,75.453H72.758C32.639,97.011,0,129.649,0,169.768v247.916 c0,40.119,32.639,72.758,72.758,72.758h366.484c40.119,0,72.758-32.639,72.758-72.758V169.768 C512,129.649,479.361,97.011,439.242,97.011z M266.779,37.726c34.41,0,62.857,25.937,66.866,59.284h-16.311 c-3.888-24.404-25.075-43.116-50.555-43.116c-2.992,0-5.967,0.277-8.895,0.79c-3.739-4.925-8.013-9.418-12.732-13.404 C252.08,38.939,259.391,37.726,266.779,37.726z M300.859,97.011h-26.393c-0.921-9.537-3.46-18.604-7.325-26.938 C283.513,70.239,297.225,81.693,300.859,97.011z M191.326,37.726c34.41,0,62.857,25.937,66.866,59.284h-16.311 c-3.888-24.404-25.075-43.116-50.555-43.116c-25.48,0-46.667,18.712-50.555,43.116H124.46 C128.469,63.664,156.917,37.726,191.326,37.726z M225.406,97.011h-68.16c3.661-15.43,17.546-26.947,34.08-26.947 C207.86,70.063,221.746,81.58,225.406,97.011z M495.832,417.684c0,28.459-21.119,52.067-48.505,56.003v-44.886 c0-4.427-3.411-8.287-7.836-8.419c-4.578-0.137-8.332,3.533-8.332,8.081v45.224c-27.386-3.935-48.505-27.545-48.505-56.003 V232.395c0-4.465-3.62-8.084-8.084-8.084s-8.084,3.62-8.084,8.084v185.289c0,22.837,10.585,43.241,27.097,56.589H72.758 c-31.254,0-56.589-25.336-56.589-56.589V169.768c0-31.254,25.336-56.589,56.589-56.589h320.823 c-16.512,13.349-27.097,33.752-27.097,56.589v30.605c0,4.465,3.62,8.084,8.084,8.084s8.084-3.62,8.084-8.084v-30.605 c0-28.459,21.119-52.067,48.505-56.003v271.244c0,4.427,3.412,8.287,7.836,8.419c4.578,0.137,8.332-3.533,8.332-8.081V113.765 c27.386,3.935,48.505,27.544,48.505,56.003V417.684z"></path> </g> </g> </g></svg>