<svg xmlns="http://www.w3.org/2000/svg" viewBox="0 0 500 500"><g id="freepik--background-complete--inject-1"><rect y="382.4" width="500" height="0.25" style="fill:#ebebeb"></rect><rect x="416.78" y="398.49" width="33.12" height="0.25" style="fill:#ebebeb"></rect><rect x="260.33" y="395.36" width="12.89" height="0.25" style="fill:#ebebeb"></rect><rect x="322.53" y="396.42" width="27.14" height="0.25" style="fill:#ebebeb"></rect><rect x="359.67" y="389.21" width="56.11" height="0.25" style="fill:#ebebeb"></rect><rect x="52.46" y="400.78" width="26.53" height="0.25" style="fill:#ebebeb"></rect><rect x="87.89" y="400.78" width="23" height="0.25" style="fill:#ebebeb"></rect><rect x="131" y="395.24" width="60.81" height="0.25" style="fill:#ebebeb"></rect><path d="M237,337.8H43.91a5.71,5.71,0,0,1-5.7-5.71V60.66A5.71,5.71,0,0,1,43.91,55H237a5.71,5.71,0,0,1,5.71,5.71V332.09A5.71,5.71,0,0,1,237,337.8ZM43.91,55.2a5.46,5.46,0,0,0-5.45,5.46V332.09a5.46,5.46,0,0,0,5.45,5.46H237a5.47,5.47,0,0,0,5.46-5.46V60.66A5.47,5.47,0,0,0,237,55.2Z" style="fill:#ebebeb"></path><path d="M453.31,337.8H260.21a5.72,5.72,0,0,1-5.71-5.71V60.66A5.72,5.72,0,0,1,260.21,55h193.1A5.71,5.71,0,0,1,459,60.66V332.09A5.71,5.71,0,0,1,453.31,337.8ZM260.21,55.2a5.47,5.47,0,0,0-5.46,5.46V332.09a5.47,5.47,0,0,0,5.46,5.46h193.1a5.47,5.47,0,0,0,5.46-5.46V60.66a5.47,5.47,0,0,0-5.46-5.46Z" style="fill:#ebebeb"></path><path d="M64.67,323h0a4.82,4.82,0,0,1-4.81-4.81V97.58a4.82,4.82,0,0,1,4.81-4.8h0a4.81,4.81,0,0,1,4.8,4.8V318.19A4.82,4.82,0,0,1,64.67,323Z" style="fill:#f0f0f0"></path><path d="M84.67,323h0a4.82,4.82,0,0,1-4.81-4.81V97.58a4.82,4.82,0,0,1,4.81-4.8h0a4.81,4.81,0,0,1,4.8,4.8V318.19A4.82,4.82,0,0,1,84.67,323Z" style="fill:#f0f0f0"></path><path d="M415.33,323h0a4.82,4.82,0,0,1-4.8-4.81V97.58a4.81,4.81,0,0,1,4.8-4.8h0a4.82,4.82,0,0,1,4.81,4.8V318.19A4.82,4.82,0,0,1,415.33,323Z" style="fill:#f0f0f0"></path><path d="M435.33,323h0a4.82,4.82,0,0,1-4.8-4.81V97.58a4.81,4.81,0,0,1,4.8-4.8h0a4.82,4.82,0,0,1,4.81,4.8V318.19A4.82,4.82,0,0,1,435.33,323Z" style="fill:#f0f0f0"></path><rect x="79.86" y="356.06" width="2.85" height="19" rx="1.12" style="fill:#f0f0f0"></rect><rect x="84.75" y="356.06" width="2.85" height="19" rx="1.12" style="fill:#f0f0f0"></rect><rect x="89.63" y="356.06" width="2.85" height="19" rx="1.12" style="fill:#f0f0f0"></rect><rect x="94.52" y="356.06" width="2.85" height="19" rx="1.12" style="fill:#f0f0f0"></rect><rect x="99.41" y="356.06" width="2.85" height="19" rx="1.12" style="fill:#f0f0f0"></rect><rect x="104.29" y="356.06" width="2.85" height="19" rx="1.12" style="fill:#f0f0f0"></rect><rect x="109.18" y="356.06" width="2.85" height="19" rx="1.12" style="fill:#f0f0f0"></rect><rect x="213.53" y="356.06" width="2.85" height="19" rx="1.12" style="fill:#f0f0f0"></rect><rect x="218.42" y="356.06" width="2.85" height="19" rx="1.12" style="fill:#f0f0f0"></rect><rect x="223.31" y="356.06" width="2.85" height="19" rx="1.12" style="fill:#f0f0f0"></rect><rect x="228.19" y="356.06" width="2.85" height="19" rx="1.12" style="fill:#f0f0f0"></rect><rect x="233.08" y="356.06" width="2.85" height="19" rx="1.12" style="fill:#f0f0f0"></rect><rect x="237.97" y="356.06" width="2.85" height="19" rx="1.12" style="fill:#f0f0f0"></rect><rect x="242.85" y="356.06" width="2.85" height="19" rx="1.12" style="fill:#f0f0f0"></rect><path d="M293.38,367.87c0-8-2.3-14.54-5.14-14.54s-5.15,6.51-5.15,14.54,2.3,14.53,5.15,14.53S293.38,375.89,293.38,367.87Z" style="fill:#ebebeb"></path><path d="M448.16,353.33H288.24c2.84,0,5.14,6.51,5.14,14.54s-2.3,14.53-5.14,14.53H448.16c2.84,0,5.15-6.51,5.15-14.53S451,353.33,448.16,353.33Z" style="fill:#f5f5f5"></path></g><g id="freepik--Shadow--inject-1"><ellipse id="freepik--path--inject-1" cx="250" cy="416.24" rx="193.89" ry="11.32" style="fill:#f5f5f5"></ellipse></g><g id="freepik--Window--inject-1"><rect x="104.44" y="87.67" width="1" height="26.56" style="fill:#C53F3F"></rect><rect x="104.44" y="121.33" width="1" height="8.67" style="fill:#C53F3F"></rect><rect x="107.94" y="64.78" width="287.11" height="160.58" rx="12" style="fill:#C53F3F"></rect><rect x="107.94" y="225.36" width="287.11" height="8.75" rx="2.8" style="fill:#263238"></rect><rect x="174.21" y="4.51" width="154.58" height="281.11" rx="9" transform="translate(396.57 -106.43) rotate(90)" style="fill:#fff"></rect><rect x="174.21" y="4.51" width="154.58" height="281.11" rx="9" transform="translate(396.57 -106.43) rotate(90)" style="fill:#C53F3F;opacity:0.1"></rect><path d="M158.24,113.74c1.64-3.14,5.9-5.89,10.74-7,3.3-4.12,9.91-7.4,16.78-7.94a21.26,21.26,0,0,1,5.56.26c4.74-5,13.13-9,21.81-9.62,8.5-.66,14.94,1.94,17.18,6.27A28.3,28.3,0,0,1,234.7,95c6.54-.51,11.44,1.62,12.85,5.08a21.08,21.08,0,0,1,7-1.8c6.64-.51,11.07,2.55,9.88,6.84a7.72,7.72,0,0,1-1.58,2.85c9.5.87,17.22,3.24,12.47,6.16h0L143.21,124.42h0C139.66,118.23,149.66,115.3,158.24,113.74Z" style="fill:#fff"></path><circle cx="315.53" cy="128.87" r="11.98" transform="translate(137.78 419.68) rotate(-80.78)" style="fill:#C53F3F;opacity:0.30000000000000004"></circle><path d="M306.72,142.92a3.33,3.33,0,0,1,.09-1.32c.8-2.87,5-5.48,9.48-5.82a10.74,10.74,0,0,1,2.63.1,17.67,17.67,0,0,1,11-4.83,12.62,12.62,0,0,1,5.91.79,21.38,21.38,0,0,1,11.24-4.24c7-.54,11.6,2.67,10.35,7.17,0,.09-.06.18-.09.27s.21,0,.32,0c3.37-.27,5.62,1.29,5,3.46a4.43,4.43,0,0,1-1.31,2c3.54.58,5.81,1.6,3.84,2.81h0l-67,5.22h0C296.3,145.13,302.22,143.67,306.72,142.92Z" style="fill:#fff"></path><polygon points="282.22 222.36 239.08 222.36 283.96 67.78 327.1 67.78 282.22 222.36" style="fill:#fff;opacity:0.6000000000000001"></polygon><polygon points="232.52 222.36 215.57 222.36 260.45 67.78 277.4 67.78 232.52 222.36" style="fill:#fff;opacity:0.6000000000000001"></polygon><polygon points="152.19 222.36 135.24 222.36 180.11 67.78 197.06 67.78 152.19 222.36" style="fill:#fff;opacity:0.6000000000000001"></polygon><rect x="248.28" y="-35.17" width="6.44" height="284.11" transform="translate(358.39 -144.61) rotate(90)" style="fill:#C53F3F"></rect><path d="M392.06,176.9v36.46a9,9,0,0,1-9,9H119.94a9,9,0,0,1-9-9V180.29c20.12-7,30.58,20.83,107,8.64,64.78-10.34,82.57-40,118.61-15.24C357.06,187.78,392.06,176.9,392.06,176.9Z" style="fill:#C53F3F;opacity:0.2"></path><rect x="104.94" y="277.78" width="290.11" height="68" rx="12.06" style="fill:#fff"></rect><rect x="104.94" y="277.78" width="290.11" height="68" rx="12.06" style="fill:#C53F3F;opacity:0.2"></rect></g><g id="freepik--Character--inject-1"><polygon points="341.95 413.12 335.61 413.12 323.72 324.67 330.05 324.67 341.95 413.12" style="fill:#C53F3F"></polygon><polygon points="227.48 413.12 233.77 413.12 246.56 318 240.27 318 227.48 413.12" style="fill:#C53F3F"></polygon><path d="M237.91,324.73h0a11.36,11.36,0,0,0,6.32,2.34l78.21,4.1a21.28,21.28,0,0,0,22.36-20.35l3.91-93.56a20.88,20.88,0,0,0-20.86-21.75H303a15.23,15.23,0,0,0-15.23,14.71l-3,87.1-41.93,7.35A11.3,11.3,0,0,0,237.91,324.73Z" style="fill:#C53F3F"></path><path d="M237.91,324.73h0a11.36,11.36,0,0,0,6.32,2.34l78.21,4.1a21.28,21.28,0,0,0,22.36-20.35l3.91-93.56a20.88,20.88,0,0,0-20.86-21.75H303a15.23,15.23,0,0,0-15.23,14.71l-3,87.1-41.93,7.35A11.3,11.3,0,0,0,237.91,324.73Z" style="fill:#fff;opacity:0.4"></path><path d="M233.86,149.44a60.79,60.79,0,0,0-9,41.56c2,15.75,20.31,23.13,36.08,19s26.56-14.06,25.44-28.06-13.08-20.61-13.21-31.05-11.13-14.67-15.35-12C252.64,132,239.8,139.86,233.86,149.44Z" style="fill:#263238"></path><path d="M264.41,211.26a.5.5,0,0,1-.16-1c16.35-5.61,24.94-16.57,23-29.31-1.1-7.13-4.9-12-8.57-16.68-3.32-4.24-6.45-8.24-6.89-13.35a.51.51,0,0,1,.46-.54.5.5,0,0,1,.54.46c.41,4.81,3.45,8.7,6.67,12.81,3.58,4.58,7.64,9.76,8.78,17.15,2.06,13.26-6.78,24.63-23.63,30.41Z" style="fill:#263238"></path><path d="M264.75,220.43c-1.7.6-3.2,1.08-4.8,1.55s-3.17.89-4.76,1.31c-3.2.79-6.43,1.51-9.73,2a83.29,83.29,0,0,1-10.16,1.13,46.66,46.66,0,0,1-11.08-.63l-.46-.09a6.51,6.51,0,0,1-5.25-5.48,20.29,20.29,0,0,1,.2-6.81,38.67,38.67,0,0,1,1.43-5.36,68.91,68.91,0,0,1,4-9.26c1.51-2.91,3.13-5.7,4.86-8.4s3.53-5.31,5.56-7.89a3.83,3.83,0,0,1,6.57,3.76l0,.11c-1.09,2.78-2.25,5.65-3.32,8.46s-2.1,5.65-3,8.46a76.67,76.67,0,0,0-2.28,8.22,26.4,26.4,0,0,0-.54,3.73,7.8,7.8,0,0,0,.15,2.46l-5.72-5.57a39.91,39.91,0,0,0,7.74-.29c2.78-.34,5.64-.86,8.52-1.47s5.77-1.31,8.66-2.09l4.34-1.19,4.21-1.22.22-.07a7.66,7.66,0,0,1,4.67,14.59Z" style="fill:#ffb573"></path><path d="M234.43,170.84l-1.8,2.76a3.83,3.83,0,0,0-.37,3.49l2.1,5.41a7.13,7.13,0,0,0,4.92,4.34l1.39.35c3.31-4.37,3.67-11.53,3.67-11.53l.33-2a3.17,3.17,0,0,0-2.56-3.74l-4-.71A3.7,3.7,0,0,0,234.43,170.84Z" style="fill:#ffb573"></path><path d="M242.1,169.89l-4-.71a3.55,3.55,0,0,0-2.62.6,42.9,42.9,0,0,0,6.69,14.88,27.52,27.52,0,0,0,2.18-9l.33-2A3.18,3.18,0,0,0,242.1,169.89Z" style="opacity:0.2"></path><path d="M173.64,412.48c9.32.93,15.19,1.38,20.45,1.72,4.5.29,5.52,1,9.13,1.24,3,.24,3.19-2.66,2.6-6.07-.3-1.71-.67-5.3-1-8.06L191.22,399c-2.29,3.48-11.77,7.82-17.09,8C169.05,407.12,169.92,412.11,173.64,412.48Z" style="fill:#263238"></path><path d="M205.33,287.25c19-14.93,70.08-18.92,70.08-18.92l20.37-3.3s11.06,22.3,4.06,38.63c-6,13.92-42.21,9.6-72.36,8,4.52,16.7-23.22,89.11-23.22,89.11-4.32,1.36-11.1-.81-13.29-2.08,1.39-23.75,7.71-55.73,7.73-95.27C198.7,297.17,200.43,291.1,205.33,287.25Z" style="fill:#263238"></path><path d="M236.24,312.15l-7-17.71c-2.87,1.69-10.27,21.2-3.36,37.68,1.89-8.93,2.73-16.39,1.62-20.49C230.36,311.79,233.29,312,236.24,312.15Z"></path><path d="M189.6,389.43c-.56,2.23,0,6.31-1.08,9.21-.38,1.05-.28,2.57.46,2.53,5.35-.28,13.28,2.64,16.13,2.33a1.77,1.77,0,0,0,1.26-1.43l2.3-8.51c.31-1.16-.12-2.32-.9-2.43l-16.55-3.26C190.56,387.75,189.85,388.42,189.6,389.43Z" style="fill:#C53F3F"></path><path d="M272.91,196.31c6.76,25.49,15,35.72-27.73,34.76-5.35-4.34-6.82-20.82-6.82-20.82C252.67,205.2,264.55,198.07,272.91,196.31Z" style="fill:#C53F3F"></path><path d="M258.44,231.24a153.33,153.33,0,0,0,10.8,17.57c4.86,5.89,1.39,17.38,3.36,24.31,11.56,3.36,50.84-1.95,52.82-8.09,2.55-1.83-.35-32.74-10.45-64.5-4.11-12.94-13.55-18-22.77-14.78a38.29,38.29,0,0,0-5.62,2.93c-7.42,4.12-13.47,7.56-19.51,12.11-2,1.51-4,3.14-6,4.73C254.18,211.29,254,223.52,258.44,231.24Z" style="fill:#C53F3F"></path><path d="M281.62,231.17c10.88,3.67,21.44,3.78,24.89,3C297.12,238.26,289.65,236.34,281.62,231.17Z" style="opacity:0.2"></path><path d="M271.57,167.55c2.2,7.33,7.26,20.13,13.94,21.79,0,0-6.5,2.8-14.28,18.45-6.92-3-5.24-6.34-5.24-6.34,6.09-6.09,3.07-11.41-.81-15.76Z" style="fill:#ffb573"></path><path d="M272.91,204.57c4.52-2,9.72,3.48,9.72,3.48s5.61-13.27,5.68-20.21a48.59,48.59,0,0,1-5.09-.06S273.84,200.66,272.91,204.57Z" style="fill:#fff"></path><path d="M268.54,206.35s-3.68,2-3.36,8c-6.24-9.5,0-15.84,0-15.84a7,7,0,0,1,4.09-2.49A28.17,28.17,0,0,0,268.54,206.35Z" style="fill:#fff"></path><path d="M269,175l-3.79,10.73a23.25,23.25,0,0,1,2.5,3.25c2.46-2.07,4.53-7.42,3.29-10.52A11.28,11.28,0,0,0,269,175Z" style="opacity:0.2"></path><path d="M265.36,152.9c6.1,10.49,8.9,14.79,7.5,23.58-2.12,13.21-15.75,19-24.72,10.64-8.08-7.49-16.71-23.39-10-34.42C244.78,141.84,259.25,142.4,265.36,152.9Z" style="fill:#ffb573"></path><path d="M255.85,142.6c7.84,8.5-12.7,15.1-19.33,23a2.13,2.13,0,0,1-3.75-1.32C232.43,153.81,242,140.91,255.85,142.6Z" style="fill:#263238"></path><path d="M255.39,143.58c-4.39,7.08,1.15,16.4,13.88,17C272.75,147.48,261.7,139.75,255.39,143.58Z" style="fill:#263238"></path><path d="M264.36,160.53c-6.73,0-9.34-3.63-10.2-5.38a8,8,0,0,1,1.35-9.35l.69.73a7.16,7.16,0,0,0-1.15,8.18c.9,1.82,3.93,5.91,12.61,4.55l.16,1A22.09,22.09,0,0,1,264.36,160.53Z" style="fill:#263238"></path><path d="M253.4,166.41c.55.86.58,1.87.06,2.26s-1.39,0-1.94-.86-.58-1.87-.06-2.25S252.85,165.55,253.4,166.41Z" style="fill:#263238"></path><path d="M243,173.63c.55.86.58,1.87.06,2.26s-1.39,0-1.94-.86-.58-1.87-.06-2.25S242.49,172.77,243,173.63Z" style="fill:#263238"></path><path d="M241.36,172.65l-2.29.83S241.08,174.36,241.36,172.65Z" style="fill:#263238"></path><path d="M247.34,173.22a30,30,0,0,1,.68,7.59c1.73.28,3.21-1.54,3.21-1.54Z" style="fill:#ed893e"></path><path d="M256.66,174.59a9.48,9.48,0,0,1,1.44-.87.26.26,0,0,1,.37.15.31.31,0,0,1-.15.4,8.43,8.43,0,0,0-4.54,5.76.28.28,0,1,1-.56-.09A8.89,8.89,0,0,1,256.66,174.59Z" style="fill:#263238"></path><path d="M274.05,158.81a9.69,9.69,0,0,1-2.14,7.13c-2.14,2.51-5.08.72-6.05-2.53-.87-2.92-.81-7.75,2.1-9S273.74,155.55,274.05,158.81Z" style="fill:#ffb573"></path><path d="M248.64,161.39a.51.51,0,0,1,.45-.07,4.4,4.4,0,0,0,4-.83.55.55,0,0,1,.81,0,.65.65,0,0,1-.06.86,5.43,5.43,0,0,1-5.11,1.11.6.6,0,0,1-.39-.75A.63.63,0,0,1,248.64,161.39Z" style="fill:#263238"></path><path d="M240.07,169a.54.54,0,0,1,.43-.07.59.59,0,0,1,.38.74,6.24,6.24,0,0,1-3.52,4.26.55.55,0,0,1-.72-.38.63.63,0,0,1,.39-.77,5,5,0,0,0,2.76-3.4A.59.59,0,0,1,240.07,169Z" style="fill:#263238"></path><path d="M251.72,165.43l-2.29.83S251.45,167.14,251.72,165.43Z" style="fill:#263238"></path><path d="M261.7,270.44l2.06-3.16a4.41,4.41,0,0,1,3.5-2l6.63-.26a8.18,8.18,0,0,1,6.81,3.18l1,1.3c-3.07,5.47-10.42,9.12-10.42,9.12l-2,1.27a3.65,3.65,0,0,1-5.1-1L261.62,275A4.2,4.2,0,0,1,261.7,270.44Z" style="fill:#ffb573"></path><path d="M316.29,205c.2,1,.34,1.71.49,2.55s.27,1.62.39,2.42c.25,1.62.43,3.23.61,4.84.33,3.23.54,6.47.6,9.72,0,1.63,0,3.26,0,4.89s-.1,3.27-.22,4.91a94.08,94.08,0,0,1-1.12,9.84l-.06.42a5.35,5.35,0,0,1-.27,1,16.48,16.48,0,0,1-2.4,4.21,25.55,25.55,0,0,1-2.5,2.77,49.89,49.89,0,0,1-5,4.17,101.43,101.43,0,0,1-10.11,6.45c-3.42,1.92-6.87,3.69-10.37,5.34s-7,3.19-10.67,4.58a3.82,3.82,0,0,1-3.51-6.72l.06,0c3-2.09,6.17-4.21,9.21-6.34s6.07-4.28,9-6.48,5.75-4.46,8.31-6.75a37.79,37.79,0,0,0,3.4-3.45,16.16,16.16,0,0,0,1.17-1.55c.3-.45.4-.82.34-.74l-.33,1.43c.16-2.85.27-5.7.23-8.59s-.14-5.78-.35-8.69-.45-5.81-.8-8.71c-.16-1.45-.36-2.9-.54-4.33l-.31-2.14-.3-2-.05-.31a7.66,7.66,0,0,1,15.08-2.7Z" style="fill:#ffb573"></path><path d="M298.34,184.83c12.59.62,16.55,9.18,22.07,26.17-11.63,12.11-19.85,13.56-19.85,13.56S290.74,195.33,298.34,184.83Z" style="fill:#C53F3F"></path><path d="M236.87,415.44c9.37,0,15.25-.14,20.51-.32,4.51-.16,5.59.4,9.21.32,3-.06,2.92-3,2-6.3-.46-1.67-1.18-5.21-1.83-7.91l-13.73-1c-1.93,3.69-10.93,8.95-16.21,9.66C231.76,410.56,233.13,415.44,236.87,415.44Z" style="fill:#263238"></path><path d="M232.07,287.25c12.26-9.25,51.48-16.72,65.1-17.53s26.55-2.39,28.25-4.69c0,0,8.16,22.3,1.16,38.63-6,13.92-38.08,10.82-68.27,10.41,8.15,42.06,8.77,86.41,8.77,86.41-4.32,1.35-12.28,2.24-14.47,1,1.4-23.75-22.28-58.82-27.16-98.05A17.45,17.45,0,0,1,232.07,287.25Z" style="fill:#263238"></path><path d="M249.89,391.68c-.1,2.3,1.23,6.2.77,9.25a2,2,0,0,0,1,2.33c6,1.62,13.49,0,16.22-.86a1.77,1.77,0,0,0,.95-1.66l.56-8.79c.08-1.21-.57-2.26-1.35-2.21l-16.88.1C250.5,389.84,249.93,390.65,249.89,391.68Z" style="fill:#C53F3F"></path></g><g id="freepik--Bag--inject-1"><path d="M315.67,419c22.05,0,58,1.11,72-.89S378.78,390.33,379,383s-62.57-6.68-61.78.22C318.56,394.78,303.67,419,315.67,419Z" style="fill:#263238"></path><path d="M372.54,383c-.06-.22-6.86-22.32-22.27-26a18.77,18.77,0,0,0-16.6,3.86,28.09,28.09,0,0,0-9.84,21.81l-2,.05a30.15,30.15,0,0,1,10.59-23.42A20.63,20.63,0,0,1,350.73,355c16.54,3.92,23.44,26.39,23.73,27.35Z" style="fill:#263238"></path><path d="M357.93,388.68l-10.28.16a3.09,3.09,0,0,1-3-2.61h0a2.34,2.34,0,0,1,2.34-2.69l10.28-.15a3.07,3.07,0,0,1,3,2.6h0A2.33,2.33,0,0,1,357.93,388.68Z" style="fill:#fff"></path></g></svg>