<svg fill="#000000" height="200px" width="200px" version="1.1" id="Layer_1" xmlns="http://www.w3.org/2000/svg" xmlns:xlink="http://www.w3.org/1999/xlink" viewBox="0 0 512 512" xml:space="preserve"><g id="SVGRepo_bgCarrier" stroke-width="0"></g><g id="SVGRepo_tracerCarrier" stroke-linecap="round" stroke-linejoin="round"></g><g id="SVGRepo_iconCarrier"> <g> <g> <path d="M505.041,133.538c-4.469-0.668-8.623,2.405-9.292,6.868l-23.467,156.445h-56.66l-1.184-27.234h2.36 c2.229,0,4.36-0.911,5.901-2.52c1.541-1.61,2.357-3.779,2.262-6.006l-2.841-65.361c-0.191-4.369-3.789-7.815-8.163-7.815h-68.085 v-28.639c9.509-3.373,16.34-12.455,16.34-23.105v-27.234c0-4.513-3.658-8.17-8.17-8.17h-32.681c-4.512,0-8.17,3.657-8.17,8.17 v27.234c0,10.651,6.831,19.733,16.34,23.105v28.639h-43.574v-78.978c0-13.686-9.229-25.249-21.787-28.816V32.682 c0-4.513-3.658-8.17-8.17-8.17c-4.512,0-8.17,3.657-8.17,8.17v47.439c-12.558,3.567-21.787,15.13-21.787,28.816v78.978h-43.574 v-28.639c9.509-3.373,16.34-12.455,16.34-23.105v-27.234c0-4.513-3.658-8.17-8.17-8.17h-32.681c-4.512,0-8.17,3.657-8.17,8.17 v27.234c0,10.651,6.831,19.733,16.34,23.105v28.639H98.043c-4.375,0-7.972,3.446-8.163,7.815l-2.841,65.361 c-0.096,2.227,0.72,4.396,2.262,6.006c1.541,1.61,3.673,2.52,5.901,2.52h2.361l-1.184,27.234H39.718L16.251,140.406 c-0.67-4.463-4.823-7.539-9.292-6.868c-4.462,0.669-7.536,4.83-6.867,9.291l24.42,162.801v173.687c0,4.513,3.658,8.17,8.17,8.17 c4.512,0,8.17-3.657,8.17-8.17V345.871h53.395l-4.366,100.41c-0.096,2.227,0.72,4.396,2.261,6.006 c1.541,1.61,3.673,2.52,5.901,2.52c10.095,0,17.957-1.359,24.511-3.363v27.873c0,4.513,3.658,8.17,8.17,8.17 c4.512,0,8.17-3.657,8.17-8.17v-35.004c0.874-0.475,1.738-0.949,2.586-1.417c7.984-4.404,15.082-8.3,27.373-9.494v45.915 c0,4.513,3.658,8.17,8.17,8.17c4.512,0,8.17-3.657,8.17-8.17v-45.915c12.292,1.194,19.389,5.089,27.373,9.495 c10.119,5.582,21.588,11.91,43.437,11.91s33.317-6.328,43.436-11.911c7.982-4.403,15.079-8.299,27.366-9.493v45.914 c0,4.513,3.658,8.17,8.17,8.17c4.512,0,8.17-3.657,8.17-8.17v-45.915c12.293,1.193,19.392,5.089,27.377,9.495 c0.848,0.467,1.71,0.941,2.583,1.415v35.007c0,4.513,3.658,8.17,8.17,8.17c4.512,0,8.17-3.657,8.17-8.17v-27.875 c6.554,2.004,14.415,3.364,24.511,3.364c2.229,0,4.36-0.911,5.901-2.52c1.541-1.61,2.357-3.779,2.262-6.006l-4.365-100.41h53.394 v133.446c0,4.513,3.658,8.17,8.17,8.17c4.512,0,8.17-3.657,8.17-8.17V305.631l24.42-162.801 C512.577,138.368,509.503,134.206,505.041,133.538z M94.957,329.531H40.852v-16.34h54.815L94.957,329.531z M329.531,117.107h16.34 v19.064c0,4.506-3.665,8.17-8.17,8.17s-8.17-3.665-8.17-8.17V117.107z M242.383,108.937c0-7.509,6.108-13.617,13.617-13.617 c7.509,0,13.617,6.108,13.617,13.617v78.978h-27.234V108.937z M166.128,117.107h16.34v19.064c0,4.506-3.665,8.17-8.17,8.17 s-8.17-3.665-8.17-8.17V117.107z M373.197,269.618h24.886l7.324,168.441c-12.069-1.235-19.087-5.108-26.991-9.468 c-10.118-5.583-21.586-11.911-43.435-11.911c-21.852,0.002-33.318,6.328-43.436,11.911c-9.606,5.299-17.903,9.876-35.541,9.876 c-17.641,0-25.938-4.577-35.544-9.876c-10.119-5.583-21.588-11.911-43.438-11.911c-21.849,0-33.318,6.328-43.437,11.911 c-2.276,1.255-4.479,2.467-6.751,3.591c-5.622,2.78-11.652,4.998-20.242,5.877l7.324-168.441h226.598 c4.512,0,8.17-3.657,8.17-8.17c0-4.513-3.658-8.17-8.17-8.17H103.735l2.132-49.021h300.267l2.132,49.021h-35.069 c-4.512,0-8.17,3.657-8.17,8.17C365.027,265.961,368.685,269.618,373.197,269.618z M471.149,329.531h-54.105l-0.71-16.34h54.815 V329.531z"></path> </g> </g> </g></svg>