<svg fill="#000000" height="200px" width="200px" version="1.1" id="Capa_1" xmlns="http://www.w3.org/2000/svg" xmlns:xlink="http://www.w3.org/1999/xlink" viewBox="0 0 484.284 484.284" xml:space="preserve"><g id="SVGRepo_bgCarrier" stroke-width="0"></g><g id="SVGRepo_tracerCarrier" stroke-linecap="round" stroke-linejoin="round"></g><g id="SVGRepo_iconCarrier"> <g> <path d="M481.167,301.365l-6.269-7.256c-0.378-0.438-0.786-0.831-1.207-1.204c2.965-3.006,4.771-6.915,5.114-11.174 c0.388-4.796-1.116-9.456-4.233-13.121L356.156,129.393c-7.219-8.485-17.748-13.352-28.887-13.352h-31.274 c0.087-0.601,0.146-1.209,0.146-1.833V88.58c0-7.076-5.757-12.833-12.833-12.833h-82.334c-7.076,0-12.833,5.757-12.833,12.833 v25.629c0,0.624,0.06,1.232,0.146,1.833h-31.274c-11.141,0-21.669,4.867-28.887,13.352L9.711,268.61 c-6.085,7.154-5.585,17.722,0.883,24.293c-0.422,0.374-0.831,0.768-1.21,1.207l-6.268,7.256c-4.626,5.354-4.033,13.474,1.321,18.1 l17.977,15.529c2.421,2.091,5.407,3.116,8.381,3.116c3.602,0,7.186-1.505,9.72-4.438l6.268-7.256 c0.473-0.548,0.878-1.131,1.243-1.73c3.375,2.276,7.39,3.341,11.497,3.014c4.796-0.388,9.154-2.619,12.271-6.284l64.733-76.104 v108.895c0,10.238,6.458,18.992,15.513,22.413v26.416c0,3.038,2.463,5.5,5.5,5.5h169.207c3.037,0,5.5-2.462,5.5-5.5v-26.417 c9.053-3.421,15.51-12.174,15.51-22.411V245.313l64.733,76.104c5.99,7.044,16.273,8.318,23.769,3.271 c0.364,0.599,0.769,1.181,1.242,1.729l6.269,7.256c2.535,2.934,6.117,4.438,9.72,4.438c2.973,0,5.96-1.025,8.381-3.116 l17.977-15.529C485.2,314.84,485.793,306.72,481.167,301.365z M420.49,245.892l1.326-22.327l9.613,11.301l-1.6,26.931 l-28.468,1.699c-2.78,0.166-4.998,2.385-5.162,5.167l-0.917,15.547l-9.609-11.297l1.19-20.158l28.465-1.699 C418.108,250.89,420.325,248.673,420.49,245.892z M406.893,274.185l28.466-1.699c2.779-0.166,4.997-2.384,5.162-5.164l1.209-20.347 l14.161,16.648l-44.026,40.081l-6.278-7.381L406.893,274.185z M336.756,214.051H147.527v-9.866l20.14-17.875l21.309,18.928 c2.084,1.85,5.221,1.851,7.303,0.001l21.328-18.929l21.31,18.928c2.084,1.85,5.221,1.851,7.303,0.001l21.33-18.93l21.328,18.93 c2.084,1.85,5.221,1.849,7.303,0l21.319-18.929l19.258,17.091V214.051z M147.527,225.051h189.229v6.999H147.527V225.051z M342.477,193.772l-21.329-18.93c-2.082-1.849-5.22-1.849-7.302,0.001l-21.319,18.929l-21.327-18.929 c-2.084-1.85-5.22-1.848-7.302,0l-21.328,18.929l-21.31-18.928c-2.083-1.85-5.22-1.85-7.303-0.001l-21.328,18.929l-21.31-18.928 c-2.083-1.85-5.219-1.85-7.304-0.001l-21.327,18.929l-21.309-18.928c-2.083-1.85-5.22-1.85-7.303-0.001l-21.33,18.93l-2.814-2.498 l21.027-24.72h262.363l21.412,25.173l-2.307,2.046l-21.331-18.932c-2.082-1.849-5.22-1.849-7.302,0.001L342.477,193.772z M363.967,155.554h-243.65l6.046-7.108h231.559L363.967,155.554z M285.142,88.58v25.629c0,1.011-0.822,1.833-1.833,1.833h-1.834 V86.747h1.834C284.32,86.747,285.142,87.569,285.142,88.58z M213.809,116.042V86.747h11.555v29.295H213.809z M236.363,86.747 h11.556v29.295h-11.556V86.747z M258.919,86.747h11.556v29.295h-11.556V86.747z M199.142,114.209V88.58 c0-1.011,0.822-1.833,1.833-1.833h1.834v29.295h-1.834C199.964,116.042,199.142,115.219,199.142,114.209z M157.014,127.042H327.27 c7.908,0,15.383,3.455,20.508,9.479l0.787,0.925H135.719l0.787-0.925C141.63,130.497,149.105,127.042,157.014,127.042z M63.438,245.892c0.165,2.78,2.383,4.998,5.162,5.164l28.465,1.699l1.213,20.548l-9.702,11.406l-0.947-16.047 c-0.164-2.781-2.382-5-5.162-5.167l-28.468-1.699l-1.571-26.429l9.706-11.411L63.438,245.892z M43.307,267.322 c0.165,2.78,2.383,4.998,5.162,5.164l28.466,1.699l1.336,22.639l-6.008,7.063l-44.025-40.081l13.89-16.33L43.307,267.322z M38.458,319.226l-6.268,7.256c-0.432,0.5-0.971,0.609-1.254,0.63c-0.277,0.022-0.831-0.008-1.331-0.441l-17.977-15.529 c-0.765-0.66-0.85-1.82-0.188-2.585l6.268-7.256c0.362-0.419,0.874-0.634,1.389-0.634c0.213,0,0.427,0.037,0.63,0.112L38.27,316.64 C39.034,317.301,39.119,318.461,38.458,319.226z M58.637,316.737c-1.87,0.147-3.682-0.435-5.108-1.648l-34.641-29.465 c-2.945-2.505-3.304-6.94-0.798-9.886l3.017-3.547l44.025,40.08l-1.718,2.02C62.2,315.716,60.504,316.586,58.637,316.737z M108.581,261.189l-0.823-13.957c-0.164-2.781-2.382-5-5.162-5.167l-28.468-1.699l-1.69-28.447l-0.069,0.004l10.435-12.268 l6.292,5.584c2.084,1.85,5.22,1.848,7.302,0l21.328-18.929l18.801,16.699v25.326L108.581,261.189z M336.756,305.546H147.527v-6.999 h189.229V305.546z M147.527,316.546h189.229v22.26l-15.606-13.848c-2.082-1.849-5.219-1.849-7.301,0l-21.325,18.922l-21.325-18.922 c-2.082-1.849-5.219-1.848-7.301,0l-21.325,18.922l-21.313-18.921c-2.084-1.849-5.22-1.849-7.302-0.001l-21.325,18.922 l-21.314-18.921c-2.084-1.849-5.22-1.849-7.302,0l-16.489,14.631V316.546z M336.756,287.547H147.527v-8.308l20.139-17.87 l21.314,18.921c2.084,1.849,5.22,1.849,7.302,0.001l21.325-18.922l21.313,18.921c2.084,1.849,5.22,1.849,7.302,0.001l21.326-18.922 l21.325,18.922c1.041,0.924,2.346,1.386,3.65,1.386s2.609-0.462,3.65-1.386l21.325-18.922l19.257,17.086V287.547z M163.039,378.16 h5.937v19.376h-5.937V378.16z M304.309,378.16v19.376h-11.555V378.16H304.309z M281.754,397.537h-11.556V378.16h11.556V397.537z M259.198,397.537h-11.556V378.16h11.556V397.537z M236.643,397.537h-11.556V378.16h11.556V397.537z M214.087,397.537h-11.556 V378.16h11.556V397.537z M191.531,397.537h-11.556V378.16h11.556V397.537z M315.309,397.537V378.16h5.938v19.376H315.309z M323.804,367.16H160.479c-7.114,0-12.902-5.765-12.948-12.869l20.135-17.866l21.314,18.921c2.084,1.849,5.22,1.849,7.302,0.001 l21.325-18.922l21.313,18.921c2.084,1.849,5.22,1.849,7.302,0.001l21.326-18.922l21.325,18.922c1.041,0.924,2.346,1.386,3.65,1.386 s2.609-0.462,3.65-1.386l21.325-18.922l19.257,17.086v0.696C336.756,361.35,330.945,367.16,323.804,367.16z M336.756,263.75 l-15.606-13.848c-2.082-1.849-5.219-1.849-7.301,0l-21.325,18.922l-21.325-18.922c-2.082-1.849-5.219-1.848-7.301,0l-21.325,18.922 l-21.313-18.921c-2.084-1.849-5.22-1.849-7.302-0.001l-21.325,18.922l-21.314-18.921c-2.084-1.849-5.22-1.849-7.302,0 l-16.489,14.631V243.05h189.229V263.75z M347.756,203.795l19.692-17.484l21.329,18.93c1.041,0.924,2.346,1.386,3.65,1.386 c1.304,0,2.608-0.462,3.649-1.385l5.787-5.133l10.069,11.838l-0.444-0.026l-1.69,28.447l-28.467,1.699 c-2.78,0.166-4.998,2.385-5.162,5.166l-0.801,13.567l-27.613-32.463V203.795z M420.868,314.29l-1.873-2.202l44.026-40.081 l3.173,3.73c1.214,1.427,1.799,3.241,1.648,5.108c-0.151,1.867-1.02,3.564-2.447,4.778l-34.64,29.465 C427.809,317.593,423.374,317.236,420.868,314.29z M472.654,311.141l-17.977,15.529c-0.5,0.433-1.048,0.462-1.331,0.441 c-0.283-0.021-0.822-0.13-1.254-0.63l-6.269-7.256c-0.661-0.765-0.576-1.924,0.189-2.585l18.541-15.861 c0.204-0.075,0.418-0.112,0.632-0.112c0.515,0,1.026,0.215,1.388,0.634l6.269,7.256 C473.504,309.321,473.419,310.481,472.654,311.141z"></path> <circle cx="167.661" cy="277.964" r="6.277"></circle> <circle cx="217.439" cy="277.964" r="6.277"></circle> <circle cx="267.216" cy="277.964" r="6.277"></circle> <circle cx="316.994" cy="277.964" r="6.277"></circle> <circle cx="167.661" cy="204.279" r="6.277"></circle> <circle cx="217.439" cy="204.279" r="6.277"></circle> <circle cx="267.216" cy="204.279" r="6.277"></circle> <circle cx="316.994" cy="204.279" r="6.277"></circle> <circle cx="167.661" cy="353.613" r="6.277"></circle> <circle cx="217.439" cy="353.613" r="6.277"></circle> <circle cx="267.216" cy="353.613" r="6.277"></circle> <circle cx="316.994" cy="353.613" r="6.277"></circle> <circle cx="66.328" cy="284.946" r="6.277"></circle> <circle cx="417.661" cy="284.946" r="6.277"></circle> <circle cx="84.994" cy="229.613" r="6.277"></circle> <circle cx="397.661" cy="229.613" r="6.277"></circle> <circle cx="368.328" cy="204.279" r="6.277"></circle> <circle cx="116.994" cy="204.279" r="6.277"></circle> </g> </g></svg>