<svg version="1.1" xmlns="http://www.w3.org/2000/svg" xmlns:xlink="http://www.w3.org/1999/xlink" viewBox="0 0 96 96" enable-background="new 0 0 96 96" xml:space="preserve" fill="#000000"><g id="SVGRepo_bgCarrier" stroke-width="0"></g><g id="SVGRepo_tracerCarrier" stroke-linecap="round" stroke-linejoin="round"></g><g id="SVGRepo_iconCarrier"> <g id="Base" display="none"> </g> <g id="Dibujo"> <g> <path d="M69.24,40.488C72.173,37.886,74,34.094,74,30c0-1.104-0.896-2-2-2c-5.514,0-10-4.486-10-10c0-1.104-0.896-2-2-2 c-7.078,0-12.931,5.284-13.857,12.111c-6.848,0.737-12.533,5.488-14.454,12.072C31.112,40.079,30.507,40,30,40 c-6.065,0-11,4.935-11,11s4.935,11,11,11c1.104,0,2-0.896,2-2s-0.896-2-2-2c-3.859,0-7-3.141-7-7s3.141-7,7-7 c0.277,0,0.723,0.068,1.193,0.162V46c0,1.104,0.895,2,2,2s2-0.896,2-2v-3.219C36.266,36.528,41.629,32,48,32 c6.37,0,11.733,4.528,12.807,10.782V46c0,1.104,0.896,2,2,2s2-0.896,2-2v-1.838C65.277,44.068,65.723,44,66,44 c3.859,0,7,3.141,7,7s-3.141,7-7,7c-1.105,0-2,0.896-2,2s0.895,2,2,2c6.065,0,11-4.935,11-11 C77,46.062,73.728,41.875,69.24,40.488z M50.174,28.15c0.759-4.039,3.952-7.23,7.994-7.982c0.934,5.985,5.675,10.728,11.66,11.664 c-0.615,3.246-2.84,6.006-5.862,7.326C61.811,33.21,56.519,28.952,50.174,28.15z"></path> <path d="M45.732,62.464c-0.554-0.956-1.773-1.286-2.732-0.733c-0.956,0.553-1.284,1.775-0.732,2.732l1,1.732 c0.371,0.642,1.043,1,1.734,1c0.339,0,0.683-0.086,0.998-0.268c0.956-0.553,1.284-1.775,0.732-2.732L45.732,62.464z"></path> <path d="M40.732,53.804c-0.554-0.957-1.773-1.285-2.732-0.732c-0.956,0.553-1.284,1.775-0.732,2.732l1,1.732 c0.371,0.642,1.043,1,1.734,1c0.339,0,0.683-0.086,0.998-0.267c0.956-0.553,1.284-1.775,0.732-2.733L40.732,53.804z"></path> <path d="M43,58.269c0.315,0.182,0.659,0.267,0.998,0.267c0.691,0,1.363-0.358,1.734-1l1-1.732c0.552-0.957,0.224-2.18-0.732-2.732 c-0.959-0.553-2.18-0.225-2.732,0.732l-1,1.732C41.716,56.493,42.044,57.716,43,58.269z"></path> <path d="M41,61.731c-0.959-0.554-2.18-0.224-2.732,0.733l-1,1.732c-0.552,0.957-0.224,2.18,0.732,2.732 c0.315,0.182,0.659,0.268,0.998,0.268c0.691,0,1.363-0.358,1.734-1l1-1.732C42.284,63.507,41.956,62.284,41,61.731z"></path> <path d="M40,60c0-1.104-0.896-2-2-2h-2c-1.105,0-2,0.896-2,2s0.895,2,2,2h2C39.104,62,40,61.104,40,60z"></path> <path d="M50,60c0-1.104-0.896-2-2-2h-2c-1.105,0-2,0.896-2,2s0.895,2,2,2h2C49.104,62,50,61.104,50,60z"></path> <path d="M60.732,71.268c-0.554-0.956-1.774-1.285-2.732-0.732c-0.956,0.553-1.284,1.775-0.732,2.732l1,1.732 c0.371,0.642,1.043,1,1.734,1c0.339,0,0.683-0.086,0.998-0.268c0.956-0.553,1.284-1.775,0.732-2.732L60.732,71.268z"></path> <path d="M55.732,62.607c-0.554-0.956-1.774-1.286-2.732-0.732c-0.956,0.553-1.284,1.775-0.732,2.732l1,1.732 c0.371,0.642,1.043,1,1.734,1c0.339,0,0.683-0.086,0.998-0.267c0.956-0.553,1.284-1.775,0.732-2.733L55.732,62.607z"></path> <path d="M58,67.072c0.315,0.182,0.659,0.267,0.998,0.267c0.691,0,1.363-0.358,1.734-1l1-1.732c0.552-0.957,0.224-2.18-0.732-2.732 c-0.959-0.554-2.18-0.224-2.732,0.732l-1,1.732C56.716,65.297,57.044,66.52,58,67.072z"></path> <path d="M56,70.535c-0.959-0.553-2.18-0.224-2.732,0.732l-1,1.732c-0.552,0.957-0.224,2.18,0.732,2.732 C53.315,75.914,53.659,76,53.998,76c0.691,0,1.363-0.358,1.734-1l1-1.732C57.284,72.311,56.956,71.088,56,70.535z"></path> <path d="M55,68.804c0-1.104-0.896-2-2-2h-2c-1.105,0-2,0.896-2,2s0.895,2,2,2h2C54.104,70.804,55,69.908,55,68.804z"></path> <path d="M63,66.804h-2c-1.105,0-2,0.896-2,2s0.895,2,2,2h2c1.104,0,2-0.896,2-2S64.104,66.804,63,66.804z"></path> </g> </g> </g></svg>