<svg fill="#000000" height="200px" width="200px" version="1.1" id="Layer_1" xmlns="http://www.w3.org/2000/svg" xmlns:xlink="http://www.w3.org/1999/xlink" viewBox="0 0 327.46 327.46" xml:space="preserve"><g id="SVGRepo_bgCarrier" stroke-width="0"></g><g id="SVGRepo_tracerCarrier" stroke-linecap="round" stroke-linejoin="round"></g><g id="SVGRepo_iconCarrier"> <g> <g> <g> <path d="M327.429,171.49c-10.06-72.36-75.216-127.64-153.676-132.164c0.7-1.46,1.124-3.072,1.124-4.796V23.09 c0-4.996-3.328-9.188-7.864-10.6V4.526c0-1.812-1.472-3.284-3.284-3.284c-1.816,0-3.284,1.472-3.284,3.284v7.968 c-4.536,1.412-7.864,5.6-7.864,10.6v11.44c0,1.692,0.408,3.276,1.084,4.716c-47.668,2.512-91.328,23.504-120.936,58.464 c-3.204,3.78-6.248,7.748-9.048,11.792c-3.144,4.544-6.06,9.308-8.672,14.152c-7.308,13.576-12.34,28.052-14.96,43.024 c-0.248,1.424,0.464,2.848,1.756,3.496c1.296,0.652,2.856,0.388,3.86-0.672c8.724-9.172,23.356-14.652,39.124-14.652 c22.252,0,41.552,10.944,45.896,26.036c0.408,1.412,1.696,2.372,3.152,2.372c0.072,0,0.148-0.004,0.22-0.008 c1.544-0.104,2.808-1.272,3.028-2.808c2.28-15.692,27.264-28.204,58.232-29.86V252.87c-0.944,0.576-1.604,1.572-1.612,2.756 l-0.052,39.12c-0.012,1.816,1.456,3.296,3.268,3.304h0.016c1.804,0,3.276-1.46,3.284-3.264l0.048-34.744h6.644v34.924 c-0.004,5.74,2.364,10.64,7.048,14.556c5.704,4.768,13.892,4.616,19.472-0.364c4.036-3.612,6.26-8.048,6.608-13.196 c0.108-1.576,1.572-2.86,3.26-2.86h0.012c0.976,0,1.936,0.392,2.564,1.032c0.336,0.344,0.732,0.92,0.72,1.716 c-0.036,2.42-0.396,4.652-1.024,6.448c-3.48,9.868-9.464,15.42-18.308,16.956c-9.04,1.568-16.248-1.464-22.032-9.288 c-1.08-1.452-3.132-1.764-4.592-0.692c-1.46,1.08-1.772,3.136-0.692,4.592c6.024,8.148,13.88,12.352,22.96,12.352 c1.784,0,3.612-0.164,5.488-0.488c11.228-1.96,19.092-9.108,23.368-21.248c0.872-2.492,1.344-5.356,1.396-8.524 c0.036-2.388-0.888-4.668-2.6-6.416c-1.86-1.9-4.492-2.988-7.228-3.004h-0.028c-5.168,0-9.472,3.94-9.816,8.984 c-0.236,3.42-1.684,6.284-4.436,8.744c-3.164,2.836-7.64,2.932-10.876,0.22c-3.164-2.648-4.7-5.752-4.696-9.512v-39.34 c0-1.068-0.544-1.972-1.336-2.572v-102.26c13.616,1.04,26.248,4.18,36.268,9.176c1.628,0.82,3.596,0.144,4.4-1.472 c0.812-1.624,0.148-3.596-1.472-4.4c-11.668-5.82-26.52-9.344-42.376-10.116c-0.036-0.004-0.068-0.024-0.108-0.024h-0.752 c-1.928-0.08-3.864-0.144-5.816-0.144c-32.552,0-59.872,11.3-68.828,27.368c-8.456-13.644-27.432-22.904-48.672-22.904 c-13.632,0-26.576,3.772-36.34,10.364c2.732-11.032,6.868-21.72,12.34-31.88c2.492-4.632,5.284-9.184,8.292-13.528 c2.68-3.872,5.592-7.668,8.66-11.288c27.152-32.064,66.668-51.844,110.12-55.668c-9.136,4.508-17.632,10.688-25.104,18.324 c-0.888,0.908-0.872,2.364,0.036,3.248c0.444,0.44,1.024,0.656,1.604,0.656c0.596,0,1.192-0.232,1.64-0.692 c10.372-10.588,22.808-18.196,36.148-22.236c0.156-0.004,0.312-0.012,0.468-0.012c0.356,0.032,0.704,0.108,1.072,0.108 c0.336,0,0.652-0.072,0.98-0.1c0.112,0.004,0.224,0.008,0.336,0.008c21.3,6.356,39.752,21.548,52.176,43.328 c14.668,25.7,19.508,57.808,12.328,81.796c-0.156,0.52-0.084,1.044,0.108,1.512c-0.908,1.592-1.712,3.228-2.328,4.932 c-0.62,1.704,0.264,3.588,1.968,4.2c1.716,0.632,3.592-0.26,4.2-1.968c5.228-14.448,23.9-24.536,45.412-24.536 c18.188,0,34.884,7.416,42.536,18.904c0.852,1.276,2.452,1.792,3.9,1.248C326.773,174.466,327.637,173.002,327.429,171.49z M161.881,150.534h3.692V252.35h-3.692V150.534z M168.309,34.53c0,2.344-1.784,4.2-4.052,4.476c-0.3-0.004-0.596-0.02-0.9-0.02 c-0.076,0-0.148,0.004-0.224,0.004c-2.236-0.3-3.984-2.14-3.984-4.46V23.09c0-2.528,2.052-4.584,4.58-4.584 s4.58,2.052,4.58,4.584V34.53z M278.905,148.286c-17.444,0-33.292,6.176-43.108,15.972c4.54-24-0.844-53.544-14.584-77.616 c-10.352-18.136-24.708-31.988-41.428-40.276c68.456,6.504,125.172,53.124,139.128,114.98 C308.973,153.118,294.585,148.286,278.905,148.286z"></path> <path d="M117.589,73.866c-1.02-0.772-2.46-0.584-3.22,0.424c-16.904,22.108-25.712,50.648-24.16,78.312 c0.068,1.224,1.08,2.172,2.292,2.172c0.04,0,0.088,0,0.128-0.004c1.272-0.072,2.24-1.156,2.168-2.42 c-1.488-26.588,6.976-54.02,23.22-75.26C118.785,76.078,118.593,74.638,117.589,73.866z"></path> <path d="M264.845,90.246c-0.96-0.82-2.412-0.708-3.24,0.264c-0.824,0.964-0.708,2.412,0.264,3.24 c8.792,7.48,16.42,16.24,22.676,26.024c0.44,0.684,1.18,1.06,1.936,1.06c0.424,0,0.852-0.116,1.24-0.364 c1.068-0.684,1.38-2.104,0.696-3.176C281.917,107.13,273.989,98.026,264.845,90.246z"></path> <path d="M295.877,143.07c0.328,0.948,1.22,1.544,2.172,1.544c0.252,0,0.508-0.04,0.756-0.128c1.196-0.42,1.832-1.728,1.416-2.928 c-1.612-4.616-3.536-9.176-5.732-13.56c-0.568-1.136-1.952-1.596-3.084-1.024c-1.136,0.564-1.596,1.944-1.024,3.08 C292.481,134.262,294.333,138.642,295.877,143.07z"></path> </g> </g> </g> </g></svg>