<svg viewBox="0 -18.31 62.563 62.563" xmlns="http://www.w3.org/2000/svg" fill="#000000"><g id="SVGRepo_bgCarrier" stroke-width="0"></g><g id="SVGRepo_tracerCarrier" stroke-linecap="round" stroke-linejoin="round"></g><g id="SVGRepo_iconCarrier"> <g id="vans" transform="translate(-113.481 -492.552)"> <g id="Group_119" data-name="Group 119"> <path id="Path_89" data-name="Path 89" d="M134.933,518.5c-3.329,0-6.073-.041-7.777-.144-13.08-.787-13.3-2.963-13.374-3.677-.017-.167-.047-.371-.08-.6a10.376,10.376,0,0,1,.126-4.776l.006,0c.536-1.429,3.589-7.253,17.7-7.253,1.631-.055,14.422-5.971,18.626-7.914,2.1-.971,2.564-1.184,2.732-1.239l.137-.05a2.829,2.829,0,0,1,2.494.007,3.712,3.712,0,0,1,1.553,2.822,7.218,7.218,0,0,0,7.282,6.057h.008c3.564,0,6.295-4.109,6.322-4.151a1.838,1.838,0,0,1,1.585-.827,1.969,1.969,0,0,1,1.586,1.322c1,2.093,2.449,11.233,2.14,13.416-.26,6.09-1.492,6.232-2.085,6.3a.872.872,0,0,1-.114.007c-.347,0-1.985.041-4.462.1C161.373,518.1,145.31,518.5,134.933,518.5Zm-19.18-4.185c.527.453,3.39,1.556,11.523,2.045,6.931.417,31.517-.2,42.016-.459,1.956-.049,3.395-.084,4.1-.1a18.8,18.8,0,0,0,.616-4.452,1.044,1.044,0,0,1,.014-.128c.26-1.5-1-10.053-1.913-12.177-.852,1.149-3.782,4.682-7.737,4.684h-.01a9.187,9.187,0,0,1-9.254-7.727c-.192-1.144-.515-1.383-.578-1.419-.174-.1-.56.045-.792.132-.082.031-.155.058-.218.079-.142.056-1.242.564-2.515,1.153-12.6,5.828-18.062,8.1-19.466,8.1-13.971,0-15.846,5.977-15.861,6.038h0a9.239,9.239,0,0,0,.007,3.707C115.709,513.987,115.734,514.163,115.753,514.318Z" fill="#231f20"></path> </g> <g id="Group_120" data-name="Group 120"> <path id="Path_90" data-name="Path 90" d="M128.81,514.084a1.094,1.094,0,0,1-.858-.436c-1.306-1.631.078-8.638.369-10.026l.978.2c-.682,3.26-1.309,8.269-.567,9.2.048.06.073.061.092.061Z" fill="#231f20"></path> </g> <g id="Group_121" data-name="Group 121"> <path id="Path_91" data-name="Path 91" d="M130.284,506.748l-.856,0-1.07,0v-1l1.073,0c4.683.018,5.171.018,12.242-3.54a151.05,151.05,0,0,1,14.254-5.836l.33.943a150.592,150.592,0,0,0-14.134,5.786C135.3,506.534,134.326,506.748,130.284,506.748Z" fill="#231f20"></path> </g> <g id="Group_122" data-name="Group 122"> <path id="Path_92" data-name="Path 92" d="M165.443,510.6c-7.3-.672-11.265-3.319-11.43-3.431-1.506-.772-7.61.812-10.889,1.664-1.462.38-2.519.654-3.022.709-1.912.218-4.769-3.062-5.088-3.436l.762-.649c1.07,1.257,3.161,3.2,4.217,3.091.431-.047,1.566-.342,2.88-.683,5.14-1.334,9.9-2.456,11.65-1.553.091.056,3.988,2.645,11.012,3.292Z" fill="#231f20"></path> </g> <g id="Group_123" data-name="Group 123"> <path id="Path_93" data-name="Path 93" d="M167.551,508.75a31.5,31.5,0,0,1-12.561-3.831c-1.518-.751-7.591.772-10.854,1.594-1.46.367-2.515.632-3.017.685-1.952.225-3.76-2.036-3.836-2.132l.784-.621c.423.532,1.774,1.874,2.947,1.759.431-.046,1.565-.331,2.878-.661,5.11-1.286,9.839-2.365,11.581-1.5a31.153,31.153,0,0,0,12.167,3.709Z" fill="#231f20"></path> </g> <g id="Group_124" data-name="Group 124"> <path id="Path_94" data-name="Path 94" d="M163.486,513.4c0-4.83,10.428-9.125,10.872-9.3l.377.925c-2.852,1.161-10.252,4.926-10.249,8.379Z" fill="#231f20"></path> </g> <g id="Group_125" data-name="Group 125"> <path id="Path_95" data-name="Path 95" d="M140.8,514.5c-24.948,0-26.437-4.264-26.525-4.788l.977-.2c.016.047,1.94,4.708,32.355,3.9,24.173-.646,27.179-1.134,27.525-1.267l.08.208.03-.372c.622.082.649.481.643.6-.032.625-.055,1.076-28.251,1.83Q143.961,514.5,140.8,514.5Z" fill="#231f20"></path> </g> <g id="Group_126" data-name="Group 126"> <rect id="Rectangle_17" data-name="Rectangle 17" width="1" height="3.535" transform="matrix(0.884, -0.467, 0.467, 0.884, 149.02, 495.796)" fill="#231f20"></rect> </g> <g id="Group_127" data-name="Group 127"> <rect id="Rectangle_18" data-name="Rectangle 18" width="1" height="3.535" transform="matrix(0.884, -0.467, 0.467, 0.884, 145.273, 497.358)" fill="#231f20"></rect> </g> <g id="Group_128" data-name="Group 128"> <rect id="Rectangle_19" data-name="Rectangle 19" width="1" height="3.535" transform="matrix(0.884, -0.467, 0.467, 0.884, 141.783, 498.921)" fill="#231f20"></rect> </g> <g id="Group_129" data-name="Group 129"> <rect id="Rectangle_20" data-name="Rectangle 20" width="1" height="3.535" transform="matrix(0.884, -0.467, 0.467, 0.884, 138.18, 500.483)" fill="#231f20"></rect> </g> <g id="Group_130" data-name="Group 130"> <rect id="Rectangle_21" data-name="Rectangle 21" width="1" height="3.535" transform="matrix(0.884, -0.467, 0.467, 0.884, 134.41, 502.046)" fill="#231f20"></rect> </g> <g id="Group_131" data-name="Group 131"> <rect id="Rectangle_22" data-name="Rectangle 22" width="1" height="3.534" transform="matrix(0.884, -0.467, 0.467, 0.884, 131.001, 502.903)" fill="#231f20"></rect> </g> </g> </g></svg>