<svg fill="#000000" height="200px" width="200px" version="1.1" id="Layer_1" xmlns="http://www.w3.org/2000/svg" xmlns:xlink="http://www.w3.org/1999/xlink" viewBox="0 0 512.001 512.001" xml:space="preserve"><g id="SVGRepo_bgCarrier" stroke-width="0"></g><g id="SVGRepo_tracerCarrier" stroke-linecap="round" stroke-linejoin="round"></g><g id="SVGRepo_iconCarrier"> <g> <g> <path d="M433.661,7.852c-41.809-19.495-91.427-1.445-110.929,40.375c-4.316,9.255-6.773,18.908-7.542,28.537 c-9.085-1.93-18.525-1.309-27.43,1.933c-9.565,3.485-48.36,36.092-106.085,81.814l-48.184-22.468l7.055-15.131 c3.896-8.356,0.28-18.289-8.075-22.186c-8.355-3.894-18.289-0.281-22.186,8.076l-7.055,15.13l-15.131-7.055 c-8.355-3.895-18.289-0.281-22.186,8.074c-3.896,8.357-0.282,18.29,8.075,22.187l15.131,7.055l-7.055,15.131 c-3.896,8.356-0.28,18.289,8.075,22.186c8.362,3.899,18.291,0.278,22.186-8.076l7.055-15.13l32.96,15.37 c-17.63,17.884-19.49,46.252-3.589,66.033l73.551,92.902l-22.173,47.551l-146.26-68.202c-8.356-3.895-18.288-0.282-22.186,8.076 c-3.896,8.356-0.28,18.289,8.075,22.186c268.784,125.337,193.365,89.854,329.912,155.027c0.045,0.022,0.09,0.042,0.135,0.065 c25.03,11.673,54.888,0.801,66.558-24.225c3.896-8.356,0.282-18.289-8.075-22.187c-8.358-3.893-18.289-0.282-22.187,8.075 c-3.88,8.324-13.794,11.946-22.127,8.103l-93.13-44.45l35.281-75.662c0.021-0.042,0.041-0.086,0.061-0.129 c8.041-17.245,5.688-37.216-6.139-52.121l-39.787-50.135l8.888-7.11c18.27,8.52,20.97,9.778,87.442,40.774 c25.065,11.687,54.915,0.746,66.557-24.226c11.666-25.02,0.796-54.89-24.226-66.556l-41.543-19.372l-5.63-15.469 c39.788,13.479,84.13-4.9,102.288-43.841C493.531,76.97,475.477,27.35,433.661,7.852z M293.894,325.469 c3.697,4.659,4.817,11.045,2.03,17.261l-35.276,75.651l-30.26-14.111l26.527-56.89c2.669-5.725,1.88-12.465-2.041-17.417 c-0.046-0.058-80.037-101.096-80.084-101.153c-5.585-6.921-4.432-17.318,2.989-23.206c0.755-0.599,3.693-2.917,8.129-6.276 c33.038,15.406,39.246,18.3,69.474,32.396l-8.964,7.17c-7.181,5.744-8.365,16.211-2.649,23.414L293.894,325.469z M404.814,227.724 c8.28,3.861,11.951,13.874,8.075,22.185v0.001c-3.866,8.294-13.889,11.945-22.186,8.075l-60.52-28.22 c-4.009-1.87-7.064-5.188-8.845-9.605l-3.63-9.974c-3.893-10.694-17.142-14.45-26.065-7.368l-7.123,5.653 c-5.366-2.502-33.481-15.613-69.04-32.193c25.617-20.47,75.196-60.51,84.645-66.515c3.915-1.169,8.105-0.851,11.904,0.922 c4.106,1.915,7.205,5.271,8.726,9.45l27.616,75.875c1.515,4.16,4.619,7.549,8.633,9.421L404.814,227.724z M443.774,104.668v0.001 c-11.697,25.084-41.469,35.925-66.556,24.225c-25.029-11.67-35.896-41.528-24.226-66.557 c11.652-24.985,41.365-35.972,66.557-24.225C444.638,49.812,455.474,79.579,443.774,104.668z"></path> </g> </g> </g></svg>