<svg height="200px" width="200px" version="1.1" id="_x32_" xmlns="http://www.w3.org/2000/svg" xmlns:xlink="http://www.w3.org/1999/xlink" viewBox="0 0 512 512" xml:space="preserve" fill="#000000"><g id="SVGRepo_bgCarrier" stroke-width="0"></g><g id="SVGRepo_tracerCarrier" stroke-linecap="round" stroke-linejoin="round"></g><g id="SVGRepo_iconCarrier"> <style type="text/css"> .st0{fill:#000000;} </style> <g> <path class="st0" d="M447.248,419.319L512,400.868L416.952,96.149V37.068H256H95.033v59.082L0,400.868l64.752,18.451l-2.62,15.818 l70.178,8.657l-1.583,14.702l72.02,4.692v11.744H256h53.253v-11.744l72.02-4.692l-1.584-14.702l70.178-8.657L447.248,419.319z M114.147,56.195H256h141.838v34.571H256H114.147V56.195z M427.415,418.643l-54.994,6.808l-16.206-110.362l-13.515,1.986 l16.148,110.031l-0.201,0.029l1.482,13.572l-57.21,3.742l-10.982-118.408l-13.601,1.259l11.802,127.18v1.324H256h-34.139v-1.324 l11.802-127.18l-13.601-1.259L209.08,444.449l-57.211-3.742l1.468-13.572l-0.186-0.029l16.134-110.031l-13.515-1.986 l-16.191,110.362l-55.009-6.808l24.338-119.746l-13.386-2.734l-21.517,105.9l-49.928-14.191l88.414-283.447H256h143.508 l88.399,283.447l-49.928,14.191l-21.517-105.9l-13.385,2.734L427.415,418.643z"></path> </g> </g></svg>