<svg version="1.1" xmlns="http://www.w3.org/2000/svg" xmlns:xlink="http://www.w3.org/1999/xlink" viewBox="0 0 96 96" enable-background="new 0 0 96 96" xml:space="preserve" fill="#000000"><g id="SVGRepo_bgCarrier" stroke-width="0"></g><g id="SVGRepo_tracerCarrier" stroke-linecap="round" stroke-linejoin="round"></g><g id="SVGRepo_iconCarrier"> <g id="Base" display="none"> </g> <g id="Dibujo"> <g> <path d="M60,18c1.104,0,2-0.896,2-2v-4c0-1.104-0.896-2-2-2c-1.105,0-2,0.896-2,2v4C58,17.104,58.895,18,60,18z"></path> <path d="M84,34h-4c-1.105,0-2,0.896-2,2s0.895,2,2,2h4c1.104,0,2-0.896,2-2S85.104,34,84,34z"></path> <path d="M74.143,23.857c0.512,0,1.023-0.195,1.414-0.586l2.828-2.828c0.781-0.781,0.781-2.047,0-2.828 c-0.781-0.781-2.047-0.781-2.828,0l-2.828,2.828c-0.781,0.781-0.781,2.047,0,2.828C73.119,23.662,73.631,23.857,74.143,23.857z"></path> <path d="M44.443,23.271c0.391,0.391,0.902,0.586,1.414,0.586c0.512,0,1.023-0.195,1.414-0.586c0.781-0.781,0.781-2.047,0-2.828 l-2.828-2.828c-0.781-0.781-2.047-0.781-2.828,0c-0.781,0.781-0.781,2.047,0,2.828L44.443,23.271z"></path> <path d="M72.556,42.188C73.501,40.271,74,38.166,74,36c0-7.72-6.28-14-14-14c-4.601,0-8.895,2.281-11.496,6.021 C48.336,28.016,48.17,28,48.001,28c-7.664,0-14.219,5.012-16.311,12.184C31.113,40.079,30.508,40,30.001,40 c-6.066,0-11,4.935-11,11s4.934,11,11,11H32c1.104,0,2-0.896,2-2s-0.896-2-2-2h-1.999c-3.859,0-7-3.141-7-7s3.141-7,7-7 c0.277,0,0.723,0.068,1.193,0.162V46c0,1.104,0.896,2,2,2c1.104,0,2-0.896,2-2v-3.219C36.267,36.528,41.63,32,48.001,32 c6.372,0,11.736,4.53,12.807,10.786V46c0,1.104,0.896,2,2,2s2-0.896,2-2v-1.837C65.279,44.069,65.727,44,66.001,44 c3.859,0,7,3.141,7,7s-3.141,7-7,7H64c-1.105,0-2,0.896-2,2s0.895,2,2,2h2.001c6.065,0,11-4.935,11-11 C77.001,47.392,75.247,44.194,72.556,42.188z M64.311,40.184c-1.608-5.511-5.854-9.735-11.21-11.401 C54.939,27.031,57.397,26,60,26c5.514,0,10,4.486,10,10c0,1.549-0.36,3.05-1.036,4.417C68.019,40.152,67.028,40,66.001,40 C65.493,40,64.889,40.079,64.311,40.184z"></path> <path d="M50,60V48c0-1.104-0.896-2-2-2c-1.105,0-2,0.896-2,2v12c0,1.104,0.895,2,2,2C49.104,62,50,61.104,50,60z"></path> <path d="M41,66V54c0-1.104-0.896-2-2-2c-1.105,0-2,0.896-2,2v12c0,1.104,0.895,2,2,2C40.104,68,41,67.104,41,66z"></path> <path d="M59,66V54c0-1.104-0.896-2-2-2c-1.105,0-2,0.896-2,2v12c0,1.104,0.895,2,2,2C58.104,68,59,67.104,59,66z"></path> <path d="M40,72h-2c-1.105,0-2,0.896-2,2v2c0,1.104,0.895,2,2,2h2c1.104,0,2-0.896,2-2v-2C42,72.896,41.104,72,40,72z"></path> <path d="M49,66h-2c-1.105,0-2,0.896-2,2v2c0,1.104,0.895,2,2,2h2c1.104,0,2-0.896,2-2v-2C51,66.896,50.104,66,49,66z"></path> <path d="M58,72h-2c-1.105,0-2,0.896-2,2v2c0,1.104,0.895,2,2,2h2c1.104,0,2-0.896,2-2v-2C60,72.896,59.104,72,58,72z"></path> </g> </g> </g></svg>