<svg version="1.1" xmlns="http://www.w3.org/2000/svg" xmlns:xlink="http://www.w3.org/1999/xlink" viewBox="0 0 96 96" enable-background="new 0 0 96 96" xml:space="preserve" fill="#000000"><g id="SVGRepo_bgCarrier" stroke-width="0"></g><g id="SVGRepo_tracerCarrier" stroke-linecap="round" stroke-linejoin="round"></g><g id="SVGRepo_iconCarrier"> <g id="Base" display="none"> </g> <g id="Dibujo"> <g> <path d="M69.24,40.488C72.173,37.886,74,34.094,74,30c0-1.104-0.896-2-2-2c-5.514,0-10-4.486-10-10c0-1.104-0.896-2-2-2 c-7.078,0-12.931,5.284-13.857,12.111c-6.848,0.737-12.533,5.488-14.454,12.072C31.112,40.079,30.507,40,30,40 c-6.065,0-11,4.935-11,11s4.935,11,11.001,11l2-0.001c1.104-0.001,2-0.896,1.999-2.001c-0.001-1.104-0.896-1.999-2-1.999h-0.001 L30,58c-3.859,0-7-3.141-7-7s3.141-7,7-7c0.277,0,0.724,0.068,1.194,0.162V46c0,1.104,0.896,2,2,2s2-0.896,2-2v-3.224 C36.269,36.525,41.631,32,48,32c6.372,0,11.736,4.53,12.808,10.787V46c0,1.104,0.896,2,2,2s2-0.896,2-2v-1.838 C65.277,44.068,65.723,44,66,44c3.859,0,7,3.141,7,7s-3.141,7-6.999,7l-2-0.001H64c-1.105,0-1.999,0.895-2,1.999 c-0.001,1.104,0.894,2,1.999,2.001L66,62c6.065,0,11-4.935,11-11C77,46.063,73.728,41.875,69.24,40.488z M50.174,28.15 c0.759-4.039,3.952-7.23,7.994-7.982c0.934,5.985,5.675,10.728,11.66,11.664c-0.615,3.246-2.84,6.006-5.862,7.326 C61.811,33.21,56.519,28.953,50.174,28.15z"></path> <path d="M50,60V48c0-1.104-0.896-2-2-2c-1.105,0-2,0.896-2,2v12c0,1.104,0.895,2,2,2C49.104,62,50,61.104,50,60z"></path> <path d="M41,66V54c0-1.104-0.896-2-2-2c-1.105,0-2,0.896-2,2v12c0,1.104,0.895,2,2,2C40.104,68,41,67.104,41,66z"></path> <path d="M59,66V54c0-1.104-0.896-2-2-2c-1.105,0-2,0.896-2,2v12c0,1.104,0.895,2,2,2C58.104,68,59,67.104,59,66z"></path> <path d="M40,72h-2c-1.105,0-2,0.896-2,2v2c0,1.104,0.895,2,2,2h2c1.104,0,2-0.896,2-2v-2C42,72.896,41.104,72,40,72z"></path> <path d="M49,66h-2c-1.105,0-2,0.896-2,2v2c0,1.104,0.895,2,2,2h2c1.104,0,2-0.896,2-2v-2C51,66.896,50.104,66,49,66z"></path> <path d="M58,72h-2c-1.105,0-2,0.896-2,2v2c0,1.104,0.895,2,2,2h2c1.104,0,2-0.896,2-2v-2C60,72.896,59.104,72,58,72z"></path> </g> </g> </g></svg>