<svg viewBox="0 -0.5 25 25" fill="none" xmlns="http://www.w3.org/2000/svg"><g id="SVGRepo_bgCarrier" stroke-width="0"></g><g id="SVGRepo_tracerCarrier" stroke-linecap="round" stroke-linejoin="round"></g><g id="SVGRepo_iconCarrier"> <path fill-rule="evenodd" clip-rule="evenodd" d="M12.757 11.435L11.241 8.56299L9.724 11.435C9.61667 11.645 9.4615 11.8269 9.271 11.966C9.07934 12.1058 8.85787 12.1992 8.624 12.239L5.5 12.849L7.681 15.449C7.82812 15.6095 7.93897 15.7998 8.006 16.007C8.07249 16.2137 8.09331 16.4324 8.067 16.648L7.652 20L10.529 18.614C10.7513 18.5078 10.9946 18.4528 11.241 18.453C11.4723 18.4528 11.7004 18.508 11.906 18.614L14.848 19.914L14.432 16.6C14.4057 16.3844 14.4265 16.1657 14.493 15.959C14.56 15.7518 14.6709 15.5615 14.818 15.401L16.981 12.845L13.857 12.235C13.6231 12.1952 13.4017 12.1018 13.21 11.962C13.02 11.824 12.8649 11.6436 12.757 11.435Z" stroke="#000000" stroke-width="1.5" stroke-linecap="round" stroke-linejoin="round"></path> <path d="M19.4493 5.10932C19.7428 4.81698 19.7437 4.3421 19.4513 4.04866C19.159 3.75522 18.6841 3.75433 18.3907 4.04668L19.4493 5.10932ZM14.9117 7.51268C14.6182 7.80502 14.6173 8.2799 14.9097 8.57334C15.202 8.86678 15.6769 8.86767 15.9703 8.57532L14.9117 7.51268ZM20.0292 7.99747C20.3227 7.70521 20.3237 7.23034 20.0315 6.93682C19.7392 6.64329 19.2644 6.64227 18.9708 6.93453L20.0292 7.99747ZM16.6508 9.24453C16.3573 9.53679 16.3563 10.0117 16.6485 10.3052C16.9408 10.5987 17.4157 10.5997 17.7092 10.3075L16.6508 9.24453ZM16.5502 4.53147C16.8437 4.23921 16.8447 3.76434 16.5525 3.47082C16.2602 3.17729 15.7854 3.17627 15.4918 3.46853L16.5502 4.53147ZM13.1708 5.77953C12.8773 6.07179 12.8763 6.54666 13.1685 6.84018C13.4608 7.13371 13.9357 7.13473 14.2292 6.84247L13.1708 5.77953ZM18.3907 4.04668L14.9117 7.51268L15.9703 8.57532L19.4493 5.10932L18.3907 4.04668ZM18.9708 6.93453L16.6508 9.24453L17.7092 10.3075L20.0292 7.99747L18.9708 6.93453ZM15.4918 3.46853L13.1708 5.77953L14.2292 6.84247L16.5502 4.53147L15.4918 3.46853Z" fill="#000000"></path> </g></svg>