<svg xmlns="http://www.w3.org/2000/svg" xmlns:xlink="http://www.w3.org/1999/xlink" width="594" zoomAndPan="magnify" viewBox="0 0 445.5 482.999988" height="644" preserveAspectRatio="xMidYMid meet" version="1.0"><defs><clipPath id="733b48dc03"><path d="M 142 425 L 285 425 L 285 481.9375 L 142 481.9375 Z M 142 425 " clip-rule="nonzero"/></clipPath><clipPath id="cee022637a"><path d="M 251.492188 11 L 392 11 L 392 219 L 251.492188 219 Z M 251.492188 11 " clip-rule="nonzero"/></clipPath><clipPath id="79ab1ad1f1"><path d="M 251.492188 8 L 398 8 L 398 223 L 251.492188 223 Z M 251.492188 8 " clip-rule="nonzero"/></clipPath><clipPath id="d695f5aa53"><path d="M 357.507812 155 L 439 155 L 439 276 L 357.507812 276 Z M 357.507812 155 " clip-rule="nonzero"/></clipPath><clipPath id="32def33b0f"><path d="M 357.507812 153 L 442 153 L 442 278.6875 L 357.507812 278.6875 Z M 357.507812 153 " clip-rule="nonzero"/></clipPath><clipPath id="445cc7f3b0"><path d="M 213.480469 168 L 278 168 L 278 263 L 213.480469 263 Z M 213.480469 168 " clip-rule="nonzero"/></clipPath><clipPath id="a3216986fe"><path d="M 213.480469 166 L 280 166 L 280 264.882812 L 213.480469 264.882812 Z M 213.480469 166 " clip-rule="nonzero"/></clipPath></defs><path fill="#85a2cf" d="M 331.21875 77.960938 C 328.65625 75.878906 325.453125 76.199219 325.453125 76.199219 C 325.453125 76.199219 322.25 75.878906 319.6875 77.960938 C 317.125 80.042969 314.710938 81.707031 314.710938 81.707031 C 314.710938 81.707031 322.890625 82.925781 325.453125 82.765625 C 328.015625 82.925781 336.195312 81.707031 336.195312 81.707031 C 336.195312 81.707031 333.78125 80.042969 331.21875 77.960938 " fill-opacity="1" fill-rule="nonzero"/><path fill="#b5cced" d="M 302.867188 94.257812 C 302.867188 96.382812 304.585938 98.105469 306.710938 98.105469 L 344.195312 98.105469 C 346.316406 98.105469 348.035156 96.382812 348.035156 94.257812 L 348.035156 85.367188 C 348.035156 83.25 346.316406 81.523438 344.195312 81.523438 L 306.710938 81.523438 C 304.585938 81.523438 302.867188 83.25 302.867188 85.367188 L 302.867188 94.257812 " fill-opacity="1" fill-rule="nonzero"/><path fill="#85a2cf" d="M 107.121094 77.960938 C 104.558594 75.878906 101.355469 76.199219 101.355469 76.199219 C 101.355469 76.199219 98.148438 75.878906 95.585938 77.960938 C 93.023438 80.042969 90.613281 81.707031 90.613281 81.707031 C 90.613281 81.707031 98.792969 82.925781 101.355469 82.765625 C 103.914062 82.925781 112.09375 81.707031 112.09375 81.707031 C 112.09375 81.707031 109.683594 80.042969 107.121094 77.960938 " fill-opacity="1" fill-rule="nonzero"/><path fill="#b5cced" d="M 78.769531 94.257812 C 78.769531 96.382812 80.488281 98.105469 82.613281 98.105469 L 120.09375 98.105469 C 122.214844 98.105469 123.9375 96.382812 123.9375 94.257812 L 123.9375 85.367188 C 123.9375 83.25 122.214844 81.523438 120.09375 81.523438 L 82.613281 81.523438 C 80.488281 81.523438 78.769531 83.25 78.769531 85.367188 L 78.769531 94.257812 " fill-opacity="1" fill-rule="nonzero"/><path fill="#bd8129" d="M 383.207031 282.035156 C 383.207031 296.894531 371.042969 309.050781 356.175781 309.050781 L 70.636719 309.050781 C 55.769531 309.050781 43.605469 296.894531 43.605469 282.035156 L 43.605469 114.839844 C 43.605469 99.976562 55.769531 87.820312 70.636719 87.820312 L 356.175781 87.820312 C 371.042969 87.820312 383.207031 99.976562 383.207031 114.839844 L 383.207031 282.035156 " fill-opacity="1" fill-rule="nonzero"/><path fill="#6b4015" d="M 375.242188 282.519531 C 375.242188 296.621094 363.703125 308.15625 349.597656 308.15625 L 77.210938 308.15625 C 63.105469 308.15625 51.5625 296.621094 51.5625 282.519531 L 51.5625 123.886719 C 51.5625 109.785156 63.105469 98.25 77.210938 98.25 L 349.597656 98.25 C 363.703125 98.25 375.242188 109.785156 375.242188 123.886719 L 375.242188 282.519531 " fill-opacity="1" fill-rule="nonzero"/><path fill="#532e14" d="M 361.042969 284.988281 C 361.042969 297.730469 350.609375 308.15625 337.863281 308.15625 L 88.945312 308.15625 C 76.195312 308.15625 65.765625 297.730469 65.765625 284.988281 L 65.765625 141.628906 C 65.765625 128.882812 76.195312 118.457031 88.945312 118.457031 L 337.863281 118.457031 C 350.609375 118.457031 361.042969 128.882812 361.042969 141.628906 L 361.042969 284.988281 " fill-opacity="1" fill-rule="nonzero"/><path fill="#bd8129" d="M 3.386719 385.707031 L 3.359375 451.644531 C 3.359375 459.074219 9.441406 465.15625 16.875 465.15625 L 409.9375 465.15625 C 417.375 465.15625 423.457031 459.074219 423.457031 451.644531 L 423.457031 386.503906 L 3.386719 385.707031 " fill-opacity="1" fill-rule="nonzero"/><path fill="#935d1b" d="M 421.597656 378.96875 C 426.578125 389.449219 421.160156 398.023438 409.550781 398.023438 L 17.253906 398.023438 C 5.644531 398.023438 0.226562 389.449219 5.207031 378.96875 L 35.066406 316.1875 C 40.050781 305.710938 53.628906 297.140625 65.234375 297.140625 L 361.570312 297.140625 C 373.179688 297.140625 386.757812 305.710938 391.738281 316.1875 L 421.597656 378.96875 " fill-opacity="1" fill-rule="nonzero"/><path fill="#6b4015" d="M 414.523438 375.507812 C 419.300781 384.832031 414.109375 392.464844 402.992188 392.464844 L 23.816406 392.464844 C 12.703125 392.464844 7.511719 384.832031 12.285156 375.507812 L 40.875 319.644531 C 45.648438 310.324219 58.648438 302.695312 69.761719 302.695312 L 357.046875 302.695312 C 368.160156 302.695312 381.160156 310.324219 385.9375 319.644531 L 414.523438 375.507812 " fill-opacity="1" fill-rule="nonzero"/><path fill="#6b4015" d="M 414.523438 375.507812 C 419.300781 384.832031 414.109375 392.464844 402.992188 392.464844 L 23.816406 392.464844 C 12.703125 392.464844 7.511719 384.832031 12.285156 375.507812 L 40.875 319.644531 C 45.648438 310.324219 58.648438 302.695312 69.761719 302.695312 L 357.046875 302.695312 C 368.160156 302.695312 381.160156 310.324219 385.9375 319.644531 L 414.523438 375.507812 " fill-opacity="1" fill-rule="nonzero"/><path fill="#532e14" d="M 390.296875 392.464844 L 370.589844 353.015625 C 366.28125 344.390625 354.546875 337.339844 344.515625 337.339844 L 82.402344 337.339844 C 72.371094 337.339844 60.640625 344.390625 56.328125 353.015625 L 36.621094 392.464844 L 390.296875 392.464844 " fill-opacity="1" fill-rule="nonzero"/><path fill="#452022" d="M 45.363281 466.519531 L 19.746094 466.519531 C 19.746094 466.519531 4.464844 465.621094 3.566406 451.691406 L 3.566406 431.675781 C 3.566406 431.675781 34.128906 427.878906 41.320312 453.039062 L 45.363281 466.519531 " fill-opacity="1" fill-rule="nonzero"/><path fill="#683737" d="M 43.570312 466.519531 L 17.949219 466.519531 C 17.949219 466.519531 2.667969 465.621094 1.765625 451.691406 L 1.765625 431.675781 C 1.765625 431.675781 32.332031 427.878906 39.523438 453.039062 L 43.570312 466.519531 " fill-opacity="1" fill-rule="nonzero"/><path fill="#452022" d="M 21.308594 450.839844 C 21.308594 453.195312 23.222656 455.105469 25.582031 455.105469 C 27.9375 455.105469 29.851562 453.195312 29.851562 450.839844 C 29.851562 448.476562 27.9375 446.570312 25.582031 446.570312 C 23.222656 446.570312 21.308594 448.476562 21.308594 450.839844 " fill-opacity="1" fill-rule="nonzero"/><path fill="#bdbfdc" d="M 21.308594 449.464844 C 21.308594 451.820312 23.222656 453.734375 25.582031 453.734375 C 27.9375 453.734375 29.851562 451.820312 29.851562 449.464844 C 29.851562 447.105469 27.9375 445.195312 25.582031 445.195312 C 23.222656 445.195312 21.308594 447.105469 21.308594 449.464844 " fill-opacity="1" fill-rule="nonzero"/><path fill="#452022" d="M 383.210938 466.519531 L 408.835938 466.519531 C 408.835938 466.519531 424.117188 465.621094 425.015625 451.691406 L 425.015625 431.675781 C 425.015625 431.675781 394.449219 427.878906 387.257812 453.039062 L 383.210938 466.519531 " fill-opacity="1" fill-rule="nonzero"/><path fill="#683737" d="M 385.015625 466.519531 L 410.636719 466.519531 C 410.636719 466.519531 425.914062 465.621094 426.8125 451.691406 L 426.8125 431.671875 C 426.8125 431.671875 396.25 427.878906 389.054688 453.039062 L 385.015625 466.519531 " fill-opacity="1" fill-rule="nonzero"/><path fill="#452022" d="M 407.269531 450.839844 C 407.269531 453.195312 405.359375 455.105469 403 455.105469 C 400.640625 455.105469 398.726562 453.195312 398.726562 450.839844 C 398.726562 448.476562 400.640625 446.570312 403 446.570312 C 405.359375 446.570312 407.269531 448.476562 407.269531 450.839844 " fill-opacity="1" fill-rule="nonzero"/><path fill="#bdbfdc" d="M 407.269531 449.464844 C 407.269531 451.820312 405.359375 453.734375 403 453.734375 C 400.640625 453.734375 398.726562 451.820312 398.726562 449.464844 C 398.726562 447.105469 400.640625 445.195312 403 445.195312 C 405.359375 445.195312 407.269531 447.105469 407.269531 449.464844 " fill-opacity="1" fill-rule="nonzero"/><path fill="#8b5c20" d="M 123.460938 447.402344 C 123.460938 449.804688 125.621094 451.75 128.289062 451.75 L 176.265625 451.75 C 178.929688 451.75 181.089844 449.804688 181.089844 447.402344 L 181.089844 432.277344 C 181.089844 429.875 178.929688 427.929688 176.265625 427.929688 L 128.289062 427.929688 C 125.621094 427.929688 123.460938 429.875 123.460938 432.277344 L 123.460938 447.402344 " fill-opacity="1" fill-rule="nonzero"/><path fill="#8b5c20" d="M 245.714844 447.402344 C 245.714844 449.804688 247.878906 451.75 250.542969 451.75 L 298.519531 451.75 C 301.1875 451.75 303.347656 449.804688 303.347656 447.402344 L 303.347656 432.277344 C 303.347656 429.875 301.1875 427.929688 298.519531 427.929688 L 250.542969 427.929688 C 247.878906 427.929688 245.714844 429.875 245.714844 432.277344 L 245.714844 447.402344 " fill-opacity="1" fill-rule="nonzero"/><path fill="#736965" d="M 245.585938 440.019531 C 245.585938 442.289062 247.429688 444.132812 249.703125 444.132812 L 299.105469 444.132812 C 301.375 444.132812 303.222656 442.289062 303.222656 440.019531 L 303.222656 426.128906 C 303.222656 423.855469 301.375 422.011719 299.105469 422.011719 L 249.703125 422.011719 C 247.429688 422.011719 245.585938 423.855469 245.585938 426.128906 L 245.585938 440.019531 " fill-opacity="1" fill-rule="nonzero"/><path fill="#8e8580" d="M 245.585938 436.929688 C 245.585938 439.199219 247.429688 441.046875 249.703125 441.046875 L 299.105469 441.046875 C 301.375 441.046875 303.222656 439.199219 303.222656 436.929688 L 303.222656 423.042969 C 303.222656 420.769531 301.375 418.925781 299.105469 418.925781 L 249.703125 418.925781 C 247.429688 418.925781 245.585938 420.769531 245.585938 423.042969 L 245.585938 436.929688 " fill-opacity="1" fill-rule="nonzero"/><path fill="#736965" d="M 290.933594 431.789062 C 290.933594 434.128906 292.835938 436.03125 295.179688 436.03125 C 297.523438 436.03125 299.425781 434.128906 299.425781 431.789062 C 299.425781 429.445312 297.523438 427.542969 295.179688 427.542969 C 292.835938 427.542969 290.933594 429.445312 290.933594 431.789062 " fill-opacity="1" fill-rule="nonzero"/><path fill="#736965" d="M 249.382812 431.789062 C 249.382812 434.128906 251.285156 436.03125 253.628906 436.03125 C 255.972656 436.03125 257.875 434.128906 257.875 431.789062 C 257.875 429.445312 255.972656 427.542969 253.628906 427.542969 C 251.285156 427.542969 249.382812 429.445312 249.382812 431.789062 " fill-opacity="1" fill-rule="nonzero"/><path fill="#afaaa4" d="M 290.613281 429.984375 C 290.613281 432.328125 292.511719 434.230469 294.859375 434.230469 C 297.203125 434.230469 299.105469 432.328125 299.105469 429.984375 C 299.105469 427.644531 297.203125 425.738281 294.859375 425.738281 C 292.511719 425.738281 290.613281 427.644531 290.613281 429.984375 " fill-opacity="1" fill-rule="nonzero"/><path fill="#afaaa4" d="M 249.0625 429.984375 C 249.0625 432.328125 250.960938 434.230469 253.304688 434.230469 C 255.652344 434.230469 257.550781 432.328125 257.550781 429.984375 C 257.550781 427.644531 255.652344 425.738281 253.304688 425.738281 C 250.960938 425.738281 249.0625 427.644531 249.0625 429.984375 " fill-opacity="1" fill-rule="nonzero"/><path fill="#1b1714" d="M 263.339844 435.128906 L 285.726562 435.128906 L 285.726562 424.84375 L 263.339844 424.84375 L 263.339844 435.128906 " fill-opacity="1" fill-rule="nonzero"/><path fill="#353332" d="M 263.339844 433.074219 L 285.726562 433.074219 L 285.726562 422.785156 L 263.339844 422.785156 L 263.339844 433.074219 " fill-opacity="1" fill-rule="nonzero"/><path fill="#736965" d="M 123.460938 440.019531 C 123.460938 442.289062 125.304688 444.132812 127.578125 444.132812 L 176.976562 444.132812 C 179.25 444.132812 181.089844 442.289062 181.089844 440.019531 L 181.089844 426.128906 C 181.089844 423.855469 179.25 422.011719 176.976562 422.011719 L 127.578125 422.011719 C 125.304688 422.011719 123.460938 423.855469 123.460938 426.128906 L 123.460938 440.019531 " fill-opacity="1" fill-rule="nonzero"/><path fill="#8e8580" d="M 123.460938 436.929688 C 123.460938 439.199219 125.304688 441.046875 127.578125 441.046875 L 176.976562 441.046875 C 179.25 441.046875 181.089844 439.199219 181.089844 436.929688 L 181.089844 423.042969 C 181.089844 420.769531 179.25 418.925781 176.976562 418.925781 L 127.578125 418.925781 C 125.304688 418.925781 123.460938 420.769531 123.460938 423.042969 L 123.460938 436.929688 " fill-opacity="1" fill-rule="nonzero"/><path fill="#736965" d="M 168.808594 431.789062 C 168.808594 434.128906 170.710938 436.03125 173.054688 436.03125 C 175.398438 436.03125 177.296875 434.128906 177.296875 431.789062 C 177.296875 429.445312 175.398438 427.542969 173.054688 427.542969 C 170.710938 427.542969 168.808594 429.445312 168.808594 431.789062 " fill-opacity="1" fill-rule="nonzero"/><path fill="#736965" d="M 127.253906 431.789062 C 127.253906 434.128906 129.15625 436.03125 131.5 436.03125 C 133.84375 436.03125 135.746094 434.128906 135.746094 431.789062 C 135.746094 429.445312 133.84375 427.542969 131.5 427.542969 C 129.15625 427.542969 127.253906 429.445312 127.253906 431.789062 " fill-opacity="1" fill-rule="nonzero"/><path fill="#afaaa4" d="M 168.484375 429.984375 C 168.484375 432.328125 170.386719 434.230469 172.730469 434.230469 C 175.078125 434.230469 176.976562 432.328125 176.976562 429.984375 C 176.976562 427.644531 175.078125 425.738281 172.730469 425.738281 C 170.386719 425.738281 168.484375 427.644531 168.484375 429.984375 " fill-opacity="1" fill-rule="nonzero"/><path fill="#afaaa4" d="M 126.933594 429.984375 C 126.933594 432.328125 128.832031 434.230469 131.179688 434.230469 C 133.523438 434.230469 135.425781 432.328125 135.425781 429.984375 C 135.425781 427.644531 133.523438 425.738281 131.179688 425.738281 C 128.832031 425.738281 126.933594 427.644531 126.933594 429.984375 " fill-opacity="1" fill-rule="nonzero"/><path fill="#1b1714" d="M 141.214844 435.128906 L 163.597656 435.128906 L 163.597656 424.84375 L 141.214844 424.84375 L 141.214844 435.128906 " fill-opacity="1" fill-rule="nonzero"/><path fill="#353332" d="M 141.214844 433.074219 L 163.597656 433.074219 L 163.597656 422.785156 L 141.214844 422.785156 L 141.214844 433.074219 " fill-opacity="1" fill-rule="nonzero"/><g clip-path="url(#733b48dc03)"><path fill="#1b1714" d="M 278.242188 428.304688 C 278.242188 428.304688 278.335938 428.503906 278.519531 428.890625 C 278.6875 429.25 278.9375 429.792969 279.257812 430.496094 C 279.859375 431.90625 280.742188 433.960938 281.621094 436.691406 C 282.492188 439.421875 283.488281 442.789062 284.035156 446.980469 C 284.523438 451.140625 285.015625 456.210938 282.734375 462.4375 C 281.609375 465.496094 279.34375 468.828125 276.128906 471.21875 C 275.738281 471.523438 275.316406 471.773438 274.902344 472.042969 L 274.265625 472.4375 L 274.105469 472.53125 L 274.027344 472.582031 C 273.84375 472.667969 274.308594 472.449219 273.605469 472.789062 L 273.394531 472.890625 C 272.832031 473.164062 272.265625 473.441406 271.699219 473.726562 C 270.398438 474.285156 268.441406 475.054688 267.125 475.457031 C 261.476562 477.28125 255.808594 478.484375 249.90625 479.359375 C 244.023438 480.230469 237.984375 480.972656 231.820312 481.347656 C 225.644531 481.757812 219.390625 481.917969 212.9375 481.753906 C 206.582031 481.449219 200.574219 481.058594 194.480469 480.507812 C 188.425781 480 182.472656 479.238281 176.664062 478.425781 C 170.84375 477.613281 165.257812 476.574219 159.628906 474.996094 C 158.898438 474.761719 158.171875 474.527344 157.449219 474.296875 C 156.6875 474.019531 156.09375 473.90625 155.21875 473.496094 C 154.402344 473.128906 153.59375 472.761719 152.792969 472.402344 L 152.496094 472.257812 C 151.738281 471.84375 152.257812 472.121094 152.078125 472.027344 L 152.027344 471.992188 L 151.929688 471.929688 L 151.542969 471.671875 C 151.242188 471.464844 151.117188 471.402344 150.679688 471.078125 C 148.699219 469.625 147.457031 468.316406 146.390625 466.804688 C 145.304688 465.3125 144.527344 463.753906 143.949219 462.242188 C 141.753906 456.140625 142.269531 451.136719 142.777344 447.015625 C 143.347656 442.878906 144.363281 439.542969 145.25 436.835938 C 146.136719 434.132812 147.03125 432.105469 147.636719 430.710938 C 148.257812 429.320312 148.652344 428.585938 148.664062 428.535156 C 149.261719 426.429688 151.453125 425.203125 153.558594 425.800781 C 155.582031 426.367188 156.792969 428.40625 156.359375 430.429688 L 156.144531 431.4375 C 156.144531 431.4375 156 432.113281 155.726562 433.378906 C 155.441406 434.695312 155.097656 436.660156 154.726562 439.125 C 154.386719 441.589844 154.097656 444.601562 154.113281 447.855469 C 154.140625 451.0625 154.652344 454.703125 155.953125 457.089844 C 156.28125 457.671875 156.636719 458.164062 157.03125 458.53125 C 157.367188 458.9375 157.964844 459.230469 157.964844 459.230469 C 158.015625 459.273438 158.453125 459.484375 158.679688 459.605469 L 159.089844 459.820312 L 159.195312 459.875 L 159.246094 459.90625 C 159.097656 459.820312 159.648438 460.125 158.929688 459.726562 L 159.066406 459.761719 C 159.429688 459.863281 159.785156 459.972656 160.136719 460.101562 C 160.417969 460.230469 161.097656 460.332031 161.558594 460.449219 C 162.078125 460.566406 162.597656 460.6875 163.125 460.804688 C 167.664062 461.664062 173.015625 462.15625 178.507812 462.675781 C 184.027344 463.175781 189.8125 463.449219 195.691406 463.816406 C 201.535156 464.117188 207.667969 464.453125 213.464844 464.632812 C 219.167969 464.789062 225.078125 464.628906 230.855469 464.378906 C 236.636719 464.078125 242.34375 463.753906 247.761719 463.140625 C 253.152344 462.507812 258.371094 461.816406 262.765625 460.742188 C 263.964844 460.445312 264.433594 460.3125 265.507812 459.992188 C 266.261719 459.679688 267.007812 459.382812 267.730469 459.085938 C 268.539062 458.632812 269.257812 458.050781 269.867188 456.902344 C 271.085938 454.628906 271.582031 451.058594 271.578125 447.894531 C 271.574219 444.691406 271.269531 441.710938 270.910156 439.277344 C 270.53125 436.832031 270.175781 434.894531 269.882812 433.597656 C 269.605469 432.339844 269.453125 431.664062 269.453125 431.664062 L 269.390625 431.378906 C 268.828125 428.835938 270.425781 426.320312 272.972656 425.753906 C 275.148438 425.269531 277.3125 426.378906 278.242188 428.304688 " fill-opacity="1" fill-rule="nonzero"/></g><path fill="#b1cae7" d="M 65.765625 418.925781 L 113.445312 418.925781 L 113.445312 398.023438 L 65.765625 398.023438 L 65.765625 418.925781 " fill-opacity="1" fill-rule="nonzero"/><path fill="#935d1b" d="M 65.765625 422.785156 L 113.445312 422.785156 L 113.445312 418.925781 L 65.765625 418.925781 L 65.765625 422.785156 " fill-opacity="1" fill-rule="nonzero"/><path fill="#935d1b" d="M 312.351562 422.785156 L 360.035156 422.785156 L 360.035156 418.925781 L 312.351562 418.925781 L 312.351562 422.785156 " fill-opacity="1" fill-rule="nonzero"/><path fill="#b1cae7" d="M 312.351562 418.925781 L 360.035156 418.925781 L 360.035156 398.023438 L 312.351562 398.023438 L 312.351562 418.925781 " fill-opacity="1" fill-rule="nonzero"/><path fill="#8eaed0" d="M 73.867188 408.46875 C 73.867188 411.101562 76 413.234375 78.636719 413.234375 L 100.882812 413.234375 C 103.519531 413.234375 105.652344 411.101562 105.652344 408.46875 L 105.652344 407.476562 C 105.652344 404.84375 103.519531 402.707031 100.882812 402.707031 L 78.636719 402.707031 C 76 402.707031 73.867188 404.84375 73.867188 407.476562 L 73.867188 408.46875 " fill-opacity="1" fill-rule="nonzero"/><path fill="#678db3" d="M 100.882812 402.707031 L 78.636719 402.707031 C 76 402.707031 73.867188 404.84375 73.867188 407.476562 L 73.867188 408.46875 C 73.867188 408.8125 73.90625 409.140625 73.972656 409.460938 C 74.433594 407.308594 76.34375 405.6875 78.636719 405.6875 L 100.882812 405.6875 C 103.179688 405.6875 105.089844 407.308594 105.546875 409.460938 C 105.613281 409.140625 105.652344 408.8125 105.652344 408.46875 L 105.652344 407.476562 C 105.652344 404.84375 103.519531 402.707031 100.882812 402.707031 " fill-opacity="1" fill-rule="nonzero"/><path fill="#8eaed0" d="M 320.300781 408.46875 C 320.300781 411.101562 322.4375 413.234375 325.066406 413.234375 L 347.320312 413.234375 C 349.949219 413.234375 352.085938 411.101562 352.085938 408.46875 L 352.085938 407.476562 C 352.085938 404.84375 349.949219 402.707031 347.320312 402.707031 L 325.066406 402.707031 C 322.4375 402.707031 320.300781 404.84375 320.300781 407.476562 L 320.300781 408.46875 " fill-opacity="1" fill-rule="nonzero"/><path fill="#678db3" d="M 347.320312 402.707031 L 325.066406 402.707031 C 322.4375 402.707031 320.300781 404.84375 320.300781 407.476562 L 320.300781 408.46875 C 320.300781 408.8125 320.339844 409.140625 320.40625 409.460938 C 320.863281 407.308594 322.777344 405.6875 325.066406 405.6875 L 347.320312 405.6875 C 349.609375 405.6875 351.519531 407.308594 351.980469 409.460938 C 352.046875 409.140625 352.085938 408.8125 352.085938 408.46875 L 352.085938 407.476562 C 352.085938 404.84375 349.949219 402.707031 347.320312 402.707031 " fill-opacity="1" fill-rule="nonzero"/><g clip-path="url(#cee022637a)"><path fill="#ffffff" d="M 330.574219 186.832031 C 333.15625 190.390625 338.535156 200.691406 330.53125 210.984375 C 321 223.25 294.851562 221.523438 294.859375 196.65625 L 294.859375 191.894531 C 302.617188 174.339844 323.398438 175.542969 330.574219 186.832031 Z M 376.609375 33.054688 C 347.898438 2.453125 273.054688 0.507812 255.605469 54.777344 C 251.609375 67.203125 251.707031 80.828125 251.707031 80.828125 L 285.410156 80.339844 C 287.765625 58.648438 299.25 43.875 322.792969 47.308594 C 336.484375 49.304688 348.363281 60.117188 342.976562 73.832031 C 337.804688 86.992188 322.082031 83.375 306.566406 102.441406 C 293.070312 119.023438 297.21875 154.035156 297.625 165.453125 L 328.535156 166.28125 C 328.925781 157.132812 330.273438 142.285156 333.574219 130.628906 C 337.679688 116.128906 355.558594 110.34375 367.152344 105.039062 C 393.710938 92.894531 401.320312 59.394531 376.609375 33.054688 Z M 376.609375 33.054688 " fill-opacity="1" fill-rule="nonzero"/></g><g clip-path="url(#79ab1ad1f1)"><path fill="#141313" d="M 337.210938 191.671875 C 338.261719 194.777344 338.816406 198.171875 338.546875 201.613281 C 338.300781 205.050781 337.175781 208.4375 335.464844 211.355469 L 334.800781 212.429688 L 334.089844 213.460938 C 333.851562 213.804688 333.546875 214.152344 333.277344 214.496094 L 332.855469 215.011719 C 332.707031 215.179688 332.550781 215.332031 332.402344 215.492188 C 331.207031 216.804688 329.816406 217.886719 328.367188 218.835938 L 327.257812 219.511719 C 326.882812 219.71875 326.496094 219.90625 326.109375 220.101562 C 325.917969 220.195312 325.726562 220.296875 325.53125 220.382812 L 324.9375 220.628906 C 324.542969 220.785156 324.148438 220.960938 323.746094 221.09375 C 322.136719 221.65625 320.476562 222.023438 318.804688 222.226562 C 314.941406 222.625 311.015625 222.453125 307.261719 221.265625 C 305.398438 220.675781 303.566406 219.878906 301.917969 218.773438 C 300.269531 217.679688 298.765625 216.351562 297.539062 214.816406 C 296.980469 214.082031 296.210938 213.128906 295.472656 211.914062 C 295.269531 211.621094 295.097656 211.296875 294.921875 210.964844 C 294.75 210.632812 294.566406 210.289062 294.382812 209.9375 C 294.203125 209.582031 294.0625 209.203125 293.898438 208.828125 C 293.75 208.445312 293.566406 208.0625 293.445312 207.65625 C 293.320312 207.253906 293.195312 206.84375 293.066406 206.429688 C 293.007812 206.222656 292.941406 206.015625 292.886719 205.804688 C 292.84375 205.589844 292.800781 205.378906 292.753906 205.164062 C 292.671875 204.734375 292.589844 204.304688 292.503906 203.867188 C 292.433594 203.433594 292.40625 202.996094 292.363281 202.554688 C 292.328125 202.117188 292.273438 201.679688 292.273438 201.242188 C 292.273438 200.804688 292.277344 200.371094 292.289062 199.9375 C 292.289062 199.074219 292.421875 198.230469 292.542969 197.410156 C 292.597656 197.054688 292.527344 196.667969 293.417969 196.65625 C 294.382812 196.644531 294.742188 197.015625 294.824219 197.414062 C 294.960938 198.027344 295.058594 198.636719 295.222656 199.234375 C 295.378906 199.832031 295.515625 200.429688 295.617188 201.023438 C 296.015625 202.890625 296.570312 204.710938 297.335938 206.417969 C 298.128906 208.113281 299.148438 209.679688 300.375 211.035156 C 302.824219 213.761719 306.164062 215.53125 309.679688 216.128906 C 313.378906 216.765625 317.226562 216.398438 320.660156 215.085938 C 322.371094 214.433594 323.972656 213.535156 325.355469 212.421875 L 325.871094 212.003906 L 326.347656 211.546875 C 326.503906 211.394531 326.671875 211.253906 326.820312 211.089844 L 327.246094 210.597656 C 327.546875 210.285156 327.789062 209.925781 328.039062 209.582031 C 328.296875 209.253906 328.527344 208.84375 328.765625 208.46875 C 330.785156 205.078125 331.597656 201.410156 331.050781 197.792969 C 330.789062 195.988281 330.214844 194.191406 329.382812 192.496094 C 328.972656 191.652344 328.492188 190.832031 327.96875 190.066406 C 327.839844 189.878906 327.707031 189.691406 327.570312 189.515625 L 327.082031 188.871094 L 326.652344 188.300781 C 326.507812 188.121094 326.363281 187.984375 326.222656 187.820312 C 324.527344 185.976562 322.253906 184.613281 319.765625 183.8125 C 317.28125 183.011719 314.59375 182.769531 311.984375 183.070312 C 310.878906 183.191406 309.34375 183.382812 307.675781 183.871094 C 306.007812 184.347656 304.207031 185.132812 302.597656 186.167969 C 300.984375 187.191406 299.578125 188.457031 298.550781 189.539062 C 298.277344 189.800781 298.042969 190.0625 297.835938 190.300781 C 297.617188 190.539062 297.417969 190.753906 297.246094 190.941406 C 296.902344 191.320312 296.667969 191.597656 296.519531 191.707031 C 296.210938 191.945312 295.867188 192.445312 294.828125 191.867188 C 293.882812 191.339844 293.957031 190.679688 294.085938 190.21875 L 294.269531 189.601562 L 294.5 188.996094 C 294.660156 188.597656 294.8125 188.1875 294.996094 187.792969 C 295.382812 187.015625 295.777344 186.230469 296.273438 185.5 C 299.042969 181.109375 303.664062 177.628906 308.941406 176.246094 C 314.207031 174.808594 319.976562 175.3125 325.015625 177.691406 C 326.457031 178.363281 327.847656 179.175781 329.136719 180.164062 C 330.429688 181.144531 331.640625 182.265625 332.6875 183.554688 C 332.941406 183.867188 333.15625 184.171875 333.390625 184.484375 L 333.714844 184.917969 L 333.863281 185.109375 L 334.039062 185.355469 C 334.503906 186.007812 334.925781 186.671875 335.3125 187.355469 C 336.089844 188.722656 336.734375 190.160156 337.210938 191.671875 Z M 395.9375 79.066406 C 395.378906 81.65625 394.5 84.167969 393.484375 86.617188 L 392.664062 88.433594 C 392.390625 89.039062 392.058594 89.617188 391.753906 90.207031 C 391.160156 91.398438 390.417969 92.507812 389.730469 93.644531 C 386.777344 98.070312 383.101562 102.035156 378.847656 105.199219 C 376.746094 106.820312 374.480469 108.191406 372.164062 109.445312 C 371 110.023438 369.769531 110.660156 368.695312 111.125 C 367.601562 111.617188 366.507812 112.09375 365.441406 112.554688 C 361.164062 114.402344 357.070312 116.140625 353.300781 118.136719 C 351.703125 118.980469 349.847656 119.988281 347.960938 121.210938 C 347.015625 121.820312 346.058594 122.484375 345.144531 123.214844 C 344.222656 123.9375 343.3125 124.71875 342.492188 125.574219 C 340.835938 127.277344 339.433594 129.234375 338.523438 131.484375 L 338.347656 131.90625 C 338.289062 132.050781 338.226562 132.25 338.167969 132.417969 L 337.804688 133.46875 C 337.550781 134.167969 337.339844 134.890625 337.109375 135.597656 C 336.660156 137.027344 336.238281 138.464844 335.847656 139.898438 C 334.28125 145.632812 333.117188 151.203125 332.28125 155.539062 C 331.4375 159.878906 330.902344 162.996094 330.621094 163.933594 C 330.316406 164.933594 330.117188 166.628906 328.476562 166.238281 C 328.21875 166.175781 327.996094 166.070312 327.808594 165.9375 C 327.523438 166.078125 327.179688 166.148438 326.828125 166.167969 C 324.054688 166.328125 321.28125 166.523438 318.503906 166.527344 L 308.039062 166.519531 L 302.808594 166.507812 L 299.792969 166.488281 L 298.207031 166.476562 L 297.410156 166.472656 L 297.007812 166.46875 L 296.707031 166.46875 C 296.675781 166.460938 296.625 166.480469 296.625 166.449219 C 296.53125 164.898438 296.414062 163.320312 296.292969 161.726562 L 295.953125 157.671875 C 295.738281 155.0625 295.539062 152.441406 295.382812 149.816406 C 295.078125 144.566406 294.914062 139.289062 295.074219 133.980469 C 295.210938 129.320312 295.632812 124.636719 296.519531 119.976562 C 296.980469 117.648438 297.515625 115.320312 298.253906 113.027344 C 298.992188 110.734375 299.882812 108.46875 300.984375 106.265625 L 301.871094 104.636719 C 302.171875 104.097656 302.523438 103.578125 302.847656 103.046875 C 303.164062 102.511719 303.554688 102.011719 303.917969 101.5 L 304.476562 100.738281 L 305.042969 100.039062 C 306.539062 98.160156 308.160156 96.367188 309.898438 94.675781 C 313.351562 91.277344 317.320312 88.332031 321.46875 85.886719 C 323.746094 84.527344 326.066406 83.339844 328.296875 82.183594 C 329.40625 81.605469 330.492188 81.035156 331.519531 80.457031 C 332.542969 79.871094 333.507812 79.273438 334.382812 78.648438 C 336.132812 77.386719 337.449219 76.007812 338.371094 74.347656 C 338.503906 74.152344 338.59375 73.925781 338.703125 73.710938 C 338.808594 73.496094 338.921875 73.285156 339.003906 73.050781 L 339.28125 72.363281 L 339.519531 71.636719 C 339.816406 70.664062 340.046875 69.691406 340.128906 68.734375 C 340.214844 67.773438 340.226562 66.824219 340.097656 65.902344 C 339.96875 64.976562 339.738281 64.074219 339.402344 63.199219 C 338.734375 61.445312 337.613281 59.820312 336.203125 58.378906 C 333.355469 55.496094 329.339844 53.46875 325.140625 52.46875 C 324.359375 52.289062 323.574219 52.128906 322.78125 52.019531 L 322.183594 51.933594 C 321.984375 51.90625 321.765625 51.886719 321.554688 51.867188 L 320.289062 51.734375 C 318.609375 51.621094 316.933594 51.53125 315.300781 51.636719 C 312.03125 51.773438 308.917969 52.4375 306.117188 53.621094 C 303.332031 54.839844 300.871094 56.601562 298.796875 58.867188 C 296.746094 61.148438 295.039062 63.871094 293.738281 66.898438 C 293.046875 68.476562 292.257812 70.484375 291.539062 72.839844 C 291.347656 73.425781 291.179688 74.039062 291.011719 74.667969 C 290.828125 75.292969 290.679688 75.945312 290.515625 76.605469 L 290.457031 76.855469 L 290.410156 77.042969 C 290.410156 77.03125 290.386719 77.175781 290.378906 77.21875 C 290.320312 77.566406 290.261719 77.917969 290.203125 78.265625 C 290.085938 78.960938 289.972656 79.660156 289.851562 80.359375 C 289.636719 81.738281 289.417969 83.132812 289.195312 84.539062 C 287.589844 84.511719 285.964844 84.484375 284.332031 84.453125 C 283.535156 84.4375 282.738281 84.421875 281.941406 84.40625 L 281.347656 84.390625 L 281.105469 84.386719 L 280.941406 84.375 L 280.285156 84.34375 C 278.527344 84.246094 276.773438 84.148438 275.046875 84.054688 C 271.589844 83.855469 268.25 83.644531 265.269531 83.433594 C 259.316406 83.019531 254.804688 82.621094 253.722656 82.382812 C 252.890625 82.199219 251.496094 82.113281 251.738281 80.78125 C 251.800781 80.449219 251.945312 80.1875 252.144531 79.984375 C 251.949219 79.621094 251.855469 79.179688 251.832031 78.722656 C 251.660156 75.304688 251.625 71.847656 251.976562 68.421875 C 252.566406 63.035156 253.5625 57.652344 255.289062 52.445312 C 256.15625 49.847656 257.160156 47.289062 258.347656 44.804688 C 259.546875 42.332031 260.90625 39.925781 262.425781 37.617188 C 265.453125 32.988281 269.203125 28.816406 273.421875 25.1875 C 277.644531 21.546875 282.394531 18.527344 287.410156 16.0625 C 292.710938 13.46875 298.355469 11.578125 304.132812 10.351562 C 309.910156 9.121094 315.816406 8.523438 321.722656 8.476562 C 327.628906 8.433594 333.542969 8.953125 339.375 10 C 345.210938 11.050781 350.96875 12.621094 356.566406 14.765625 C 362.710938 17.132812 368.65625 20.265625 374.019531 24.390625 C 374.683594 24.914062 375.355469 25.425781 376 25.980469 L 376.972656 26.804688 L 377.917969 27.664062 C 378.558594 28.226562 379.160156 28.835938 379.769531 29.4375 C 380.386719 30.035156 380.925781 30.660156 381.507812 31.269531 C 382.671875 32.472656 383.714844 33.804688 384.804688 35.089844 C 385.8125 36.445312 386.867188 37.769531 387.785156 39.207031 C 388.757812 40.597656 389.601562 42.085938 390.464844 43.5625 L 391.652344 45.839844 C 392.050781 46.601562 392.375 47.402344 392.738281 48.183594 C 394.117188 51.339844 395.226562 54.640625 395.988281 58.050781 C 397.488281 64.871094 397.546875 72.113281 395.9375 79.066406 Z M 384.308594 55.269531 C 382.070312 48.632812 378.109375 42.511719 373.109375 37.316406 C 368.277344 32.203125 362.183594 28.253906 355.605469 25.25 C 352.300781 23.769531 348.890625 22.488281 345.386719 21.46875 C 343.640625 20.9375 341.867188 20.503906 340.089844 20.078125 C 338.304688 19.6875 336.511719 19.308594 334.707031 19.019531 C 327.484375 17.808594 320.117188 17.433594 312.808594 17.859375 C 304.355469 18.363281 296.023438 20.5 288.535156 24.148438 C 281.035156 27.789062 274.433594 32.953125 269.125 39.300781 C 267.875 40.796875 266.328125 42.902344 264.792969 45.554688 C 263.257812 48.203125 261.738281 51.394531 260.421875 54.960938 C 259.734375 56.734375 259.179688 58.597656 258.609375 60.535156 C 258.085938 62.488281 257.574219 64.496094 257.140625 66.546875 C 256.265625 70.648438 255.554688 74.890625 254.996094 78.964844 C 254.988281 79.019531 254.980469 79.078125 254.976562 79.132812 C 258.371094 78.789062 261.777344 78.539062 265.183594 78.34375 C 268.550781 78.148438 271.921875 77.96875 275.289062 77.808594 L 280.347656 77.574219 L 280.976562 77.546875 C 281.113281 77.539062 281.109375 77.539062 281.167969 77.535156 L 281.300781 77.523438 L 281.824219 77.480469 C 282.160156 77.445312 282.511719 77.4375 282.804688 77.382812 C 282.832031 76.992188 282.847656 76.617188 282.882812 76.253906 L 282.9375 75.710938 L 283.167969 74.289062 C 283.503906 72.394531 283.894531 70.5 284.4375 68.625 C 285.480469 64.871094 286.992188 61.167969 289.113281 57.71875 C 291.257812 54.296875 294.035156 51.105469 297.480469 48.707031 C 299.1875 47.5 301.03125 46.476562 302.953125 45.652344 C 304.875 44.828125 306.878906 44.246094 308.890625 43.816406 C 312.246094 43.128906 315.640625 42.898438 318.957031 43.042969 C 319.78125 43.097656 320.617188 43.121094 321.4375 43.207031 L 322.664062 43.332031 C 323.074219 43.375 323.484375 43.417969 323.914062 43.488281 C 325.613281 43.726562 327.296875 44.082031 328.953125 44.570312 C 332.253906 45.550781 335.453125 47.007812 338.367188 49.039062 C 341.269531 51.070312 343.910156 53.710938 345.769531 57.003906 C 346.742188 58.703125 347.503906 60.566406 347.976562 62.511719 C 348.453125 64.460938 348.628906 66.488281 348.519531 68.46875 C 348.410156 70.457031 348.019531 72.390625 347.433594 74.214844 C 346.863281 76.015625 346.039062 77.875 344.914062 79.570312 C 343.796875 81.277344 342.386719 82.796875 340.894531 84.050781 C 339.394531 85.3125 337.832031 86.324219 336.3125 87.207031 C 333.265625 88.957031 330.386719 90.265625 327.714844 91.699219 C 325.035156 93.109375 322.546875 94.597656 320.222656 96.296875 C 317.890625 97.976562 315.742188 99.867188 313.726562 101.929688 C 313.214844 102.4375 312.730469 102.972656 312.242188 103.507812 C 311.746094 104.03125 311.289062 104.601562 310.8125 105.152344 L 310.457031 105.566406 L 310.15625 105.957031 L 309.558594 106.730469 C 309.171875 107.261719 308.8125 107.824219 308.4375 108.378906 C 307.015625 110.664062 305.835938 113.230469 304.847656 115.9375 C 303.699219 119.074219 302.898438 122.425781 302.347656 125.855469 C 301.789062 129.285156 301.449219 132.789062 301.265625 136.324219 C 300.890625 143.402344 301.074219 150.558594 301.214844 157.8125 C 301.226562 158.277344 301.242188 158.777344 301.257812 159.320312 C 301.265625 159.589844 301.277344 159.871094 301.285156 160.164062 C 301.292969 160.308594 301.296875 160.457031 301.304688 160.609375 C 301.304688 160.65625 301.304688 160.65625 301.304688 160.664062 L 301.304688 160.738281 C 301.300781 161.023438 301.296875 161.34375 301.292969 161.695312 C 301.5 161.722656 301.742188 161.734375 301.996094 161.757812 L 302.1875 161.777344 L 302.339844 161.789062 L 302.515625 161.796875 C 303.082031 161.820312 303.65625 161.847656 304.242188 161.871094 C 306.582031 161.976562 309.054688 162.101562 311.59375 162.253906 C 316.585938 162.554688 321.824219 162.96875 326.765625 163.589844 C 326.746094 163.363281 326.734375 163.144531 326.726562 162.933594 C 326.59375 158.40625 326.742188 153.859375 327.109375 149.320312 C 327.382812 145.976562 327.753906 142.628906 328.261719 139.285156 L 328.667969 136.773438 L 329.136719 134.261719 C 329.3125 133.425781 329.480469 132.589844 329.667969 131.753906 L 329.964844 130.5 C 330.070312 130.074219 330.152344 129.679688 330.296875 129.199219 C 330.808594 127.347656 331.53125 125.539062 332.460938 123.855469 C 333.378906 122.171875 334.480469 120.601562 335.691406 119.164062 C 338.125 116.285156 340.972656 113.921875 343.925781 111.925781 C 349.847656 107.925781 356.199219 105.199219 362.191406 102.5 C 365.257812 101.136719 367.847656 99.871094 370.347656 98.210938 C 372.832031 96.574219 375.113281 94.664062 377.121094 92.515625 C 381.699219 87.613281 384.769531 81.4375 385.878906 74.929688 C 387.03125 68.417969 386.394531 61.660156 384.308594 55.269531 Z M 384.308594 55.269531 " fill-opacity="1" fill-rule="nonzero"/></g><g clip-path="url(#d695f5aa53)"><path fill="#ffffff" d="M 403.378906 257.386719 C 404.875 259.449219 407.996094 265.429688 403.355469 271.40625 C 397.824219 278.527344 382.65625 277.523438 382.664062 263.089844 L 382.664062 260.324219 C 387.164062 250.132812 399.21875 250.832031 403.378906 257.386719 Z M 430.078125 168.117188 C 413.425781 150.355469 370.015625 149.226562 359.894531 180.730469 C 357.578125 187.941406 357.636719 195.851562 357.636719 195.851562 L 377.183594 195.566406 C 378.550781 182.976562 385.210938 174.398438 398.863281 176.394531 C 406.804688 177.550781 413.695312 183.828125 410.570312 191.789062 C 407.570312 199.429688 398.453125 197.332031 389.453125 208.398438 C 381.625 218.023438 384.03125 238.347656 384.269531 244.976562 L 402.195312 245.457031 C 402.421875 240.148438 403.203125 231.527344 405.117188 224.761719 C 407.5 216.34375 417.871094 212.984375 424.59375 209.90625 C 439.996094 202.855469 444.410156 183.410156 430.078125 168.117188 Z M 430.078125 168.117188 " fill-opacity="1" fill-rule="nonzero"/></g><g clip-path="url(#32def33b0f)"><path fill="#141313" d="M 407.226562 260.195312 C 407.835938 261.996094 408.160156 263.96875 408 265.964844 C 407.859375 267.960938 407.207031 269.929688 406.214844 271.621094 L 405.832031 272.246094 L 405.417969 272.84375 C 405.277344 273.042969 405.101562 273.246094 404.945312 273.445312 L 404.699219 273.742188 C 404.617188 273.839844 404.523438 273.929688 404.4375 274.023438 C 403.746094 274.785156 402.9375 275.414062 402.097656 275.964844 L 401.457031 276.355469 C 401.234375 276.476562 401.011719 276.585938 400.789062 276.699219 C 400.675781 276.753906 400.566406 276.8125 400.453125 276.859375 L 400.109375 277.003906 C 399.878906 277.09375 399.652344 277.195312 399.417969 277.273438 C 398.484375 277.601562 397.519531 277.8125 396.550781 277.929688 C 394.3125 278.164062 392.035156 278.0625 389.859375 277.375 C 388.773438 277.03125 387.714844 276.570312 386.757812 275.925781 C 385.800781 275.292969 384.929688 274.523438 384.21875 273.632812 C 383.894531 273.203125 383.449219 272.648438 383.019531 271.945312 C 382.902344 271.773438 382.800781 271.585938 382.699219 271.394531 C 382.597656 271.199219 382.496094 271 382.386719 270.796875 C 382.28125 270.59375 382.203125 270.371094 382.105469 270.152344 C 382.019531 269.929688 381.914062 269.710938 381.84375 269.476562 C 381.769531 269.242188 381.699219 269.003906 381.625 268.761719 C 381.589844 268.640625 381.550781 268.519531 381.519531 268.398438 C 381.496094 268.273438 381.46875 268.152344 381.441406 268.027344 C 381.394531 267.777344 381.347656 267.527344 381.296875 267.273438 C 381.257812 267.023438 381.242188 266.769531 381.214844 266.511719 C 381.195312 266.257812 381.164062 266.003906 381.164062 265.75 C 381.164062 265.496094 381.167969 265.246094 381.171875 264.996094 C 381.171875 264.492188 381.25 264.003906 381.320312 263.527344 C 381.351562 263.320312 381.308594 263.09375 381.828125 263.089844 C 382.386719 263.082031 382.597656 263.296875 382.644531 263.527344 C 382.722656 263.882812 382.78125 264.238281 382.875 264.585938 C 382.964844 264.933594 383.042969 265.277344 383.101562 265.625 C 383.335938 266.707031 383.65625 267.761719 384.101562 268.753906 C 384.5625 269.738281 385.152344 270.648438 385.863281 271.4375 C 387.28125 273.019531 389.222656 274.042969 391.257812 274.390625 C 393.40625 274.761719 395.636719 274.546875 397.628906 273.789062 C 398.621094 273.40625 399.550781 272.886719 400.351562 272.242188 L 400.652344 272 L 400.925781 271.734375 C 401.019531 271.644531 401.117188 271.5625 401.199219 271.46875 L 401.449219 271.183594 C 401.621094 271 401.761719 270.792969 401.910156 270.589844 C 402.058594 270.402344 402.191406 270.164062 402.328125 269.945312 C 403.5 267.976562 403.972656 265.847656 403.652344 263.75 C 403.503906 262.699219 403.167969 261.65625 402.6875 260.675781 C 402.449219 260.183594 402.171875 259.707031 401.867188 259.265625 C 401.792969 259.15625 401.714844 259.046875 401.636719 258.941406 L 401.355469 258.570312 L 401.101562 258.238281 C 401.019531 258.132812 400.9375 258.054688 400.855469 257.960938 C 399.871094 256.890625 398.550781 256.097656 397.109375 255.632812 C 395.667969 255.167969 394.109375 255.027344 392.597656 255.203125 C 391.953125 255.273438 391.066406 255.382812 390.097656 255.667969 C 389.128906 255.945312 388.085938 256.398438 387.152344 257 C 386.214844 257.59375 385.402344 258.328125 384.804688 258.957031 C 384.644531 259.109375 384.511719 259.261719 384.390625 259.402344 C 384.261719 259.539062 384.148438 259.664062 384.046875 259.769531 C 383.847656 259.988281 383.714844 260.152344 383.625 260.214844 C 383.445312 260.355469 383.25 260.644531 382.644531 260.308594 C 382.097656 260.003906 382.140625 259.621094 382.214844 259.351562 L 382.320312 258.992188 L 382.453125 258.644531 C 382.546875 258.410156 382.636719 258.171875 382.742188 257.945312 C 382.96875 257.492188 383.195312 257.039062 383.484375 256.613281 C 385.089844 254.0625 387.769531 252.042969 390.832031 251.242188 C 393.882812 250.40625 397.230469 250.699219 400.15625 252.078125 C 400.988281 252.46875 401.796875 252.941406 402.542969 253.515625 C 403.292969 254.082031 403.996094 254.734375 404.605469 255.484375 C 404.75 255.664062 404.875 255.84375 405.011719 256.023438 L 405.199219 256.273438 L 405.285156 256.386719 L 405.386719 256.527344 C 405.65625 256.90625 405.902344 257.292969 406.125 257.691406 C 406.578125 258.484375 406.949219 259.320312 407.226562 260.195312 Z M 441.289062 194.828125 C 440.964844 196.332031 440.453125 197.789062 439.867188 199.214844 L 439.390625 200.265625 C 439.234375 200.617188 439.039062 200.953125 438.863281 201.296875 C 438.515625 201.988281 438.085938 202.628906 437.6875 203.292969 C 435.976562 205.859375 433.84375 208.160156 431.375 209.996094 C 430.160156 210.941406 428.84375 211.734375 427.5 212.464844 C 426.824219 212.800781 426.109375 213.167969 425.488281 213.4375 C 424.851562 213.722656 424.21875 214 423.601562 214.269531 C 421.121094 215.339844 418.746094 216.351562 416.558594 217.507812 C 415.632812 217.996094 414.558594 218.582031 413.460938 219.292969 C 412.914062 219.648438 412.359375 220.03125 411.828125 220.457031 C 411.292969 220.878906 410.765625 221.328125 410.292969 221.828125 C 409.328125 222.816406 408.515625 223.949219 407.988281 225.257812 L 407.886719 225.503906 C 407.851562 225.585938 407.816406 225.699219 407.78125 225.796875 L 407.570312 226.410156 C 407.425781 226.8125 407.304688 227.234375 407.167969 227.644531 C 406.90625 228.472656 406.664062 229.308594 406.4375 230.140625 C 405.527344 233.46875 404.851562 236.703125 404.367188 239.21875 C 403.878906 241.738281 403.570312 243.550781 403.40625 244.09375 C 403.230469 244.675781 403.113281 245.65625 402.160156 245.429688 C 402.011719 245.394531 401.882812 245.335938 401.773438 245.257812 C 401.609375 245.335938 401.410156 245.378906 401.207031 245.390625 C 399.597656 245.484375 397.988281 245.597656 396.378906 245.597656 L 390.308594 245.59375 L 387.273438 245.585938 L 385.523438 245.578125 L 384.605469 245.570312 L 384.140625 245.566406 L 383.910156 245.566406 L 383.792969 245.5625 L 383.734375 245.5625 C 383.71875 245.5625 383.6875 245.570312 383.6875 245.554688 C 383.632812 244.652344 383.566406 243.738281 383.496094 242.8125 L 383.296875 240.457031 C 383.171875 238.941406 383.058594 237.421875 382.96875 235.898438 C 382.789062 232.851562 382.695312 229.785156 382.789062 226.707031 C 382.867188 224 383.109375 221.28125 383.625 218.574219 C 383.894531 217.226562 384.203125 215.875 384.632812 214.542969 C 385.0625 213.210938 385.578125 211.894531 386.214844 210.617188 L 386.730469 209.671875 C 386.902344 209.359375 387.109375 209.058594 387.296875 208.75 C 387.480469 208.4375 387.707031 208.148438 387.917969 207.851562 L 388.242188 207.410156 L 388.570312 207.003906 C 389.4375 205.914062 390.378906 204.871094 391.386719 203.890625 C 393.390625 201.917969 395.691406 200.207031 398.097656 198.789062 C 399.417969 198 400.765625 197.308594 402.058594 196.636719 C 402.699219 196.304688 403.328125 195.972656 403.925781 195.636719 C 404.519531 195.296875 405.078125 194.949219 405.589844 194.585938 C 406.601562 193.851562 407.367188 193.054688 407.902344 192.089844 C 407.976562 191.976562 408.027344 191.84375 408.09375 191.71875 C 408.15625 191.59375 408.21875 191.472656 408.269531 191.335938 L 408.429688 190.9375 L 408.566406 190.515625 C 408.738281 189.953125 408.875 189.386719 408.917969 188.832031 C 408.96875 188.273438 408.976562 187.722656 408.902344 187.1875 C 408.828125 186.648438 408.691406 186.125 408.5 185.617188 C 408.109375 184.601562 407.460938 183.65625 406.644531 182.820312 C 404.992188 181.148438 402.664062 179.96875 400.226562 179.390625 C 399.773438 179.285156 399.316406 179.191406 398.855469 179.128906 L 398.511719 179.078125 C 398.394531 179.0625 398.269531 179.050781 398.148438 179.039062 L 397.414062 178.964844 C 396.4375 178.898438 395.464844 178.847656 394.519531 178.90625 C 392.621094 178.984375 390.816406 179.371094 389.191406 180.058594 C 387.578125 180.765625 386.148438 181.789062 384.949219 183.101562 C 383.757812 184.429688 382.769531 186.007812 382.011719 187.765625 C 381.613281 188.683594 381.152344 189.847656 380.738281 191.214844 C 380.628906 191.554688 380.527344 191.910156 380.429688 192.277344 C 380.324219 192.636719 380.238281 193.015625 380.144531 193.402344 L 380.109375 193.546875 L 380.089844 193.617188 L 380.082031 193.65625 C 380.082031 193.648438 380.070312 193.730469 380.0625 193.757812 C 380.03125 193.957031 379.996094 194.160156 379.964844 194.363281 C 379.894531 194.765625 379.828125 195.171875 379.761719 195.582031 C 379.632812 196.378906 379.507812 197.1875 379.378906 198.003906 C 378.445312 197.988281 377.503906 197.972656 376.558594 197.957031 C 376.097656 197.945312 375.632812 197.9375 375.171875 197.929688 L 374.828125 197.921875 L 374.6875 197.917969 L 374.589844 197.910156 L 374.210938 197.890625 C 373.191406 197.835938 372.171875 197.78125 371.171875 197.726562 C 369.167969 197.609375 367.230469 197.484375 365.503906 197.363281 C 362.046875 197.125 359.433594 196.894531 358.804688 196.753906 C 358.320312 196.648438 357.511719 196.597656 357.652344 195.824219 C 357.6875 195.632812 357.773438 195.480469 357.890625 195.359375 C 357.777344 195.152344 357.71875 194.894531 357.707031 194.628906 C 357.605469 192.644531 357.585938 190.640625 357.792969 188.648438 C 358.132812 185.523438 358.710938 182.398438 359.710938 179.375 C 360.214844 177.867188 360.796875 176.382812 361.484375 174.941406 C 362.183594 173.503906 362.96875 172.105469 363.851562 170.765625 C 365.609375 168.082031 367.78125 165.660156 370.230469 163.550781 C 372.679688 161.441406 375.433594 159.6875 378.34375 158.257812 C 381.417969 156.75 384.691406 155.652344 388.042969 154.941406 C 391.394531 154.226562 394.816406 153.878906 398.242188 153.851562 C 401.667969 153.828125 405.097656 154.128906 408.484375 154.738281 C 411.867188 155.347656 415.207031 156.257812 418.453125 157.503906 C 422.015625 158.878906 425.464844 160.695312 428.574219 163.089844 C 428.960938 163.394531 429.351562 163.691406 429.726562 164.015625 L 430.289062 164.492188 L 430.839844 164.988281 C 431.207031 165.316406 431.558594 165.671875 431.914062 166.019531 C 432.269531 166.367188 432.582031 166.730469 432.917969 167.082031 C 433.59375 167.78125 434.199219 168.554688 434.832031 169.300781 C 435.417969 170.089844 436.027344 170.855469 436.558594 171.691406 C 437.125 172.5 437.613281 173.363281 438.113281 174.21875 L 438.804688 175.542969 C 439.035156 175.984375 439.222656 176.449219 439.433594 176.902344 C 440.234375 178.734375 440.875 180.652344 441.316406 182.628906 C 442.1875 186.589844 442.222656 190.792969 441.289062 194.828125 Z M 434.542969 181.015625 C 433.246094 177.160156 430.949219 173.609375 428.046875 170.59375 C 425.246094 167.625 421.710938 165.332031 417.894531 163.589844 C 415.980469 162.730469 414 161.988281 411.96875 161.394531 C 410.957031 161.085938 409.925781 160.835938 408.898438 160.585938 C 407.859375 160.359375 406.824219 160.140625 405.773438 159.972656 C 401.585938 159.269531 397.3125 159.050781 393.074219 159.296875 C 388.171875 159.589844 383.339844 160.832031 378.996094 162.949219 C 374.644531 165.0625 370.816406 168.058594 367.738281 171.746094 C 367.011719 172.613281 366.113281 173.835938 365.226562 175.375 C 364.332031 176.914062 363.453125 178.765625 362.691406 180.835938 C 362.292969 181.867188 361.96875 182.949219 361.640625 184.074219 C 361.335938 185.207031 361.039062 186.371094 360.789062 187.5625 C 360.277344 189.941406 359.867188 192.40625 359.542969 194.769531 C 359.539062 194.800781 359.535156 194.835938 359.53125 194.867188 C 361.5 194.667969 363.476562 194.523438 365.453125 194.410156 C 367.40625 194.296875 369.359375 194.191406 371.3125 194.097656 L 374.246094 193.960938 L 374.613281 193.945312 C 374.691406 193.941406 374.6875 193.941406 374.722656 193.9375 L 374.800781 193.933594 L 375.101562 193.90625 C 375.296875 193.886719 375.5 193.882812 375.671875 193.851562 C 375.6875 193.625 375.695312 193.40625 375.71875 193.199219 L 375.746094 192.882812 L 375.882812 192.054688 C 376.078125 190.957031 376.304688 189.855469 376.617188 188.765625 C 377.222656 186.589844 378.101562 184.441406 379.332031 182.4375 C 380.574219 180.449219 382.1875 178.597656 384.183594 177.203125 C 385.175781 176.503906 386.242188 175.910156 387.359375 175.433594 C 388.472656 174.953125 389.632812 174.617188 390.800781 174.367188 C 392.746094 173.96875 394.714844 173.832031 396.640625 173.917969 C 397.117188 173.949219 397.601562 173.964844 398.078125 174.011719 L 398.792969 174.085938 C 399.027344 174.109375 399.265625 174.136719 399.515625 174.175781 C 400.5 174.316406 401.476562 174.523438 402.4375 174.804688 C 404.351562 175.375 406.207031 176.21875 407.898438 177.398438 C 409.582031 178.578125 411.113281 180.109375 412.191406 182.023438 C 412.753906 183.007812 413.199219 184.089844 413.472656 185.21875 C 413.746094 186.351562 413.851562 187.527344 413.785156 188.679688 C 413.722656 189.832031 413.496094 190.953125 413.15625 192.011719 C 412.824219 193.058594 412.347656 194.136719 411.695312 195.121094 C 411.046875 196.113281 410.230469 196.996094 409.363281 197.722656 C 408.496094 198.453125 407.585938 199.042969 406.707031 199.554688 C 404.9375 200.570312 403.269531 201.332031 401.71875 202.160156 C 400.167969 202.980469 398.722656 203.84375 397.375 204.828125 C 396.023438 205.804688 394.773438 206.902344 393.605469 208.101562 C 393.308594 208.394531 393.027344 208.707031 392.746094 209.019531 C 392.457031 209.320312 392.191406 209.652344 391.914062 209.972656 L 391.710938 210.210938 L 391.535156 210.4375 L 391.1875 210.886719 C 390.964844 211.195312 390.753906 211.523438 390.539062 211.84375 C 389.714844 213.171875 389.03125 214.660156 388.457031 216.234375 C 387.789062 218.050781 387.328125 220 387.003906 221.988281 C 386.683594 223.980469 386.488281 226.015625 386.378906 228.066406 C 386.164062 232.175781 386.269531 236.328125 386.351562 240.542969 C 386.355469 240.808594 386.363281 241.101562 386.375 241.414062 C 386.378906 241.574219 386.386719 241.734375 386.390625 241.90625 C 386.394531 241.988281 386.398438 242.074219 386.402344 242.164062 C 386.402344 242.191406 386.402344 242.191406 386.402344 242.195312 L 386.402344 242.238281 C 386.398438 242.40625 386.398438 242.589844 386.394531 242.792969 C 386.515625 242.808594 386.65625 242.816406 386.800781 242.832031 L 386.914062 242.839844 L 386.972656 242.847656 L 387.003906 242.847656 L 387.105469 242.855469 C 387.433594 242.867188 387.765625 242.882812 388.105469 242.898438 C 389.460938 242.957031 390.898438 243.027344 392.367188 243.117188 C 395.265625 243.292969 398.304688 243.535156 401.167969 243.894531 C 401.15625 243.761719 401.148438 243.632812 401.148438 243.511719 C 401.070312 240.882812 401.15625 238.246094 401.367188 235.609375 C 401.527344 233.667969 401.742188 231.726562 402.035156 229.785156 L 402.273438 228.328125 L 402.542969 226.871094 C 402.644531 226.382812 402.742188 225.898438 402.851562 225.414062 L 403.023438 224.683594 C 403.085938 224.4375 403.132812 224.210938 403.21875 223.929688 C 403.515625 222.855469 403.933594 221.804688 404.472656 220.828125 C 405.007812 219.851562 405.644531 218.9375 406.347656 218.105469 C 407.757812 216.433594 409.410156 215.0625 411.121094 213.902344 C 414.558594 211.582031 418.242188 210 421.714844 208.433594 C 423.496094 207.640625 424.996094 206.90625 426.445312 205.941406 C 427.886719 204.992188 429.210938 203.882812 430.375 202.636719 C 433.03125 199.789062 434.808594 196.207031 435.453125 192.425781 C 436.125 188.648438 435.753906 184.722656 434.542969 181.015625 Z M 434.542969 181.015625 " fill-opacity="1" fill-rule="nonzero"/></g><g clip-path="url(#445cc7f3b0)"><path fill="#ffffff" d="M 249.460938 248.136719 C 250.636719 249.761719 253.082031 254.460938 249.441406 259.160156 C 245.105469 264.757812 233.207031 263.96875 233.210938 252.621094 L 233.210938 250.449219 C 236.742188 242.4375 246.199219 242.984375 249.460938 248.136719 Z M 270.40625 177.957031 C 257.34375 163.992188 223.289062 163.105469 215.351562 187.871094 C 213.53125 193.542969 213.578125 199.761719 213.578125 199.761719 L 228.910156 199.539062 C 229.984375 189.636719 235.210938 182.894531 245.921875 184.460938 C 252.152344 185.375 257.554688 190.308594 255.105469 196.566406 C 252.75 202.574219 245.597656 200.921875 238.539062 209.625 C 232.398438 217.191406 234.285156 233.167969 234.46875 238.378906 L 248.535156 238.757812 C 248.710938 234.582031 249.324219 227.808594 250.828125 222.488281 C 252.695312 215.871094 260.828125 213.230469 266.105469 210.808594 C 278.1875 205.269531 281.652344 189.980469 270.40625 177.957031 Z M 270.40625 177.957031 " fill-opacity="1" fill-rule="nonzero"/></g><g clip-path="url(#a3216986fe)"><path fill="#141313" d="M 252.480469 250.34375 C 252.960938 251.761719 253.210938 253.3125 253.089844 254.882812 C 252.976562 256.449219 252.464844 257.996094 251.6875 259.328125 L 251.386719 259.820312 L 251.0625 260.289062 C 250.953125 260.445312 250.816406 260.605469 250.691406 260.761719 L 250.5 260.996094 C 250.433594 261.074219 250.363281 261.144531 250.292969 261.214844 C 249.75 261.8125 249.117188 262.308594 248.457031 262.742188 L 247.953125 263.050781 C 247.78125 263.144531 247.605469 263.230469 247.429688 263.320312 C 247.34375 263.363281 247.257812 263.40625 247.167969 263.449219 L 246.898438 263.558594 C 246.71875 263.632812 246.539062 263.710938 246.355469 263.773438 C 245.621094 264.027344 244.867188 264.195312 244.105469 264.289062 C 242.347656 264.472656 240.5625 264.390625 238.855469 263.851562 C 238.007812 263.582031 237.175781 263.21875 236.421875 262.714844 C 235.671875 262.214844 234.988281 261.609375 234.429688 260.910156 C 234.175781 260.574219 233.828125 260.136719 233.492188 259.582031 C 233.398438 259.449219 233.320312 259.300781 233.242188 259.148438 C 233.160156 258.996094 233.078125 258.839844 232.996094 258.679688 C 232.914062 258.519531 232.847656 258.347656 232.773438 258.175781 C 232.707031 258 232.625 257.824219 232.566406 257.640625 C 232.511719 257.457031 232.453125 257.269531 232.394531 257.082031 C 232.367188 256.984375 232.339844 256.890625 232.3125 256.792969 C 232.292969 256.699219 232.273438 256.601562 232.253906 256.503906 C 232.214844 256.308594 232.179688 256.109375 232.140625 255.910156 C 232.109375 255.714844 232.09375 255.511719 232.074219 255.3125 C 232.058594 255.113281 232.035156 254.914062 232.035156 254.714844 C 232.035156 254.515625 232.039062 254.316406 232.042969 254.117188 C 232.042969 253.722656 232.101562 253.339844 232.15625 252.964844 C 232.183594 252.800781 232.148438 252.625 232.554688 252.621094 C 232.992188 252.613281 233.160156 252.785156 233.195312 252.964844 C 233.257812 253.246094 233.300781 253.523438 233.375 253.796875 C 233.449219 254.070312 233.511719 254.339844 233.554688 254.613281 C 233.738281 255.464844 233.988281 256.296875 234.339844 257.074219 C 234.699219 257.847656 235.164062 258.5625 235.722656 259.183594 C 236.835938 260.425781 238.355469 261.234375 239.953125 261.507812 C 241.636719 261.796875 243.390625 261.628906 244.949219 261.03125 C 245.730469 260.730469 246.457031 260.324219 247.085938 259.816406 L 247.324219 259.625 L 247.539062 259.417969 C 247.609375 259.347656 247.6875 259.28125 247.753906 259.207031 L 247.949219 258.984375 C 248.085938 258.839844 248.195312 258.675781 248.308594 258.519531 C 248.425781 258.367188 248.53125 258.183594 248.636719 258.011719 C 249.558594 256.464844 249.925781 254.789062 249.679688 253.140625 C 249.558594 252.316406 249.296875 251.496094 248.917969 250.722656 C 248.734375 250.335938 248.515625 249.960938 248.277344 249.613281 C 248.21875 249.527344 248.15625 249.441406 248.09375 249.359375 L 247.875 249.066406 L 247.675781 248.808594 C 247.613281 248.726562 247.546875 248.660156 247.480469 248.589844 C 246.710938 247.746094 245.675781 247.125 244.542969 246.757812 C 243.414062 246.394531 242.191406 246.28125 241.003906 246.421875 C 240.5 246.476562 239.800781 246.5625 239.042969 246.785156 C 238.285156 247.003906 237.464844 247.359375 236.734375 247.832031 C 235.996094 248.300781 235.359375 248.878906 234.890625 249.371094 C 234.765625 249.492188 234.660156 249.609375 234.566406 249.71875 C 234.464844 249.828125 234.375 249.925781 234.296875 250.011719 C 234.140625 250.183594 234.035156 250.3125 233.964844 250.363281 C 233.824219 250.472656 233.671875 250.699219 233.195312 250.433594 C 232.765625 250.195312 232.800781 249.890625 232.859375 249.683594 L 232.941406 249.398438 L 233.046875 249.125 C 233.121094 248.941406 233.191406 248.757812 233.273438 248.574219 C 233.449219 248.222656 233.628906 247.863281 233.855469 247.53125 C 235.113281 245.523438 237.21875 243.9375 239.621094 243.304688 C 242.015625 242.648438 244.640625 242.878906 246.933594 243.964844 C 247.589844 244.273438 248.222656 244.644531 248.808594 245.09375 C 249.394531 245.539062 249.945312 246.054688 250.421875 246.640625 C 250.539062 246.785156 250.636719 246.921875 250.742188 247.066406 L 250.890625 247.261719 L 250.957031 247.351562 L 251.039062 247.460938 C 251.25 247.761719 251.441406 248.0625 251.617188 248.375 C 251.972656 249 252.265625 249.65625 252.480469 250.34375 Z M 279.203125 198.957031 C 278.949219 200.136719 278.546875 201.285156 278.085938 202.402344 L 277.714844 203.230469 C 277.589844 203.507812 277.4375 203.769531 277.296875 204.039062 C 277.027344 204.585938 276.691406 205.089844 276.378906 205.609375 C 275.035156 207.628906 273.363281 209.4375 271.425781 210.882812 C 270.46875 211.621094 269.4375 212.246094 268.386719 212.820312 C 267.855469 213.082031 267.296875 213.375 266.808594 213.585938 C 266.308594 213.8125 265.8125 214.03125 265.328125 214.238281 C 263.378906 215.082031 261.515625 215.875 259.800781 216.785156 C 259.074219 217.171875 258.230469 217.632812 257.371094 218.191406 C 256.941406 218.46875 256.507812 218.769531 256.089844 219.101562 C 255.671875 219.433594 255.257812 219.789062 254.886719 220.179688 C 254.128906 220.957031 253.492188 221.851562 253.078125 222.878906 L 253 223.070312 C 252.972656 223.136719 252.945312 223.226562 252.917969 223.304688 L 252.75 223.785156 C 252.636719 224.101562 252.539062 224.433594 252.433594 224.753906 C 252.230469 225.40625 252.039062 226.0625 251.859375 226.71875 C 251.148438 229.335938 250.617188 231.875 250.238281 233.855469 C 249.855469 235.835938 249.613281 237.257812 249.484375 237.6875 C 249.34375 238.144531 249.253906 238.917969 248.507812 238.738281 C 248.390625 238.710938 248.289062 238.664062 248.203125 238.601562 C 248.074219 238.664062 247.917969 238.695312 247.757812 238.707031 C 246.496094 238.78125 245.234375 238.871094 243.96875 238.871094 L 239.207031 238.867188 L 236.828125 238.859375 L 235.457031 238.851562 L 234.734375 238.847656 L 234.371094 238.84375 L 234.050781 238.84375 C 234.039062 238.839844 234.015625 238.847656 234.015625 238.832031 C 233.972656 238.128906 233.917969 237.40625 233.863281 236.679688 L 233.710938 234.828125 C 233.609375 233.636719 233.519531 232.441406 233.449219 231.246094 C 233.308594 228.847656 233.238281 226.4375 233.308594 224.019531 C 233.371094 221.890625 233.5625 219.753906 233.96875 217.625 C 234.175781 216.5625 234.417969 215.5 234.757812 214.457031 C 235.09375 213.410156 235.496094 212.375 236 211.371094 L 236.402344 210.625 C 236.539062 210.378906 236.699219 210.140625 236.847656 209.898438 C 236.988281 209.65625 237.167969 209.429688 237.332031 209.195312 L 237.585938 208.847656 L 237.84375 208.527344 C 238.527344 207.671875 239.265625 206.851562 240.054688 206.082031 C 241.625 204.527344 243.429688 203.183594 245.320312 202.070312 C 246.355469 201.449219 247.410156 200.90625 248.425781 200.378906 C 248.929688 200.117188 249.421875 199.855469 249.890625 199.589844 C 250.355469 199.324219 250.796875 199.050781 251.195312 198.765625 C 251.992188 198.1875 252.589844 197.5625 253.011719 196.804688 C 253.070312 196.714844 253.109375 196.609375 253.160156 196.511719 C 253.210938 196.414062 253.257812 196.316406 253.296875 196.210938 L 253.425781 195.898438 L 253.53125 195.566406 C 253.667969 195.121094 253.773438 194.679688 253.808594 194.242188 C 253.847656 193.804688 253.855469 193.371094 253.792969 192.949219 C 253.734375 192.527344 253.628906 192.113281 253.480469 191.714844 C 253.175781 190.914062 252.664062 190.171875 252.023438 189.515625 C 250.726562 188.199219 248.902344 187.273438 246.988281 186.820312 C 246.632812 186.734375 246.277344 186.664062 245.914062 186.613281 L 245.644531 186.574219 C 245.554688 186.5625 245.453125 186.554688 245.359375 186.542969 L 244.78125 186.484375 C 244.015625 186.433594 243.253906 186.390625 242.511719 186.4375 C 241.023438 186.5 239.609375 186.804688 238.332031 187.34375 C 237.066406 187.902344 235.945312 188.703125 235.003906 189.738281 C 234.070312 190.78125 233.292969 192.023438 232.703125 193.402344 C 232.386719 194.125 232.027344 195.039062 231.699219 196.117188 C 231.613281 196.382812 231.539062 196.660156 231.460938 196.949219 C 231.378906 197.234375 231.308594 197.53125 231.234375 197.835938 L 231.207031 197.949219 L 231.195312 198.003906 L 231.1875 198.035156 C 231.1875 198.027344 231.175781 198.09375 231.171875 198.113281 C 231.144531 198.273438 231.121094 198.429688 231.09375 198.589844 C 231.039062 198.90625 230.988281 199.226562 230.933594 199.546875 C 230.835938 200.175781 230.734375 200.8125 230.636719 201.453125 C 229.902344 201.441406 229.164062 201.429688 228.421875 201.414062 C 228.058594 201.40625 227.695312 201.398438 227.332031 201.394531 L 227.0625 201.386719 L 226.953125 201.382812 L 226.878906 201.378906 L 226.578125 201.363281 C 225.78125 201.320312 224.980469 201.277344 224.195312 201.234375 C 222.625 201.140625 221.105469 201.046875 219.75 200.949219 C 217.039062 200.761719 214.988281 200.578125 214.496094 200.46875 C 214.117188 200.386719 213.480469 200.347656 213.59375 199.738281 C 213.621094 199.585938 213.6875 199.46875 213.777344 199.375 C 213.6875 199.210938 213.644531 199.007812 213.632812 198.800781 C 213.554688 197.238281 213.539062 195.664062 213.699219 194.097656 C 213.96875 191.640625 214.421875 189.183594 215.207031 186.808594 C 215.601562 185.621094 216.058594 184.453125 216.597656 183.320312 C 217.144531 182.191406 217.761719 181.09375 218.453125 180.039062 C 219.832031 177.929688 221.539062 176.023438 223.457031 174.367188 C 225.378906 172.707031 227.539062 171.328125 229.820312 170.203125 C 232.234375 169.019531 234.804688 168.15625 237.429688 167.597656 C 240.058594 167.035156 242.746094 166.761719 245.433594 166.742188 C 248.121094 166.722656 250.8125 166.960938 253.464844 167.4375 C 256.121094 167.917969 258.742188 168.632812 261.289062 169.613281 C 264.085938 170.691406 266.789062 172.121094 269.230469 174.003906 C 269.53125 174.242188 269.839844 174.476562 270.128906 174.730469 L 270.574219 175.105469 L 271.003906 175.496094 C 271.292969 175.753906 271.570312 176.035156 271.847656 176.308594 C 272.125 176.582031 272.371094 176.863281 272.636719 177.144531 C 273.167969 177.695312 273.640625 178.300781 274.136719 178.886719 C 274.597656 179.507812 275.074219 180.109375 275.492188 180.765625 C 275.933594 181.402344 276.320312 182.078125 276.710938 182.753906 L 277.25 183.792969 C 277.433594 184.140625 277.582031 184.507812 277.746094 184.863281 C 278.375 186.300781 278.878906 187.808594 279.226562 189.367188 C 279.90625 192.476562 279.933594 195.785156 279.203125 198.957031 Z M 273.910156 188.097656 C 272.894531 185.066406 271.089844 182.273438 268.816406 179.902344 C 266.617188 177.570312 263.84375 175.769531 260.851562 174.394531 C 259.347656 173.71875 257.796875 173.136719 256.199219 172.671875 C 255.40625 172.429688 254.597656 172.230469 253.792969 172.035156 C 252.976562 171.859375 252.164062 171.683594 251.339844 171.554688 C 248.054688 171 244.703125 170.828125 241.378906 171.023438 C 237.53125 171.253906 233.742188 172.226562 230.335938 173.894531 C 226.921875 175.554688 223.917969 177.910156 221.503906 180.808594 C 220.933594 181.492188 220.230469 182.453125 219.53125 183.664062 C 218.832031 184.871094 218.140625 186.328125 217.542969 187.953125 C 217.230469 188.765625 216.976562 189.617188 216.71875 190.5 C 216.480469 191.390625 216.246094 192.304688 216.050781 193.242188 C 215.652344 195.113281 215.328125 197.050781 215.074219 198.910156 C 215.070312 198.933594 215.066406 198.960938 215.0625 198.984375 C 216.609375 198.832031 218.160156 198.714844 219.707031 198.625 C 221.242188 198.535156 222.773438 198.457031 224.308594 198.382812 L 226.609375 198.273438 L 226.894531 198.261719 C 226.957031 198.261719 226.957031 198.257812 226.980469 198.257812 L 227.042969 198.25 L 227.28125 198.230469 C 227.433594 198.214844 227.59375 198.214844 227.726562 198.1875 C 227.738281 198.011719 227.746094 197.839844 227.761719 197.671875 L 227.785156 197.425781 L 227.890625 196.777344 C 228.042969 195.910156 228.222656 195.046875 228.46875 194.191406 C 228.945312 192.480469 229.632812 190.789062 230.597656 189.214844 C 231.574219 187.652344 232.835938 186.195312 234.402344 185.101562 C 235.179688 184.550781 236.019531 184.082031 236.894531 183.707031 C 237.769531 183.332031 238.679688 183.066406 239.597656 182.871094 C 241.121094 182.554688 242.667969 182.449219 244.175781 182.515625 C 244.550781 182.542969 244.929688 182.550781 245.304688 182.589844 L 245.863281 182.648438 C 246.050781 182.667969 246.234375 182.6875 246.429688 182.71875 C 247.203125 182.828125 247.972656 182.992188 248.722656 183.214844 C 250.226562 183.660156 251.683594 184.324219 253.007812 185.253906 C 254.328125 186.179688 255.527344 187.386719 256.375 188.886719 C 256.816406 189.664062 257.164062 190.511719 257.378906 191.402344 C 257.597656 192.289062 257.675781 193.214844 257.625 194.121094 C 257.578125 195.027344 257.398438 195.910156 257.132812 196.742188 C 256.875 197.5625 256.5 198.414062 255.984375 199.1875 C 255.480469 199.964844 254.835938 200.660156 254.15625 201.230469 C 253.476562 201.808594 252.765625 202.269531 252.074219 202.671875 C 250.683594 203.46875 249.375 204.066406 248.160156 204.71875 C 246.941406 205.367188 245.808594 206.042969 244.753906 206.820312 C 243.691406 207.585938 242.710938 208.449219 241.796875 209.390625 C 241.5625 209.621094 241.34375 209.867188 241.121094 210.109375 C 240.894531 210.351562 240.6875 210.609375 240.46875 210.859375 L 240.308594 211.050781 L 240.171875 211.226562 L 239.898438 211.582031 C 239.722656 211.824219 239.558594 212.082031 239.390625 212.332031 C 238.742188 213.375 238.207031 214.546875 237.757812 215.785156 C 237.234375 217.214844 236.871094 218.742188 236.617188 220.308594 C 236.363281 221.875 236.210938 223.472656 236.125 225.085938 C 235.957031 228.316406 236.039062 231.582031 236.105469 234.894531 C 236.109375 235.105469 236.117188 235.335938 236.121094 235.582031 C 236.125 235.703125 236.132812 235.832031 236.136719 235.964844 C 236.136719 236.03125 236.140625 236.101562 236.144531 236.167969 C 236.144531 236.191406 236.144531 236.191406 236.144531 236.195312 L 236.144531 236.230469 C 236.140625 236.359375 236.140625 236.503906 236.140625 236.664062 C 236.234375 236.679688 236.34375 236.683594 236.457031 236.695312 L 236.546875 236.703125 L 236.59375 236.707031 L 236.617188 236.707031 L 236.695312 236.710938 C 236.953125 236.722656 237.214844 236.734375 237.480469 236.746094 C 238.542969 236.792969 239.671875 236.851562 240.824219 236.917969 C 243.097656 237.054688 245.480469 237.246094 247.730469 237.53125 C 247.71875 237.425781 247.714844 237.324219 247.710938 237.230469 C 247.652344 235.164062 247.71875 233.089844 247.886719 231.019531 C 248.007812 229.492188 248.179688 227.964844 248.410156 226.4375 L 248.59375 225.292969 L 248.808594 224.144531 C 248.886719 223.765625 248.964844 223.382812 249.050781 223 L 249.183594 222.429688 C 249.230469 222.234375 249.269531 222.054688 249.335938 221.835938 C 249.570312 220.988281 249.898438 220.164062 250.320312 219.398438 C 250.738281 218.628906 251.238281 217.910156 251.789062 217.253906 C 252.898438 215.941406 254.191406 214.863281 255.535156 213.953125 C 258.230469 212.125 261.121094 210.882812 263.847656 209.652344 C 265.242188 209.027344 266.421875 208.449219 267.558594 207.691406 C 268.6875 206.945312 269.726562 206.074219 270.640625 205.09375 C 272.722656 202.855469 274.121094 200.039062 274.625 197.066406 C 275.152344 194.097656 274.859375 191.011719 273.910156 188.097656 Z M 273.910156 188.097656 " fill-opacity="1" fill-rule="nonzero"/></g></svg>