<svg viewBox="0 0 64 64" id="svg5" version="1.1" xml:space="preserve" xmlns="http://www.w3.org/2000/svg" xmlns:svg="http://www.w3.org/2000/svg" fill="#000000"><g id="SVGRepo_bgCarrier" stroke-width="0"></g><g id="SVGRepo_tracerCarrier" stroke-linecap="round" stroke-linejoin="round"></g><g id="SVGRepo_iconCarrier"> <defs id="defs2"></defs> <g id="layer1" transform="translate(-96,-96)"> <path d="m 128,100 c -3.3067,0 -6,2.6933 -6,6 v 30.74023 c -2.75561,1.91435 -4.5957,5.06248 -4.5957,8.66407 0,5.84039 4.7553,10.5957 10.5957,10.5957 5.8404,0 10.5957,-4.75531 10.5957,-10.5957 0,-3.60159 -1.84009,-6.74972 -4.5957,-8.66407 V 106 c 0,-3.3067 -2.6933,-6 -6,-6 z m 0,2 c 2.23329,0 4,1.76671 4,4 v 31.21094 a 1.0001,1.0001 0 0 0 0.47852,0.85351 c 2.46927,1.51033 4.11718,4.22526 4.11718,7.33985 0,4.75975 -3.83594,8.5957 -8.5957,8.5957 -4.75975,0 -8.5957,-3.83595 -8.5957,-8.5957 0,-3.11459 1.64791,-5.82952 4.11718,-7.33985 A 1.0001,1.0001 0 0 0 124,137.21094 V 106 c 0,-2.23329 1.76671,-4 4,-4 z" id="path2928" style="color:#000000;fill:#000000;fill-rule:evenodd;stroke-linecap:round;stroke-linejoin:round;stroke-miterlimit:4.1"></path> <path d="m 128,105 a 1,1 0 0 0 -1,1 v 33.79102 a 1,1 0 0 0 0.0234,0.0879 c -2.62605,0.46588 -4.63672,2.77048 -4.63672,5.52539 0,3.08824 2.52502,5.61133 5.61328,5.61132 3.08826,0 5.61328,-2.52308 5.61328,-5.61132 0,-2.75491 -2.01067,-5.05951 -4.63672,-5.52539 A 1,1 0 0 0 129,139.79102 V 106 a 1,1 0 0 0 -1,-1 z m 0,36.79102 c 2.00738,0 3.61328,1.6059 3.61328,3.61328 0,2.00737 -1.6059,3.61132 -3.61328,3.61132 -2.00738,0 -3.61328,-1.60395 -3.61328,-3.61132 0,-2.00738 1.6059,-3.61328 3.61328,-3.61328 z" id="path832" style="color:#000000;fill:#000000;fill-rule:evenodd;stroke-linecap:round;stroke-linejoin:round;stroke-miterlimit:4.1"></path> <path d="m 116,105 a 1,1 0 0 0 -1,1 1,1 0 0 0 1,1 h 2 a 1,1 0 0 0 1,-1 1,1 0 0 0 -1,-1 z" id="path2948" style="color:#000000;fill:#000000;fill-rule:evenodd;stroke-linecap:round;stroke-linejoin:round;stroke-miterlimit:4.1"></path> <path d="m 113,109 a 1,1 0 0 0 -1,1 1,1 0 0 0 1,1 h 5 a 1,1 0 0 0 1,-1 1,1 0 0 0 -1,-1 z" id="path2950" style="color:#000000;fill:#000000;fill-rule:evenodd;stroke-linecap:round;stroke-linejoin:round;stroke-miterlimit:4.1"></path> <path d="m 116,113 a 1,1 0 0 0 -1,1 1,1 0 0 0 1,1 h 2 a 1,1 0 0 0 1,-1 1,1 0 0 0 -1,-1 z" id="path2952" style="color:#000000;fill:#000000;fill-rule:evenodd;stroke-linecap:round;stroke-linejoin:round;stroke-miterlimit:4.1"></path> <path d="m 113,117 a 1,1 0 0 0 -1,1 1,1 0 0 0 1,1 h 5 a 1,1 0 0 0 1,-1 1,1 0 0 0 -1,-1 z" id="path2954" style="color:#000000;fill:#000000;fill-rule:evenodd;stroke-linecap:round;stroke-linejoin:round;stroke-miterlimit:4.1"></path> <path d="m 116,121 a 1,1 0 0 0 -1,1 1,1 0 0 0 1,1 h 2 a 1,1 0 0 0 1,-1 1,1 0 0 0 -1,-1 z" id="path2956" style="color:#000000;fill:#000000;fill-rule:evenodd;stroke-linecap:round;stroke-linejoin:round;stroke-miterlimit:4.1"></path> <path d="m 113,125 a 1,1 0 0 0 -1,1 1,1 0 0 0 1,1 h 5 a 1,1 0 0 0 1,-1 1,1 0 0 0 -1,-1 z" id="path2958" style="color:#000000;fill:#000000;fill-rule:evenodd;stroke-linecap:round;stroke-linejoin:round;stroke-miterlimit:4.1"></path> <path d="m 116,129 a 1,1 0 0 0 -1,1 1,1 0 0 0 1,1 h 2 a 1,1 0 0 0 1,-1 1,1 0 0 0 -1,-1 z" id="path2960" style="color:#000000;fill:#000000;fill-rule:evenodd;stroke-linecap:round;stroke-linejoin:round;stroke-miterlimit:4.1"></path> <path d="m 113,133 a 1,1 0 0 0 -1,1 1,1 0 0 0 1,1 h 5 a 1,1 0 0 0 1,-1 1,1 0 0 0 -1,-1 z" id="path2962" style="color:#000000;fill:#000000;fill-rule:evenodd;stroke-linecap:round;stroke-linejoin:round;stroke-miterlimit:4.1;-inkscape-stroke:none"></path> <path d="m 140,123.5 c -0.55228,0 -1,0.44772 -1,1 v 7.08594 l -1.29297,-1.29297 A 1,1 0 0 0 137,130 a 1,1 0 0 0 -0.70703,0.29297 1,1 0 0 0 0,1.41406 l 3,3 a 1.0001,1.0001 0 0 0 1.41406,0 l 3,-3 a 1,1 0 0 0 0,-1.41406 1,1 0 0 0 -1.41406,0 L 141,131.58594 V 124.5 c 0,-0.55228 -0.44772,-1 -1,-1 z" id="path3725" style="color:#000000;fill:#000000;fill-rule:evenodd;stroke-linecap:round;stroke-linejoin:round;stroke-miterlimit:4.1;-inkscape-stroke:none"></path> <path d="m 140,104 c -0.55228,0 -1,0.44772 -1,1 v 7.08594 l -1.29297,-1.29297 A 1,1 0 0 0 137,110.5 a 1,1 0 0 0 -0.70703,0.29297 1,1 0 0 0 0,1.41406 l 3,3 a 1.0001,1.0001 0 0 0 1.41406,0 l 3,-3 a 1,1 0 0 0 0,-1.41406 1,1 0 0 0 -1.41406,0 L 141,112.08594 V 105 c 0,-0.55228 -0.44772,-1 -1,-1 z" id="path5037" style="color:#000000;fill:#000000;fill-rule:evenodd;stroke-linecap:round;stroke-linejoin:round;stroke-miterlimit:4.1;-inkscape-stroke:none"></path> </g> </g></svg>