<svg fill="#000000" height="200px" width="200px" version="1.1" id="Capa_1" xmlns="http://www.w3.org/2000/svg" xmlns:xlink="http://www.w3.org/1999/xlink" viewBox="0 0 422.207 422.207" xml:space="preserve"><g id="SVGRepo_bgCarrier" stroke-width="0"></g><g id="SVGRepo_tracerCarrier" stroke-linecap="round" stroke-linejoin="round"></g><g id="SVGRepo_iconCarrier"> <path id="XMLID_348_" d="M128.235,259.092h-0.215v-26.716c0-14.036-11.418-25.455-25.453-25.455H85.305 c-14.036,0-25.455,11.419-25.455,25.455v26.716h-0.216c-12.613,0-22.875,10.262-22.875,22.875v117.365 c0,12.613,10.262,22.875,22.875,22.875h68.602c12.612,0,22.874-10.262,22.874-22.875V281.967 C151.109,269.354,140.848,259.092,128.235,259.092z M75.85,232.376c0-5.214,4.241-9.455,9.455-9.455h17.263 c5.213,0,9.453,4.241,9.453,9.455v26.716H75.85V232.376z M135.109,399.332c0,3.727-3.148,6.875-6.874,6.875H59.634 c-3.727,0-6.875-3.148-6.875-6.875V281.967c0-3.791,3.084-6.875,6.875-6.875h68.602c3.726,0,6.874,3.148,6.874,6.875V399.332z M320.411,41.877v10.266h57.037c4.418,0,8,3.582,8,8s-3.582,8-8,8h-65.037c-4.418,0-8-3.582-8-8V33.877c0-4.418,3.582-8,8-8h65.037 c4.418,0,8,3.582,8,8s-3.582,8-8,8H320.411z M372.619,240.272c1.515,1.645,2.271,3.849,2.088,6.077l-13.884,168.515 c-0.342,4.149-3.809,7.343-7.973,7.343h-82.633c-4.418,0-8-3.582-8-8s3.582-8,8-8h75.265l12.565-152.515h-87.83 c-4.418,0-8-3.582-8-8s3.582-8,8-8h96.517C368.971,237.692,371.104,238.628,372.619,240.272z M278.532,215.854V20.939 C278.532,9.394,287.926,0,299.473,0h77.976c4.418,0,8,3.582,8,8s-3.582,8-8,8h-77.976c-2.725,0-4.94,2.216-4.94,4.939v194.915 c0,4.418-3.582,8-8,8S278.532,220.272,278.532,215.854z M320.411,94.021v10.265h57.037c4.418,0,8,3.582,8,8s-3.582,8-8,8h-65.037 c-4.418,0-8-3.582-8-8V86.021c0-4.418,3.582-8,8-8h65.037c4.418,0,8,3.582,8,8s-3.582,8-8,8H320.411z M224.601,130.163h-13.339 V94.515c0-11.679-6.721-21.818-16.496-26.753V39.967c0-4.418-3.582-8-8-8h-8.303V8.217c0.002-0.071,0.003-0.145,0.003-0.217 c0-4.418-3.582-8-8-8H95.234c-7.703,0-13.97,6.268-13.97,13.971V30.29c0,4.418,3.582,8,8,8s8-3.582,8-8V16h65.198v15.967h-8.3 c-4.418,0-8,3.582-8,8v27.795c-9.776,4.936-16.496,15.074-16.496,26.753v35.648h-13.34c-12.612,0-22.873,10.261-22.873,22.874 v26.791c0,4.418,3.582,8,8,8s8-3.582,8-8v-26.791c0-3.79,3.083-6.874,6.873-6.874h108.273c3.79,0,6.874,3.084,6.874,6.874v246.295 c0,3.791-3.084,6.875-6.874,6.875h-55.104c-4.418,0-8,3.582-8,8s3.582,8,8,8h55.104c12.612,0,22.874-10.262,22.874-22.875V153.037 C247.475,140.424,237.213,130.163,224.601,130.163z M162.163,47.967h16.603v16.602h-16.603V47.967z M195.262,130.163h-49.595V94.515 c0-7.69,6.256-13.946,13.946-13.946h21.704c7.688,0,13.944,6.256,13.944,13.946V130.163z M385.448,138.164c0,4.418-3.582,8-8,8 h-57.037v69.69c0,4.418-3.582,8-8,8s-8-3.582-8-8v-77.69c0-4.418,3.582-8,8-8h65.037 C381.866,130.164,385.448,133.746,385.448,138.164z"></path> </g></svg>