<svg fill="#000000" height="200px" width="200px" version="1.1" id="Layer_1" xmlns="http://www.w3.org/2000/svg" xmlns:xlink="http://www.w3.org/1999/xlink" viewBox="0 0 511.999 511.999" xml:space="preserve"><g id="SVGRepo_bgCarrier" stroke-width="0"></g><g id="SVGRepo_tracerCarrier" stroke-linecap="round" stroke-linejoin="round"></g><g id="SVGRepo_iconCarrier"> <g> <g> <path d="M94.954,394.318c-24.261,0-43.998,19.738-43.998,43.998c0,24.26,19.738,43.998,43.998,43.998 c24.26,0,43.998-19.738,43.998-43.998C138.952,414.056,119.214,394.318,94.954,394.318z M94.954,464.322 c-14.34,0-26.005-11.666-26.005-26.005s11.666-26.005,26.005-26.005c14.339,0,26.005,11.666,26.005,26.005 S109.293,464.322,94.954,464.322z"></path> </g> </g> <g> <g> <path d="M351.115,394.319c-24.26,0-43.998,19.738-43.998,43.998c0,24.26,19.737,43.998,43.998,43.998 c24.261,0,43.998-19.738,43.998-43.998C395.113,414.057,375.375,394.319,351.115,394.319z M351.115,464.321 c-14.339,0-26.005-11.666-26.005-26.005c0-14.339,11.665-26.005,26.005-26.005s26.005,11.666,26.005,26.005 C377.12,452.655,365.454,464.321,351.115,464.321z"></path> </g> </g> <g> <g> <path d="M481.731,103.297h-29.704c-2.922,0-5.662,1.419-7.348,3.806L409.9,156.341H227.315l50.782-144.359 c0.968-2.753,0.541-5.804-1.146-8.185C275.265,1.415,272.527,0,269.609,0H163.492C86.498,0,23.859,62.639,23.859,139.634v44.354 c0,68.874,48.942,126.528,113.873,140.02l65.102,30.534l-59.639,28.149c-12.937-11.235-29.802-18.059-48.24-18.059 c-40.63,0-73.683,33.055-73.683,73.683c0,40.63,33.055,73.683,73.683,73.683c40.628,0,73.683-33.055,73.683-73.683 c0-5.808-0.697-11.454-1.973-16.879h112.741c-1.276,5.424-1.973,11.07-1.973,16.879c0,40.63,33.055,73.683,73.683,73.683 s73.683-33.055,73.683-73.683c0-40.63-33.055-73.683-73.683-73.683c-18.048,0-34.592,6.534-47.417,17.345l-58.602-27.487 l64.592-30.487c64.925-13.497,113.863-71.148,113.863-140.018v-15.784l33.136-46.912h25.044c4.968,0,8.996-4.028,8.996-8.996 S486.7,103.297,481.731,103.297z M223.607,17.992h33.302l-33.302,94.667V17.992z M41.851,139.634 c0-67.074,54.568-121.641,121.641-121.641h42.122v138.348H41.851V139.634z M94.954,494.008c-30.708,0-55.69-24.983-55.69-55.69 c0-30.708,24.983-55.69,55.69-55.69c30.707,0,55.69,24.983,55.69,55.69C150.645,469.024,125.662,494.008,94.954,494.008z M351.115,382.625c30.708,0,55.69,24.983,55.69,55.69c0,30.708-24.983,55.69-55.69,55.69c-30.707,0-55.69-24.983-55.69-55.69 S320.407,382.625,351.115,382.625z M290.943,395.869c-1.715,2.425-3.301,4.948-4.719,7.576H159.845 c-1.26-2.334-2.645-4.588-4.14-6.763l68.271-32.222L290.943,395.869z M223.952,344.575l-37.482-17.58h74.73L223.952,344.575z M280.544,309.002H166.866c-68.933,0-125.014-56.081-125.014-125.014v-9.655h163.766v4.869c0,20.114,16.365,36.479,36.479,36.479 h159.387C387.417,269.317,338.529,309.002,280.544,309.002z M404.804,197.687H242.095c-10.193,0-18.487-8.293-18.487-18.487 v-4.869h181.949v9.655h0.001C405.558,188.617,405.297,193.187,404.804,197.687z"></path> </g> </g> </g></svg>