<svg version="1.1" xmlns="http://www.w3.org/2000/svg" xmlns:xlink="http://www.w3.org/1999/xlink" viewBox="0 0 96 96" enable-background="new 0 0 96 96" xml:space="preserve" fill="#000000"><g id="SVGRepo_bgCarrier" stroke-width="0"></g><g id="SVGRepo_tracerCarrier" stroke-linecap="round" stroke-linejoin="round"></g><g id="SVGRepo_iconCarrier"> <g id="Base" display="none"> </g> <g id="Dibujo"> <g> <path d="M69,44c2.206,0,4,1.794,4,4s-1.794,4-4,4H48c-1.105,0-2,0.896-2,2s0.895,2,2,2h21c4.411,0,8-3.589,8-8s-3.589-8-8-8 c-1.105,0-2,0.896-2,2S67.895,44,69,44z"></path> <path d="M66,58l-30.001-0.001L30,58c-3.859,0-7-3.141-7-7s3.141-7,7-7c0.277,0,0.724,0.068,1.194,0.162V46c0,1.104,0.896,2,2,2 s2-0.896,2-2v-3.224C36.269,36.525,41.631,32,48,32c7.168,0,13,5.832,13,13v1c0,1.104,0.895,2,2,2c1.104,0,2-0.896,2-2v-1 c0-9.374-7.626-17-17-17c-7.664,0-14.219,5.012-16.312,12.184C31.112,40.079,30.507,40,30,40c-6.065,0-11,4.935-11,11 s4.935,11,11,11l5.999-0.001L66,62c3.859,0,7,3.141,7,7c0,1.104,0.895,2,2,2c1.104,0,2-0.896,2-2C77,62.935,72.065,58,66,58z"></path> <path d="M65.999,64H30c-1.105,0-2,0.896-2,2s0.895,2,2,2h35.999c0.552,0,1,0.448,1,1s-0.448,1-1,1c-1.105,0-2,0.896-2,2 s0.895,2,2,2c2.757,0,5-2.243,5-5S68.756,64,65.999,64z"></path> <path d="M80,50c-1.105,0-2,0.896-2,2s0.895,2,2,2c0.552,0,1,0.448,1,1s-0.448,1-1,1h-4c-1.105,0-2,0.896-2,2s0.895,2,2,2h4 c2.757,0,5-2.243,5-5S82.757,50,80,50z"></path> </g> </g> </g></svg>